<svg version="1" xmlns="http://www.w3.org/2000/svg" width="832" height="832" viewBox="0 0 624.000000 624.000000"><path d="M476.5 25.4c-1.1.6-5.6 3.1-10 5.6-4.4 2.5-8.8 4.9-9.7 5.5-.9.5-3.5 2-5.8 3.3-2.3 1.2-11.8 6.6-21.3 12C383 78.5 373.1 84 372.2 84c-.6 0-1.2.4-1.4.9-.1.4-3.2 2.4-6.8 4.3-3.6 1.9-13 7.2-21 11.8-8 4.5-16.5 9.4-19 10.8-2.5 1.3-7.4 4.2-11 6.2-3.6 2.1-8.3 4.8-10.5 6-6.1 3.4-26.5 15-31 17.6-2.2 1.3-6 3.3-8.4 4.6-4.3 2.3-9 6.9-9.2 9.1 0 .7-.2 2-.4 2.9-.2.9.1 3.4.5 5.5.5 2.1 1.1 4.9 1.4 6.3.2 1.4 1.2 6.1 2.1 10.5.9 4.4 1.9 9.1 2.1 10.5.3 1.4.7 3.3 1 4.2.8 2.6 1.5 6 1.9 9.3.5 3.3.6 4.1 2.9 13.8.9 3.7 1.8 8.2 2.1 10 .3 1.7.8 4 1.1 5 .3 1.1.7 2.9.9 4 .1 1.2.7 4.2 1.3 6.7.6 2.4.9 4.6.7 4.9-.3.2 0 1 .6 1.8.6.7.9 1.3.6 1.3-.3 0 .1 2.6.8 5.8.8 3.3 1.6 7 1.9 8.3.5 2.7 3.6 17.4 4.3 20.4.8 3.8 1.5 7 1.9 9.2.2 1.3.6 3.3.8 4.5.2 1.3 1.4 6.6 2.5 11.8 1.1 5.2 2.2 10.6 2.5 12 .2 1.4 1.4 6.8 2.6 12 1.1 5.2 2.3 11.3 2.6 13.5.3 2.2.9 4.5 1.5 5.1.5.6.7 1.3.4 1.5-.2.3 0 2.2.6 4.4.5 2.2 1.2 5.6 1.5 7.5.3 1.9.9 5.1 1.4 7 .5 1.9 1.1 4.6 1.4 6 .2 1.4.7 3.6 1 5 .3 1.4.8 3.6 1 5 .3 1.4 2.1 10.4 4.1 20 2.1 9.6 3.9 18.6 4.1 20 .3 1.4.9 4.1 1.4 6 .5 1.9 1.2 5.1 1.5 7 .3 1.9 1 5.1 1.5 7 .8 3.4 1.2 5.5 2.5 13 .3 1.9.8 4.2 1.1 5 .3.8.8 2.8 1.1 4.5.2 1.6 1.1 5.9 1.9 9.5.9 3.6 1.7 7.8 1.9 9.4.4 2.8 2.1 10.5 3.4 15.6 1.5 5.4 1.1 6-15.2 22.9-11.5 11.8-24.8 20.7-33.9 22.7-1.3.3-3.4.7-4.7 1-1.4.3-2.9.8-3.4 1.1-1.7 1.1-24.2 1.2-28.7.2-2.5-.6-5.6-1.3-7-1.5-4.8-.9-15.6-6.6-22.5-11.9-9-6.9-15.5-13.9-35.3-38-1-1.1-3.7-4.5-6.2-7.5-11.1-13.5-36.8-38-39.9-38-.4 0-1.6-.9-2.6-2s-2.4-2-3.2-2c-.7 0-1.3-.3-1.3-.8 0-.4-.8-1.2-1.9-1.7-16-8.5-30.4-14.9-35.6-15.9-.5-.1-1.6-.5-2.2-.9-.7-.5-1.3-.6-1.3-.3s-1.1.1-2.5-.4-3.6-1.2-4.8-1.4c-1.2-.2-6-1.1-10.7-2.1-10.5-2-21.2-2.9-35.5-3-11.4 0-15.4 1-20.1 5.2C4.9 436 .6 442 1.6 442c.3 0 .2.6-.3 1.2-1.4 1.9-1.6 8.1-.3 12.7 1.3 5 7.3 11.5 12.5 13.7 2.3.9 7.9 1.6 15.3 1.9 16 .5 20.3 1.1 37.7 4.9 3.6.8 15.5 5.2 20.7 7.8 18.3 8.8 35.8 24.5 55.3 49.3 2.2 2.7 4.2 5.2 4.5 5.5.3.3 3.7 4.3 7.6 9 9.2 11 17.5 19.4 25.5 25.9 3.5 2.8 7 5.6 7.7 6.2 2.5 2 16.3 9.9 17.3 9.9.6 0 2.3.6 3.7 1.4 3.9 2.1 13.6 5.1 21.7 6.7 10.4 2.1 37.9 1.8 48-.5 29.8-6.5 47.4-18 76-49.6 2.8-3.1 8.5-9.4 12.7-14 4.2-4.7 8.5-9.4 9.5-10.6 1-1.2 5.2-5.8 9.3-10.4 4.1-4.5 8.4-9.2 9.5-10.4 5.7-6.4 16.4-18.2 19-21 4-4.3 17.2-19 22.1-24.6 2.1-2.4 4.6-5.1 5.4-6 1.2-1.3 15.6-17.1 19.5-21.4.6-.6 4.8-5.4 9.5-10.6 8.3-9.2 13.4-14.9 19.5-21.6 1.7-1.8 5.9-6.5 9.5-10.5 3.6-4 8.5-9.5 11-12.2 2.5-2.8 6.8-7.6 9.6-10.6 2.8-3.1 6.6-7.3 8.5-9.4 1.9-2.1 4.5-5.1 5.9-6.6 4.7-5 12.5-13.7 19.5-21.6 9.5-10.6 12-13.3 16.3-18 2-2.2 7.3-8 11.7-12.9 4.4-4.9 9.1-10.1 10.5-11.6 1.4-1.5 5.7-6.3 9.5-10.6 3.9-4.3 8.7-9.6 10.8-11.8 4.8-5.1 7-9.3 6.9-12.8-.1-2.6-2.7-9.1-4.5-11.3-.4-.6-5-8.1-10-16.8-5.1-8.7-10.2-17.5-11.4-19.5-1.1-2-2.8-4.8-3.5-6.2-.8-1.4-9.6-16.4-19.6-33.3-10-16.9-18.2-31.2-18.2-31.7 0-.4-.4-1-.8-1.2-.6-.2-5.9-9-17.1-28.2-8.9-15.4-16.7-28.6-18.6-31.6-2.5-4-15.4-26.1-19.6-33.5-3.2-5.9-6.4-9.4-9.7-10.6-3.1-1.2-8.2-1-10.7.5z"/></svg>