<?xml version="1.0" encoding="UTF-8"?>
<svg width="39px" height="36px" viewBox="0 0 39 36" version="1.1" xmlns="http://www.w3.org/2000/svg" xmlns:xlink="http://www.w3.org/1999/xlink">
    <!-- Generator: Sketch 46.2 (44496) - http://www.bohemiancoding.com/sketch -->
    <title>logo</title>
    <desc>Created with Sketch.</desc>
    <defs>
        <linearGradient x1="50%" y1="0%" x2="50%" y2="100%" id="linearGradient-1">
            <stop stop-color="#FF8800" offset="0%"></stop>
            <stop stop-color="#FF6600" offset="100%"></stop>
        </linearGradient>
    </defs>
    <g id="Catalog" stroke="none" stroke-width="1" fill="none" fill-rule="evenodd">
        <g id="Page-1" transform="translate(-42.000000, -22.000000)" fill="url(#linearGradient-1)">
            <g id="top">
                <path d="M72.868244,22.404544 C72.6405958,22.0177278 72.1363003,21.8851051 71.7421767,22.1085325 L58.2482382,29.7546496 C57.9411566,29.9287916 57.7816812,30.2764781 57.8528973,30.6175933 L62.3942582,52.3988127 C62.4161301,52.5037148 62.370779,52.6585782 62.3020649,52.734636 L61.7503076,53.3453612 C60.6032406,54.615134 59.631475,55.3030396 57.7844202,55.3030396 C55.7133694,55.3030396 54.7409951,54.2316035 53.2013263,52.3378469 C51.3624888,50.0763908 49.0744418,47.2620414 43.5113649,47.2620414 L43.3738021,47.2620414 C42.6150762,47.2620414 42,47.8657137 42,48.6103723 C42,49.3550308 42.6150762,49.9587031 43.3738021,49.9587031 L43.5113649,49.9587031 C47.7514649,49.9587031 49.3553499,51.9313165 51.0535812,54.0198254 C52.5704243,55.8855042 54.2896551,58 57.7844202,58 C60.8013676,58 62.461556,56.6226953 63.8061413,55.134573 L68.7657069,49.6456657 C68.7657069,49.645367 80.5617185,36.5894981 80.5617185,36.5894981 C80.7969752,36.3290319 80.8362354,35.9499819 80.6588037,35.6482951 L72.868244,22.404544 Z" id="logo"></path>
            </g>
        </g>
    </g>
</svg>