<?xml version="1.0" encoding="UTF-8" standalone="no"?><!-- Generator: Gravit.io --><svg xmlns="http://www.w3.org/2000/svg" xmlns:xlink="http://www.w3.org/1999/xlink" style="isolation:isolate" viewBox="601.5 510.243 236 131.757" width="236pt" height="131.757pt"><g style="opacity:0.3;"><linearGradient id="_lgradient_0" x1="0" y1="0.5" x2="1" y2="0.5" gradientTransform="matrix(-236,0,0,-17.853,837.5,528.096)" gradientUnits="userSpaceOnUse"><stop offset="2.608695652173913%" stop-opacity="1" style="stop-color:rgb(255,255,255)"/><stop offset="98.26086956521739%" stop-opacity="0" style="stop-color:rgb(255,255,255)"/></linearGradient><path d=" M 602.051 528.096 L 601.5 528.096 L 601.5 526.995 L 602.051 526.995 C 605.464 526.999 608.877 526.936 612.291 526.808 C 615.311 526.694 618.332 526.518 621.349 526.279 C 626.462 525.875 631.552 525.248 636.61 524.389 C 640.835 523.662 645.033 522.77 649.192 521.721 C 651.1 521.24 653.005 520.737 654.903 520.216 C 656.756 519.702 658.61 519.184 660.46 518.656 C 662.317 518.127 664.178 517.606 666.038 517.089 C 667.951 516.56 669.87 516.057 671.797 515.573 C 676.003 514.512 680.246 513.613 684.522 512.875 C 689.642 512.009 694.799 511.37 699.978 510.967 C 703.028 510.724 706.085 510.548 709.146 510.431 C 712.596 510.302 716.046 510.24 719.5 510.244 C 722.943 510.24 726.385 510.302 729.825 510.431 C 732.871 510.545 735.917 510.721 738.956 510.963 C 744.106 511.367 749.233 512.002 754.327 512.864 C 758.57 513.595 762.787 514.494 766.961 515.551 C 768.873 516.032 770.778 516.538 772.675 517.063 C 774.521 517.577 776.368 518.098 778.21 518.623 C 780.056 519.151 781.906 519.673 783.756 520.186 C 785.653 520.715 787.555 521.218 789.463 521.699 C 793.633 522.756 797.839 523.648 802.074 524.378 C 807.165 525.24 812.292 525.872 817.438 526.275 C 820.485 526.514 823.538 526.694 826.592 526.808 C 830.042 526.932 833.496 526.999 836.949 526.995 L 837.5 526.995 L 837.5 528.096 L 836.949 528.096 C 833.481 528.1 830.016 528.034 826.548 527.905 C 823.479 527.791 820.415 527.615 817.354 527.373 C 812.171 526.969 807.015 526.33 801.891 525.464 C 797.626 524.73 793.39 523.827 789.195 522.767 C 787.276 522.282 785.367 521.776 783.459 521.247 C 781.609 520.733 779.755 520.212 777.909 519.684 C 776.067 519.155 774.224 518.638 772.382 518.124 C 770.491 517.599 768.594 517.096 766.693 516.615 C 762.545 515.566 758.357 514.677 754.14 513.947 C 749.083 513.092 743.985 512.46 738.872 512.06 C 735.844 511.822 732.816 511.646 729.784 511.532 C 726.356 511.403 722.928 511.341 719.5 511.345 C 716.061 511.341 712.622 511.403 709.186 511.532 C 706.14 511.646 703.101 511.822 700.062 512.064 C 694.92 512.468 689.796 513.099 684.709 513.962 C 680.463 514.692 676.246 515.588 672.065 516.641 C 670.149 517.122 668.237 517.625 666.332 518.153 C 664.471 518.667 662.614 519.184 660.761 519.713 C 658.907 520.241 657.054 520.763 655.196 521.277 C 653.292 521.801 651.379 522.308 649.46 522.789 C 645.272 523.846 641.047 524.741 636.794 525.475 C 631.707 526.338 626.579 526.973 621.437 527.377 C 618.405 527.615 615.37 527.795 612.331 527.909 C 608.907 528.034 605.479 528.1 602.051 528.096 Z " fill="url(#_lgradient_0)"/><linearGradient id="_lgradient_1" x1="0" y1="0.5" x2="1" y2="0.5" gradientTransform="matrix(-236,0,0,-17.849,837.5,534.794)" gradientUnits="userSpaceOnUse"><stop offset="2.608695652173913%" stop-opacity="1" style="stop-color:rgb(255,255,255)"/><stop offset="98.26086956521739%" stop-opacity="0" style="stop-color:rgb(255,255,255)"/></linearGradient><path d=" M 602.051 534.794 L 601.5 534.794 L 601.5 533.693 L 602.051 533.693 C 605.464 533.697 608.877 533.634 612.291 533.506 C 615.311 533.396 618.332 533.216 621.349 532.977 C 626.462 532.577 631.552 531.946 636.61 531.091 C 640.835 530.361 645.033 529.472 649.192 528.423 C 651.1 527.942 653.005 527.439 654.903 526.914 C 656.756 526.404 658.61 525.883 660.46 525.354 C 662.317 524.826 664.178 524.305 666.038 523.791 C 667.951 523.262 669.87 522.756 671.797 522.271 C 676.003 521.21 680.246 520.311 684.522 519.574 C 689.642 518.707 694.799 518.072 699.978 517.669 C 703.028 517.426 706.085 517.247 709.146 517.133 L 719.5 516.946 L 729.825 517.133 C 729.825 517.133 729.825 517.133 729.825 517.133 C 732.871 517.247 735.917 517.423 738.956 517.665 C 744.106 518.065 749.233 518.7 754.327 519.562 C 758.57 520.297 762.787 521.192 766.961 522.249 C 768.873 522.734 770.778 523.236 772.675 523.765 C 774.521 524.275 776.368 524.796 778.21 525.325 C 780.056 525.853 781.906 526.375 783.756 526.888 C 785.653 527.413 787.555 527.92 789.463 528.401 C 793.633 529.454 797.839 530.349 802.074 531.08 C 807.165 531.939 812.292 532.574 817.438 532.974 C 820.485 533.216 823.538 533.392 826.592 533.506 C 830.042 533.634 833.496 533.697 836.949 533.693 L 837.5 533.693 L 837.5 534.794 L 836.949 534.794 C 833.481 534.798 830.016 534.735 826.548 534.607 C 823.479 534.493 820.415 534.313 817.354 534.071 C 812.171 533.667 807.015 533.032 801.891 532.166 C 797.626 531.429 793.39 530.529 789.195 529.469 C 787.276 528.984 785.367 528.478 783.459 527.949 C 781.609 527.435 779.755 526.914 777.909 526.382 C 776.067 525.857 774.224 525.336 772.382 524.826 C 770.491 524.301 768.594 523.798 766.693 523.317 C 762.545 522.267 758.357 521.376 754.14 520.649 C 749.083 519.79 743.985 519.162 738.872 518.762 C 735.844 518.52 732.816 518.344 729.784 518.234 C 726.356 518.105 722.928 518.043 719.5 518.047 C 716.061 518.043 712.622 518.105 709.186 518.234 C 706.14 518.348 703.101 518.524 700.062 518.766 C 694.92 519.166 689.796 519.801 684.709 520.66 C 680.463 521.394 676.246 522.286 672.065 523.339 C 670.149 523.82 668.237 524.327 666.332 524.851 C 664.471 525.365 662.614 525.886 660.761 526.415 C 658.907 526.943 657.054 527.465 655.196 527.975 C 653.292 528.503 651.379 529.006 649.46 529.491 C 645.272 530.544 641.047 531.443 636.794 532.177 C 631.707 533.04 626.579 533.671 621.437 534.075 C 618.405 534.317 615.37 534.493 612.331 534.607 C 608.907 534.735 605.479 534.798 602.051 534.794 Z " fill="url(#_lgradient_1)"/><linearGradient id="_lgradient_2" x1="0" y1="0.5" x2="1" y2="0.5" gradientTransform="matrix(-236,0,0,-17.853,837.5,541.496)" gradientUnits="userSpaceOnUse"><stop offset="2.608695652173913%" stop-opacity="1" style="stop-color:rgb(255,255,255)"/><stop offset="98.26086956521739%" stop-opacity="0" style="stop-color:rgb(255,255,255)"/></linearGradient><path d=" M 602.051 541.496 L 601.5 541.496 L 601.5 540.395 L 602.051 540.395 C 605.464 540.399 608.877 540.336 612.291 540.208 C 615.311 540.094 618.332 539.918 621.349 539.679 C 626.462 539.276 631.552 538.648 636.61 537.793 C 640.835 537.062 645.033 536.171 649.192 535.121 C 651.1 534.64 653.005 534.141 654.903 533.616 C 656.756 533.102 658.61 532.585 660.46 532.056 C 662.317 531.528 664.178 531.006 666.038 530.489 C 667.951 529.964 669.87 529.458 671.797 528.973 C 676.003 527.912 680.246 527.013 684.522 526.275 C 689.642 525.409 694.799 524.774 699.978 524.367 C 703.028 524.125 706.085 523.948 709.146 523.835 C 712.596 523.706 716.046 523.64 719.5 523.644 C 722.943 523.64 726.385 523.703 729.825 523.831 C 732.871 523.945 735.917 524.125 738.956 524.363 C 744.106 524.767 749.233 525.402 754.327 526.264 C 758.57 526.999 762.787 527.894 766.961 528.951 C 768.873 529.432 770.778 529.938 772.675 530.463 C 774.521 530.977 776.368 531.498 778.21 532.027 C 780.056 532.555 781.906 533.073 783.756 533.587 C 785.653 534.115 787.555 534.618 789.463 535.099 C 793.633 536.156 797.839 537.048 802.074 537.778 C 807.165 538.641 812.292 539.272 817.438 539.676 C 820.485 539.914 823.538 540.094 826.592 540.208 C 830.042 540.336 833.496 540.399 836.949 540.395 L 837.5 540.395 L 837.5 541.496 L 836.949 541.496 C 833.481 541.5 830.016 541.434 826.548 541.305 C 823.479 541.192 820.415 541.015 817.354 540.773 C 812.171 540.369 807.015 539.731 801.891 538.865 C 797.626 538.13 793.39 537.228 789.195 536.167 C 787.276 535.682 785.367 535.176 783.459 534.647 C 781.609 534.134 779.755 533.612 777.909 533.084 C 776.067 532.555 774.224 532.038 772.382 531.524 C 770.491 530.999 768.594 530.496 766.693 530.019 C 762.545 528.966 758.357 528.078 754.14 527.347 C 749.083 526.492 743.985 525.861 738.872 525.461 C 735.844 525.222 732.816 525.046 729.784 524.932 C 726.356 524.804 722.928 524.741 719.5 524.745 C 716.061 524.741 712.622 524.804 709.186 524.932 C 706.14 525.046 703.101 525.226 700.062 525.464 C 694.92 525.868 689.796 526.499 684.709 527.362 C 680.463 528.092 676.246 528.988 672.065 530.041 C 670.149 530.522 668.237 531.025 666.332 531.553 C 664.471 532.067 662.614 532.588 660.761 533.117 C 658.907 533.642 657.054 534.163 655.196 534.677 C 653.292 535.202 651.379 535.708 649.46 536.189 C 645.272 537.246 641.047 538.142 636.794 538.876 C 631.707 539.738 626.579 540.373 621.437 540.777 C 618.405 541.015 615.37 541.195 612.331 541.309 C 608.907 541.437 605.479 541.5 602.051 541.496 Z " fill="url(#_lgradient_2)"/><linearGradient id="_lgradient_3" x1="0" y1="0.5" x2="1" y2="0.5" gradientTransform="matrix(-236,0,0,-17.849,837.5,548.195)" gradientUnits="userSpaceOnUse"><stop offset="2.608695652173913%" stop-opacity="1" style="stop-color:rgb(255,255,255)"/><stop offset="98.26086956521739%" stop-opacity="0" style="stop-color:rgb(255,255,255)"/></linearGradient><path d=" M 602.051 548.194 L 601.5 548.194 L 601.5 547.093 L 602.051 547.093 C 605.464 547.097 608.877 547.035 612.291 546.906 C 615.311 546.796 618.332 546.62 621.349 546.378 C 626.462 545.978 631.552 545.346 636.61 544.491 C 640.835 543.761 645.033 542.873 649.192 541.823 C 651.1 541.342 653.005 540.839 654.903 540.314 C 656.756 539.804 658.61 539.283 660.46 538.758 C 662.317 538.226 664.178 537.705 666.038 537.191 C 667.951 536.662 669.87 536.156 671.797 535.671 C 676.003 534.611 680.246 533.711 684.522 532.974 C 689.642 532.111 694.799 531.473 699.978 531.069 C 703.028 530.827 706.085 530.647 709.146 530.533 L 719.5 530.346 L 729.825 530.533 C 729.825 530.533 729.825 530.533 729.825 530.533 C 732.871 530.647 735.917 530.823 738.956 531.065 C 744.106 531.465 749.233 532.1 754.327 532.963 C 758.57 533.697 762.787 534.592 766.961 535.649 C 768.873 536.134 770.778 536.637 772.675 537.165 C 774.521 537.675 776.368 538.197 778.21 538.725 C 780.056 539.254 781.906 539.775 783.756 540.289 C 785.653 540.813 787.555 541.32 789.463 541.801 C 793.633 542.854 797.839 543.75 802.074 544.48 C 807.165 545.343 812.292 545.974 817.438 546.374 C 820.485 546.616 823.538 546.792 826.592 546.906 C 830.042 547.035 833.496 547.097 836.949 547.093 L 837.5 547.093 L 837.5 548.194 L 836.949 548.194 C 833.481 548.198 830.016 548.136 826.548 548.007 C 823.479 547.893 820.415 547.714 817.354 547.471 C 812.171 547.068 807.015 546.433 801.891 545.567 C 797.626 544.829 793.39 543.93 789.195 542.869 C 787.276 542.384 785.367 541.878 783.459 541.349 C 781.609 540.835 779.755 540.314 777.909 539.782 C 776.067 539.257 774.224 538.736 772.382 538.226 C 770.491 537.701 768.594 537.198 766.693 536.717 C 762.545 535.668 758.357 534.776 754.14 534.049 C 749.083 533.19 743.985 532.563 738.872 532.163 C 735.844 531.92 732.816 531.744 729.784 531.634 C 726.356 531.506 722.928 531.443 719.5 531.447 C 716.061 531.443 712.622 531.506 709.186 531.634 C 706.14 531.748 703.101 531.924 700.062 532.166 C 694.92 532.566 689.796 533.201 684.709 534.06 C 680.463 534.794 676.246 535.686 672.065 536.739 C 670.149 537.224 668.237 537.727 666.332 538.252 C 664.471 538.765 662.614 539.287 660.761 539.815 C 658.907 540.344 657.054 540.865 655.196 541.375 C 653.292 541.904 651.379 542.406 649.46 542.891 C 645.272 543.948 641.047 544.843 636.794 545.578 C 631.707 546.44 626.579 547.071 621.437 547.475 C 618.405 547.717 615.37 547.893 612.331 548.007 C 608.907 548.136 605.479 548.198 602.051 548.194 Z " fill="url(#_lgradient_3)"/><linearGradient id="_lgradient_4" x1="0" y1="0.5" x2="1" y2="0.5" gradientTransform="matrix(-236,0,0,-17.852,837.5,554.897)" gradientUnits="userSpaceOnUse"><stop offset="2.608695652173913%" stop-opacity="1" style="stop-color:rgb(255,255,255)"/><stop offset="98.26086956521739%" stop-opacity="0" style="stop-color:rgb(255,255,255)"/></linearGradient><path d=" M 602.051 554.896 L 601.5 554.896 L 601.5 553.795 L 602.051 553.795 C 605.464 553.799 608.877 553.737 612.291 553.608 C 615.311 553.494 618.332 553.318 621.349 553.08 C 626.462 552.676 631.552 552.048 636.61 551.193 C 640.835 550.463 645.033 549.571 649.192 548.521 C 651.1 548.044 653.005 547.541 654.903 547.016 C 656.756 546.502 658.61 545.985 660.46 545.456 C 662.317 544.928 664.178 544.407 666.038 543.893 C 667.951 543.364 669.87 542.858 671.797 542.373 C 676.003 541.313 680.246 540.413 684.522 539.676 C 689.642 538.809 694.799 538.175 699.978 537.767 C 703.028 537.525 706.085 537.349 709.146 537.235 L 719.5 537.044 L 729.825 537.231 C 729.825 537.231 729.825 537.231 729.825 537.231 C 732.871 537.345 735.917 537.525 738.956 537.763 C 744.106 538.167 749.233 538.802 754.327 539.665 C 758.57 540.399 762.787 541.294 766.961 542.351 C 768.873 542.832 770.778 543.339 772.675 543.863 C 774.521 544.377 776.368 544.899 778.21 545.427 C 780.056 545.956 781.906 546.477 783.756 546.987 C 785.653 547.515 787.555 548.018 789.463 548.503 C 793.633 549.556 797.839 550.448 802.074 551.178 C 807.165 552.041 812.292 552.672 817.438 553.076 C 820.485 553.315 823.538 553.494 826.592 553.608 C 830.042 553.737 833.496 553.799 836.949 553.795 L 837.5 553.795 L 837.5 554.896 L 836.949 554.896 C 833.481 554.9 830.016 554.838 826.548 554.706 C 823.479 554.592 820.415 554.416 817.354 554.173 C 812.171 553.77 807.015 553.131 801.891 552.265 C 797.626 551.531 793.39 550.632 789.195 549.567 C 787.276 549.083 785.367 548.576 783.459 548.051 C 781.609 547.534 779.755 547.013 777.909 546.484 C 776.067 545.956 774.224 545.438 772.382 544.924 C 770.491 544.399 768.594 543.9 766.693 543.419 C 762.545 542.366 758.357 541.478 754.14 540.747 C 749.083 539.892 743.985 539.261 738.872 538.861 C 735.844 538.622 732.816 538.446 729.784 538.332 C 726.356 538.204 722.928 538.142 719.5 538.145 C 716.061 538.142 712.622 538.208 709.186 538.332 C 706.14 538.446 703.101 538.626 700.062 538.865 C 694.92 539.268 689.796 539.9 684.709 540.762 C 680.463 541.492 676.246 542.388 672.065 543.441 C 670.149 543.922 668.237 544.425 666.332 544.954 C 664.471 545.467 662.614 545.989 660.761 546.517 C 658.907 547.042 657.054 547.563 655.196 548.077 C 653.292 548.602 651.379 549.108 649.46 549.589 C 645.272 550.646 641.047 551.542 636.794 552.276 C 631.707 553.138 626.579 553.773 621.437 554.177 C 618.405 554.416 615.37 554.595 612.331 554.709 C 608.907 554.838 605.479 554.9 602.051 554.896 Z " fill="url(#_lgradient_4)"/><linearGradient id="_lgradient_5" x1="0" y1="0.5" x2="1" y2="0.5" gradientTransform="matrix(-236,0,0,-17.849,837.5,561.595)" gradientUnits="userSpaceOnUse"><stop offset="2.608695652173913%" stop-opacity="1" style="stop-color:rgb(255,255,255)"/><stop offset="98.26086956521739%" stop-opacity="0" style="stop-color:rgb(255,255,255)"/></linearGradient><path d=" M 602.051 561.595 L 601.5 561.595 L 601.5 560.494 L 602.051 560.494 C 605.464 560.497 608.877 560.435 612.291 560.306 C 615.311 560.196 618.332 560.02 621.349 559.778 C 626.462 559.378 631.552 558.747 636.61 557.891 C 640.835 557.161 645.033 556.273 649.192 555.223 C 651.1 554.742 653.005 554.239 654.903 553.715 C 656.756 553.204 658.61 552.683 660.46 552.158 C 662.317 551.626 664.178 551.105 666.038 550.591 C 667.951 550.063 669.87 549.556 671.797 549.072 C 676.003 548.011 680.246 547.112 684.522 546.378 C 689.642 545.511 694.799 544.873 699.978 544.469 C 703.028 544.227 706.085 544.047 709.146 543.933 L 719.5 543.746 L 729.825 543.933 C 729.825 543.933 729.825 543.933 729.825 543.933 C 732.871 544.047 735.917 544.223 738.956 544.465 C 744.106 544.869 749.233 545.5 754.327 546.363 C 758.57 547.097 762.787 547.993 766.961 549.05 C 768.873 549.534 770.778 550.037 772.675 550.565 C 774.521 551.076 776.368 551.597 778.21 552.125 C 780.056 552.654 781.906 553.175 783.756 553.689 C 785.653 554.214 787.555 554.72 789.463 555.201 C 793.633 556.254 797.839 557.15 802.074 557.88 C 807.165 558.743 812.292 559.374 817.438 559.774 C 820.485 560.016 823.538 560.193 826.592 560.306 C 830.042 560.435 833.496 560.497 836.949 560.494 L 837.5 560.494 L 837.5 561.595 L 836.949 561.595 C 833.481 561.598 830.016 561.536 826.548 561.408 C 823.479 561.294 820.415 561.114 817.354 560.872 C 812.171 560.468 807.015 559.833 801.891 558.967 C 797.626 558.229 793.39 557.33 789.195 556.269 C 787.276 555.785 785.367 555.278 783.459 554.75 C 781.609 554.236 779.755 553.715 777.909 553.186 C 776.067 552.658 774.224 552.136 772.382 551.626 C 770.491 551.101 768.594 550.598 766.693 550.118 C 762.545 549.068 758.357 548.176 754.14 547.449 C 749.083 546.591 743.985 545.963 738.872 545.563 C 735.844 545.321 732.816 545.144 729.784 545.034 C 726.356 544.906 722.928 544.843 719.5 544.847 C 716.061 544.843 712.622 544.906 709.186 545.034 C 706.14 545.148 703.101 545.324 700.062 545.567 C 694.92 545.97 689.796 546.602 684.709 547.46 C 680.463 548.194 676.246 549.086 672.065 550.14 C 670.149 550.624 668.237 551.127 666.332 551.652 C 664.471 552.166 662.614 552.687 660.761 553.215 C 658.907 553.744 657.054 554.265 655.196 554.775 C 653.292 555.304 651.379 555.807 649.46 556.291 C 645.272 557.348 641.047 558.244 636.794 558.978 C 631.707 559.84 626.579 560.472 621.437 560.875 C 618.405 561.118 615.37 561.294 612.331 561.408 C 608.907 561.536 605.479 561.598 602.051 561.595 Z " fill="url(#_lgradient_5)"/><linearGradient id="_lgradient_6" x1="0" y1="0.5" x2="1" y2="0.5" gradientTransform="matrix(-236,0,0,-17.853,837.5,568.297)" gradientUnits="userSpaceOnUse"><stop offset="2.608695652173913%" stop-opacity="1" style="stop-color:rgb(255,255,255)"/><stop offset="98.26086956521739%" stop-opacity="0" style="stop-color:rgb(255,255,255)"/></linearGradient><path d=" M 602.051 568.297 L 601.5 568.297 L 601.5 567.196 L 602.051 567.196 C 605.464 567.199 608.877 567.137 612.291 567.008 C 615.311 566.895 618.332 566.718 621.349 566.48 C 626.462 566.08 631.552 565.449 636.61 564.593 C 640.835 563.863 645.033 562.971 649.192 561.925 C 651.1 561.444 653.005 560.941 654.903 560.417 C 656.756 559.903 658.61 559.385 660.46 558.857 C 662.317 558.328 664.178 557.807 666.038 557.293 C 667.951 556.765 669.87 556.258 671.797 555.774 C 676.003 554.713 680.246 553.814 684.522 553.076 C 689.642 552.21 694.799 551.575 699.978 551.167 C 703.028 550.925 706.085 550.749 709.146 550.635 C 712.596 550.507 716.046 550.441 719.5 550.444 C 722.943 550.441 726.385 550.507 729.825 550.632 C 732.871 550.745 735.917 550.925 738.956 551.164 C 744.106 551.567 749.233 552.202 754.327 553.065 C 758.57 553.799 762.787 554.695 766.961 555.752 C 768.873 556.232 770.778 556.739 772.675 557.264 C 774.521 557.778 776.368 558.299 778.21 558.827 C 780.056 559.356 781.906 559.877 783.756 560.391 C 785.653 560.916 787.555 561.419 789.463 561.903 C 793.633 562.956 797.839 563.848 802.074 564.579 C 807.165 565.441 812.292 566.072 817.438 566.476 C 820.485 566.718 823.538 566.895 826.592 567.008 C 830.042 567.137 833.496 567.199 836.949 567.196 L 837.5 567.196 L 837.5 568.297 L 836.949 568.297 C 833.481 568.3 830.016 568.238 826.548 568.109 C 823.479 567.992 820.415 567.816 817.354 567.574 C 812.171 567.17 807.015 566.531 801.891 565.665 C 797.626 564.931 793.39 564.032 789.195 562.967 C 787.276 562.487 785.367 561.98 783.459 561.452 C 781.609 560.934 779.755 560.413 777.909 559.884 C 776.067 559.356 774.224 558.838 772.382 558.324 C 770.491 557.8 768.594 557.3 766.693 556.82 C 762.545 555.77 758.357 554.878 754.14 554.151 C 749.083 553.293 743.985 552.661 738.872 552.261 C 735.844 552.023 732.816 551.846 729.784 551.733 C 726.356 551.608 722.928 551.542 719.5 551.545 C 716.061 551.542 712.622 551.608 709.186 551.733 C 706.14 551.846 703.101 552.026 700.062 552.265 C 694.92 552.669 689.796 553.3 684.709 554.162 C 680.463 554.893 676.246 555.788 672.065 556.842 C 670.149 557.322 668.237 557.825 666.332 558.354 C 664.471 558.868 662.614 559.389 660.761 559.917 C 658.907 560.442 657.054 560.963 655.196 561.477 C 653.292 562.002 651.379 562.509 649.46 562.989 C 645.272 564.046 641.047 564.942 636.794 565.676 C 631.707 566.539 626.579 567.174 621.437 567.577 C 618.405 567.82 615.37 567.996 612.331 568.109 C 608.907 568.238 605.479 568.3 602.051 568.297 Z " fill="url(#_lgradient_6)"/><linearGradient id="_lgradient_7" x1="0" y1="0.5" x2="1" y2="0.5" gradientTransform="matrix(-236,0,0,-17.852,837.5,574.999)" gradientUnits="userSpaceOnUse"><stop offset="2.608695652173913%" stop-opacity="1" style="stop-color:rgb(255,255,255)"/><stop offset="98.26086956521739%" stop-opacity="0" style="stop-color:rgb(255,255,255)"/></linearGradient><path d=" M 602.051 574.999 L 601.5 574.995 L 601.5 573.894 L 602.051 573.898 C 605.464 573.898 608.877 573.835 612.291 573.71 C 615.311 573.597 618.332 573.42 621.349 573.178 C 626.462 572.778 631.552 572.147 636.61 571.292 C 640.835 570.561 645.033 569.673 649.192 568.623 C 651.1 568.143 653.005 567.64 654.903 567.115 C 656.756 566.605 658.61 566.083 660.46 565.559 C 662.317 565.026 664.178 564.505 666.038 563.991 C 667.951 563.463 669.87 562.956 671.797 562.472 C 676.003 561.411 680.246 560.512 684.522 559.778 C 689.642 558.912 694.799 558.273 699.978 557.869 C 703.028 557.627 706.085 557.447 709.146 557.334 L 719.5 557.146 L 729.825 557.334 C 729.825 557.334 729.825 557.334 729.825 557.334 C 732.871 557.447 735.917 557.623 738.956 557.866 C 744.106 558.269 749.233 558.901 754.327 559.763 C 758.57 560.497 762.787 561.393 766.961 562.45 C 768.873 562.934 770.778 563.437 772.675 563.966 C 774.521 564.48 776.368 564.997 778.21 565.526 C 780.056 566.054 781.906 566.575 783.756 567.089 C 785.653 567.614 787.555 568.12 789.463 568.601 C 793.633 569.655 797.839 570.55 802.074 571.281 C 807.165 572.143 812.292 572.774 817.438 573.174 C 820.485 573.417 823.538 573.593 826.592 573.707 C 830.042 573.835 833.496 573.898 836.949 573.898 L 837.5 573.894 L 837.5 574.995 L 836.949 574.999 C 833.481 574.999 830.016 574.936 826.548 574.808 C 823.479 574.694 820.415 574.514 817.354 574.276 C 812.171 573.868 807.015 573.233 801.891 572.367 C 797.626 571.629 793.39 570.73 789.195 569.669 C 787.276 569.185 785.367 568.678 783.459 568.15 C 781.609 567.636 779.755 567.115 777.909 566.586 C 776.067 566.058 774.224 565.537 772.382 565.026 C 770.491 564.502 768.594 563.999 766.693 563.518 C 762.545 562.468 758.357 561.58 754.14 560.85 C 749.083 559.994 743.985 559.363 738.872 558.963 C 735.844 558.725 732.816 558.548 729.784 558.435 C 726.356 558.306 722.928 558.244 719.5 558.247 C 716.061 558.244 712.622 558.306 709.186 558.435 C 706.14 558.548 703.101 558.725 700.062 558.967 C 694.92 559.37 689.796 560.002 684.709 560.861 C 680.463 561.595 676.246 562.487 672.065 563.54 C 670.149 564.024 668.237 564.527 666.332 565.052 C 664.471 565.566 662.614 566.087 660.761 566.616 C 658.907 567.144 657.054 567.665 655.196 568.179 C 653.292 568.704 651.379 569.207 649.46 569.691 C 645.272 570.748 641.047 571.644 636.794 572.378 C 631.707 573.241 626.579 573.872 621.437 574.276 C 618.405 574.518 615.37 574.694 612.331 574.808 C 608.907 574.936 605.479 574.999 602.051 574.999 Z " fill="url(#_lgradient_7)"/><linearGradient id="_lgradient_8" x1="0" y1="0.5" x2="1" y2="0.5" gradientTransform="matrix(-236,0,0,-17.852,837.5,581.697)" gradientUnits="userSpaceOnUse"><stop offset="2.608695652173913%" stop-opacity="1" style="stop-color:rgb(255,255,255)"/><stop offset="98.26086956521739%" stop-opacity="0" style="stop-color:rgb(255,255,255)"/></linearGradient><path d=" M 602.051 581.697 L 601.5 581.697 L 601.5 580.596 L 602.051 580.596 C 605.464 580.599 608.877 580.537 612.291 580.409 C 615.311 580.295 618.332 580.119 621.349 579.88 C 626.462 579.48 631.552 578.849 636.61 577.994 C 640.835 577.263 645.033 576.371 649.192 575.325 C 651.1 574.844 653.005 574.342 654.903 573.817 C 656.756 573.303 658.61 572.785 660.46 572.257 C 662.317 571.728 664.178 571.207 666.038 570.693 C 667.951 570.165 669.87 569.658 671.797 569.174 C 676.003 568.113 680.246 567.214 684.522 566.476 C 689.642 565.61 694.799 564.975 699.978 564.568 C 703.028 564.325 706.085 564.149 709.146 564.035 L 719.5 563.845 L 729.825 564.032 C 729.825 564.032 729.825 564.032 729.825 564.032 C 732.871 564.146 735.917 564.325 738.956 564.564 C 744.106 564.968 749.233 565.603 754.327 566.465 C 758.57 567.199 762.787 568.095 766.961 569.152 C 768.873 569.633 770.778 570.139 772.675 570.664 C 774.521 571.178 776.368 571.699 778.21 572.228 C 780.056 572.756 781.906 573.277 783.756 573.791 C 785.653 574.316 787.555 574.819 789.463 575.303 C 793.633 576.357 797.839 577.249 802.074 577.983 C 807.165 578.841 812.292 579.476 817.438 579.876 C 820.485 580.119 823.538 580.295 826.592 580.409 C 830.042 580.537 833.496 580.599 836.949 580.596 L 837.5 580.596 L 837.5 581.697 L 836.949 581.697 C 833.481 581.701 830.016 581.638 826.548 581.51 C 823.479 581.396 820.415 581.216 817.354 580.974 C 812.171 580.57 807.015 579.931 801.891 579.065 C 797.626 578.331 793.39 577.432 789.195 576.368 C 787.276 575.887 785.367 575.38 783.459 574.852 C 781.609 574.338 779.755 573.813 777.909 573.285 C 776.067 572.76 774.224 572.239 772.382 571.725 C 770.491 571.204 768.594 570.701 766.693 570.22 C 762.545 569.17 758.357 568.278 754.14 567.552 C 749.083 566.693 743.985 566.061 738.872 565.661 C 735.844 565.423 732.816 565.247 729.784 565.133 C 726.356 565.008 722.928 564.946 719.5 564.946 C 716.061 564.946 712.622 565.008 709.186 565.137 C 706.14 565.247 703.101 565.426 700.062 565.665 C 694.92 566.069 689.796 566.7 684.709 567.563 C 680.463 568.293 676.246 569.189 672.065 570.242 C 670.149 570.723 668.237 571.229 666.332 571.754 C 664.471 572.268 662.614 572.789 660.761 573.318 C 658.907 573.846 657.054 574.364 655.196 574.877 C 653.292 575.402 651.379 575.909 649.46 576.393 C 645.272 577.447 641.047 578.342 636.794 579.076 C 631.707 579.939 626.579 580.574 621.437 580.978 C 618.405 581.22 615.37 581.396 612.331 581.51 C 608.907 581.638 605.479 581.701 602.051 581.697 Z " fill="url(#_lgradient_8)"/><linearGradient id="_lgradient_9" x1="0" y1="0.5" x2="1" y2="0.5" gradientTransform="matrix(-236,0,0,-17.852,837.5,588.399)" gradientUnits="userSpaceOnUse"><stop offset="2.608695652173913%" stop-opacity="1" style="stop-color:rgb(255,255,255)"/><stop offset="98.26086956521739%" stop-opacity="0" style="stop-color:rgb(255,255,255)"/></linearGradient><path d=" M 602.051 588.399 L 601.5 588.399 L 601.5 587.298 L 602.051 587.298 C 605.464 587.298 608.877 587.235 612.291 587.111 C 615.311 586.997 618.332 586.821 621.349 586.578 C 626.462 586.178 631.552 585.551 636.61 584.692 C 640.835 583.961 645.033 583.073 649.192 582.024 C 651.1 581.543 653.005 581.04 654.903 580.515 C 656.756 580.005 658.61 579.484 660.46 578.959 C 662.317 578.43 664.178 577.905 666.038 577.392 C 667.951 576.863 669.87 576.357 671.797 575.872 C 676.003 574.811 680.246 573.912 684.522 573.178 C 689.642 572.312 694.799 571.673 699.978 571.27 C 703.028 571.027 706.085 570.848 709.146 570.734 L 719.5 570.547 L 729.825 570.734 C 729.825 570.734 729.825 570.734 729.825 570.734 C 732.871 570.848 735.917 571.024 738.956 571.266 C 744.106 571.67 749.233 572.301 754.327 573.163 C 758.57 573.898 762.787 574.793 766.961 575.85 C 768.873 576.335 770.778 576.837 772.675 577.366 C 774.521 577.88 776.368 578.397 778.21 578.926 C 780.056 579.454 781.906 579.976 783.756 580.489 C 785.653 581.014 787.555 581.521 789.463 582.002 C 793.633 583.055 797.839 583.95 802.074 584.681 C 807.165 585.543 812.292 586.175 817.438 586.578 C 820.485 586.817 823.538 586.993 826.592 587.107 C 830.042 587.235 833.496 587.298 836.949 587.298 L 837.5 587.298 L 837.5 588.399 L 836.949 588.399 C 833.481 588.399 830.016 588.336 826.548 588.208 C 823.479 588.094 820.415 587.918 817.354 587.676 C 812.171 587.268 807.015 586.633 801.891 585.767 C 797.626 585.03 793.39 584.13 789.195 583.07 C 787.276 582.585 785.367 582.079 783.459 581.55 C 781.609 581.036 779.755 580.515 777.909 579.987 C 776.067 579.458 774.224 578.937 772.382 578.427 C 770.491 577.902 768.594 577.399 766.693 576.918 C 762.545 575.868 758.357 574.98 754.14 574.25 C 749.083 573.395 743.985 572.763 738.872 572.363 C 735.844 572.125 732.816 571.949 729.784 571.835 C 726.356 571.706 722.928 571.644 719.5 571.648 C 716.061 571.644 712.622 571.706 709.186 571.835 C 706.14 571.949 703.101 572.125 700.062 572.367 C 694.92 572.771 689.796 573.402 684.709 574.261 C 680.463 574.995 676.246 575.887 672.065 576.94 C 670.149 577.425 668.237 577.928 666.332 578.452 C 664.471 578.966 662.614 579.487 660.761 580.016 C 658.907 580.544 657.054 581.066 655.196 581.579 C 653.292 582.104 651.379 582.611 649.46 583.092 C 645.272 584.149 641.047 585.044 636.794 585.778 C 631.707 586.641 626.579 587.272 621.437 587.679 C 618.405 587.918 615.37 588.094 612.331 588.208 C 608.907 588.336 605.479 588.399 602.051 588.399 Z " fill="url(#_lgradient_9)"/><linearGradient id="_lgradient_10" x1="0" y1="0.5" x2="1" y2="0.5" gradientTransform="matrix(-236,0,0,-17.852,837.5,595.097)" gradientUnits="userSpaceOnUse"><stop offset="2.608695652173913%" stop-opacity="1" style="stop-color:rgb(255,255,255)"/><stop offset="98.26086956521739%" stop-opacity="0" style="stop-color:rgb(255,255,255)"/></linearGradient><path d=" M 602.051 595.097 L 601.5 595.097 L 601.5 593.996 L 602.051 593.996 C 605.464 594 608.877 593.937 612.291 593.809 C 615.311 593.695 618.332 593.519 621.349 593.28 C 626.462 592.88 631.552 592.249 636.61 591.394 C 640.835 590.663 645.033 589.772 649.192 588.726 C 651.1 588.245 653.005 587.742 654.903 587.217 C 656.756 586.703 658.61 586.186 660.46 585.657 C 662.317 585.129 664.178 584.607 666.038 584.094 C 667.951 583.565 669.87 583.059 671.797 582.574 C 676.003 581.513 680.246 580.614 684.522 579.876 C 689.642 579.01 694.799 578.375 699.978 577.968 C 703.028 577.726 706.085 577.549 709.146 577.436 L 719.5 577.245 L 729.825 577.436 C 729.825 577.436 729.825 577.436 729.825 577.436 C 732.871 577.546 735.917 577.726 738.956 577.964 C 744.106 578.368 749.233 579.003 754.327 579.865 C 758.57 580.599 762.787 581.495 766.961 582.552 C 768.873 583.033 770.778 583.539 772.675 584.064 C 774.521 584.578 776.368 585.099 778.21 585.628 C 780.056 586.156 781.906 586.677 783.756 587.191 C 785.653 587.716 787.555 588.219 789.463 588.704 C 793.633 589.757 797.839 590.649 802.074 591.383 C 807.165 592.242 812.292 592.877 817.438 593.277 C 820.485 593.519 823.538 593.695 826.592 593.809 C 830.042 593.937 833.496 594 836.949 593.996 L 837.5 593.996 L 837.5 595.097 L 836.949 595.097 C 833.481 595.101 830.016 595.038 826.548 594.91 C 823.479 594.796 820.415 594.616 817.354 594.374 C 812.171 593.97 807.015 593.332 801.891 592.466 C 797.626 591.732 793.39 590.832 789.195 589.772 C 787.276 589.287 785.367 588.781 783.459 588.252 C 781.609 587.738 779.755 587.213 777.909 586.685 C 776.067 586.16 774.224 585.639 772.382 585.125 C 770.491 584.604 768.594 584.101 766.693 583.62 C 762.545 582.57 758.357 581.679 754.14 580.952 C 749.083 580.093 743.985 579.465 738.872 579.062 C 735.844 578.823 732.816 578.647 729.784 578.533 C 726.356 578.408 722.928 578.346 719.5 578.346 C 716.061 578.346 712.622 578.408 709.186 578.537 C 706.14 578.651 703.101 578.827 700.062 579.065 C 694.92 579.469 689.796 580.104 684.709 580.963 C 680.463 581.693 676.246 582.589 672.065 583.642 C 670.149 584.123 668.237 584.629 666.332 585.154 C 664.471 585.668 662.614 586.189 660.761 586.718 C 658.907 587.246 657.054 587.764 655.196 588.278 C 653.292 588.806 651.379 589.309 649.46 589.794 C 645.272 590.847 641.047 591.743 636.794 592.48 C 631.707 593.339 626.579 593.974 621.437 594.378 C 618.405 594.62 615.37 594.796 612.331 594.91 C 608.907 595.038 605.479 595.101 602.051 595.097 Z " fill="url(#_lgradient_10)"/><linearGradient id="_lgradient_11" x1="0" y1="0.5" x2="1" y2="0.5" gradientTransform="matrix(-236,0,0,-17.852,837.5,601.799)" gradientUnits="userSpaceOnUse"><stop offset="2.608695652173913%" stop-opacity="1" style="stop-color:rgb(255,255,255)"/><stop offset="98.26086956521739%" stop-opacity="0" style="stop-color:rgb(255,255,255)"/></linearGradient><path d=" M 602.051 601.799 L 601.5 601.799 L 601.5 600.698 L 602.051 600.698 C 605.464 600.698 608.877 600.636 612.291 600.511 C 615.311 600.397 618.332 600.221 621.349 599.982 C 626.462 599.579 631.552 598.951 636.61 598.092 C 640.835 597.365 645.033 596.473 649.192 595.424 C 651.1 594.943 653.005 594.44 654.903 593.919 C 656.756 593.405 658.61 592.884 660.46 592.359 C 662.317 591.831 664.178 591.306 666.038 590.792 C 667.951 590.263 669.87 589.757 671.797 589.272 C 676.003 588.215 680.246 587.312 684.522 586.578 C 689.642 585.712 694.799 585.074 699.978 584.67 C 703.028 584.428 706.085 584.248 709.146 584.134 L 719.5 583.947 L 729.825 584.134 C 729.825 584.134 729.825 584.134 729.825 584.134 C 732.871 584.248 735.917 584.424 738.956 584.666 C 744.106 585.07 749.233 585.701 754.327 586.564 C 758.57 587.298 762.787 588.193 766.961 589.25 C 768.873 589.735 770.778 590.238 772.675 590.766 C 774.521 591.28 776.368 591.798 778.21 592.326 C 780.056 592.855 781.906 593.376 783.756 593.89 C 785.653 594.418 787.555 594.921 789.463 595.402 C 793.633 596.459 797.839 597.351 802.074 598.081 C 807.165 598.944 812.292 599.575 817.438 599.979 C 820.485 600.217 823.538 600.397 826.592 600.507 C 830.042 600.636 833.496 600.698 836.949 600.698 L 837.5 600.698 L 837.5 601.799 L 836.949 601.799 C 833.481 601.799 830.016 601.737 826.548 601.608 C 823.479 601.494 820.415 601.318 817.354 601.076 C 812.171 600.669 807.015 600.034 801.891 599.168 C 797.626 598.43 793.39 597.531 789.195 596.47 C 787.276 595.985 785.367 595.479 783.459 594.95 C 781.609 594.437 779.755 593.915 777.909 593.387 C 776.067 592.858 774.224 592.341 772.382 591.827 C 770.491 591.302 768.594 590.799 766.693 590.318 C 762.545 589.269 758.357 588.381 754.14 587.65 C 749.083 586.795 743.985 586.164 738.872 585.764 C 735.844 585.525 732.816 585.349 729.784 585.235 C 726.356 585.107 722.928 585.044 719.5 585.048 C 716.061 585.044 712.622 585.107 709.186 585.235 C 706.14 585.349 703.101 585.525 700.062 585.767 C 694.92 586.171 689.796 586.802 684.709 587.661 C 680.463 588.395 676.246 589.287 672.065 590.34 C 670.149 590.825 668.237 591.328 666.332 591.853 C 664.471 592.366 662.614 592.888 660.761 593.416 C 658.907 593.945 657.054 594.466 655.196 594.98 C 653.292 595.505 651.379 596.011 649.46 596.492 C 645.272 597.549 641.047 598.444 636.794 599.179 C 631.707 600.041 626.579 600.676 621.437 601.08 C 618.405 601.318 615.37 601.498 612.331 601.608 C 608.907 601.737 605.479 601.799 602.051 601.799 Z " fill="url(#_lgradient_11)"/><linearGradient id="_lgradient_12" x1="0" y1="0.5" x2="1" y2="0.5" gradientTransform="matrix(-236,0,0,-17.852,837.5,621.348)" gradientUnits="userSpaceOnUse"><stop offset="2.608695652173913%" stop-opacity="1" style="stop-color:rgb(255,255,255)"/><stop offset="98.26086956521739%" stop-opacity="0" style="stop-color:rgb(255,255,255)"/></linearGradient><path d=" M 602.051 621.348 L 601.5 621.348 L 601.5 620.247 L 602.051 620.247 C 605.464 620.251 608.877 620.188 612.291 620.06 C 615.311 619.946 618.332 619.77 621.349 619.531 C 626.462 619.131 631.552 618.5 636.61 617.645 C 640.835 616.914 645.033 616.026 649.192 614.976 C 651.1 614.496 653.005 613.993 654.903 613.468 C 656.756 612.954 658.61 612.437 660.46 611.908 C 662.317 611.379 664.178 610.858 666.038 610.344 C 667.951 609.816 669.87 609.309 671.797 608.825 C 676.003 607.764 680.246 606.865 684.522 606.127 C 689.642 605.261 694.799 604.626 699.978 604.219 C 703.028 603.976 706.085 603.8 709.146 603.686 L 719.5 603.496 L 729.825 603.686 C 729.825 603.686 729.825 603.686 729.825 603.686 C 732.871 603.8 735.917 603.976 738.956 604.215 C 744.106 604.619 749.233 605.254 754.327 606.116 C 758.57 606.85 762.787 607.746 766.961 608.803 C 768.873 609.284 770.778 609.79 772.675 610.315 C 774.521 610.829 776.368 611.35 778.21 611.879 C 780.056 612.407 781.906 612.928 783.756 613.442 C 785.653 613.967 787.555 614.47 789.463 614.954 C 793.633 616.008 797.839 616.903 802.074 617.634 C 807.165 618.492 812.292 619.127 817.438 619.528 C 820.485 619.77 823.538 619.946 826.592 620.06 C 830.042 620.188 833.496 620.251 836.949 620.247 L 837.5 620.247 L 837.5 621.348 L 836.949 621.348 C 833.481 621.352 830.016 621.289 826.548 621.161 C 823.479 621.047 820.415 620.867 817.354 620.625 C 812.171 620.221 807.015 619.586 801.891 618.716 C 797.626 617.982 793.39 617.083 789.195 616.022 C 787.276 615.538 785.367 615.031 783.459 614.503 C 781.609 613.989 779.755 613.464 777.909 612.936 C 776.067 612.411 774.224 611.89 772.382 611.379 C 770.491 610.855 768.594 610.352 766.693 609.871 C 762.545 608.821 758.357 607.929 754.14 607.203 C 749.083 606.344 743.985 605.716 738.872 605.316 C 735.844 605.074 732.816 604.898 729.784 604.784 C 726.356 604.659 722.928 604.597 719.5 604.597 C 716.061 604.597 712.622 604.659 709.186 604.788 C 706.14 604.901 703.101 605.078 700.062 605.316 C 694.92 605.72 689.796 606.355 684.709 607.214 C 680.463 607.944 676.246 608.84 672.065 609.893 C 670.149 610.374 668.237 610.88 666.332 611.405 C 664.471 611.919 662.614 612.44 660.761 612.969 C 658.907 613.497 657.054 614.015 655.196 614.529 C 653.292 615.057 651.379 615.56 649.46 616.044 C 645.272 617.098 641.047 617.993 636.794 618.731 C 631.707 619.59 626.579 620.225 621.437 620.629 C 618.405 620.871 615.37 621.047 612.331 621.161 C 608.907 621.289 605.479 621.352 602.051 621.348 Z " fill="url(#_lgradient_12)"/><linearGradient id="_lgradient_13" x1="0" y1="0.5" x2="1" y2="0.5" gradientTransform="matrix(-236,0,0,-17.852,837.5,614.647)" gradientUnits="userSpaceOnUse"><stop offset="2.608695652173913%" stop-opacity="1" style="stop-color:rgb(255,255,255)"/><stop offset="98.26086956521739%" stop-opacity="0" style="stop-color:rgb(255,255,255)"/></linearGradient><path d=" M 602.051 614.647 L 601.5 614.647 L 601.5 613.546 L 602.051 613.546 C 605.464 613.55 608.877 613.487 612.291 613.359 C 615.311 613.245 618.332 613.069 621.349 612.83 C 626.462 612.43 631.552 611.799 636.61 610.944 C 640.835 610.213 645.033 609.325 649.192 608.276 C 651.1 607.795 653.005 607.292 654.903 606.767 C 656.756 606.253 658.61 605.736 660.46 605.207 C 662.317 604.679 664.178 604.158 666.038 603.644 C 667.951 603.115 669.87 602.609 671.797 602.124 C 676.003 601.063 680.246 600.164 684.522 599.426 C 689.642 598.56 694.799 597.925 699.978 597.518 C 703.028 597.276 706.085 597.1 709.146 596.986 L 719.5 596.795 L 729.825 596.986 C 729.825 596.986 729.825 596.986 729.825 596.986 C 732.871 597.1 735.917 597.276 738.956 597.514 C 744.106 597.918 749.233 598.553 754.327 599.415 C 758.57 600.15 762.787 601.045 766.961 602.102 C 768.873 602.583 770.778 603.089 772.675 603.614 C 774.521 604.128 776.368 604.649 778.21 605.178 C 780.056 605.706 781.906 606.228 783.756 606.741 C 785.653 607.266 787.555 607.769 789.463 608.254 C 793.633 609.307 797.839 610.202 802.074 610.933 C 807.165 611.792 812.292 612.427 817.438 612.827 C 820.485 613.069 823.538 613.245 826.592 613.359 C 830.042 613.487 833.496 613.55 836.949 613.546 L 837.5 613.546 L 837.5 614.647 L 836.949 614.647 C 833.481 614.651 830.016 614.588 826.548 614.46 C 823.479 614.346 820.415 614.166 817.354 613.924 C 812.171 613.52 807.015 612.885 801.891 612.016 C 797.626 611.282 793.39 610.382 789.195 609.322 C 787.276 608.837 785.367 608.331 783.459 607.802 C 781.609 607.288 779.755 606.763 777.909 606.235 C 776.067 605.71 774.224 605.189 772.382 604.679 C 770.491 604.154 768.594 603.651 766.693 603.17 C 762.545 602.12 758.357 601.229 754.14 600.502 C 749.083 599.643 743.985 599.015 738.872 598.615 C 735.844 598.373 732.816 598.197 729.784 598.083 C 726.356 597.958 722.928 597.896 719.5 597.896 C 716.061 597.896 712.622 597.958 709.186 598.087 C 706.14 598.201 703.101 598.377 700.062 598.615 C 694.92 599.019 689.796 599.654 684.709 600.513 C 680.463 601.243 676.246 602.139 672.065 603.192 C 670.149 603.673 668.237 604.18 666.332 604.704 C 664.471 605.218 662.614 605.739 660.761 606.268 C 658.907 606.796 657.054 607.314 655.196 607.828 C 653.292 608.356 651.379 608.859 649.46 609.344 C 645.272 610.397 641.047 611.293 636.794 612.03 C 631.707 612.889 626.579 613.524 621.437 613.928 C 618.405 614.17 615.37 614.346 612.331 614.46 C 608.907 614.588 605.479 614.651 602.051 614.647 Z " fill="url(#_lgradient_13)"/><linearGradient id="_lgradient_14" x1="0" y1="0.5" x2="1" y2="0.5" gradientTransform="matrix(-236,0,0,-17.852,837.5,607.947)" gradientUnits="userSpaceOnUse"><stop offset="2.608695652173913%" stop-opacity="1" style="stop-color:rgb(255,255,255)"/><stop offset="98.26086956521739%" stop-opacity="0" style="stop-color:rgb(255,255,255)"/></linearGradient><path d=" M 602.051 607.947 L 601.5 607.947 L 601.5 606.846 L 602.051 606.846 C 605.464 606.849 608.877 606.787 612.291 606.659 C 615.311 606.545 618.332 606.369 621.349 606.13 C 626.462 605.726 631.552 605.099 636.61 604.24 C 640.835 603.513 645.033 602.621 649.192 601.572 C 651.1 601.091 653.005 600.588 654.903 600.067 C 656.756 599.553 658.61 599.035 660.46 598.507 C 662.317 597.978 664.178 597.457 666.038 596.94 C 667.951 596.411 669.87 595.908 671.797 595.424 C 676.003 594.363 680.246 593.464 684.522 592.726 C 689.642 591.86 694.799 591.221 699.978 590.818 C 703.028 590.575 706.085 590.399 709.146 590.282 L 719.5 590.095 L 729.825 590.282 C 729.825 590.282 729.825 590.282 729.825 590.282 C 732.871 590.396 735.917 590.572 738.956 590.814 C 744.106 591.218 749.233 591.853 754.327 592.715 C 758.57 593.446 762.787 594.345 766.961 595.402 C 768.873 595.883 770.778 596.389 772.675 596.914 C 774.521 597.428 776.368 597.949 778.21 598.474 C 780.056 599.002 781.906 599.524 783.756 600.037 C 785.653 600.566 787.555 601.069 789.463 601.55 C 793.633 602.607 797.839 603.498 802.074 604.229 C 807.165 605.091 812.292 605.723 817.438 606.126 C 820.485 606.365 823.538 606.545 826.592 606.659 C 830.042 606.783 833.496 606.849 836.949 606.846 L 837.5 606.846 L 837.5 607.947 L 836.949 607.947 C 833.481 607.951 830.016 607.884 826.548 607.756 C 823.479 607.642 820.415 607.466 817.354 607.224 C 812.171 606.82 807.015 606.181 801.891 605.315 C 797.626 604.581 793.39 603.678 789.195 602.618 C 787.276 602.133 785.367 601.627 783.459 601.098 C 781.609 600.584 779.755 600.063 777.909 599.535 C 776.067 599.006 774.224 598.489 772.382 597.975 C 770.491 597.45 768.594 596.947 766.693 596.466 C 762.545 595.416 758.357 594.528 754.14 593.798 C 749.083 592.943 743.985 592.311 738.872 591.911 C 735.844 591.673 732.816 591.497 729.784 591.383 L 719.5 591.196 L 709.186 591.383 C 706.14 591.497 703.101 591.673 700.062 591.915 C 694.92 592.319 689.796 592.95 684.709 593.813 C 680.463 594.543 676.246 595.438 672.065 596.492 C 670.149 596.973 668.237 597.476 666.332 598.004 C 664.471 598.518 662.614 599.035 660.761 599.564 C 658.907 600.092 657.054 600.614 655.196 601.127 C 653.292 601.652 651.379 602.159 649.46 602.64 C 645.272 603.697 641.047 604.592 636.794 605.326 C 631.707 606.189 626.579 606.824 621.437 607.227 C 618.405 607.466 615.37 607.646 612.331 607.76 C 608.907 607.884 605.479 607.951 602.051 607.947 Z " fill="url(#_lgradient_14)"/><linearGradient id="_lgradient_15" x1="0" y1="0.5" x2="1" y2="0.5" gradientTransform="matrix(-236,0,0,-17.853,837.5,628.6)" gradientUnits="userSpaceOnUse"><stop offset="2.608695652173913%" stop-opacity="1" style="stop-color:rgb(255,255,255)"/><stop offset="98.26086956521739%" stop-opacity="0" style="stop-color:rgb(255,255,255)"/></linearGradient><path d=" M 602.051 628.6 L 601.5 628.6 L 601.5 627.499 L 602.051 627.499 C 605.464 627.499 608.877 627.436 612.291 627.311 C 615.311 627.198 618.332 627.021 621.349 626.783 C 626.462 626.379 631.552 625.751 636.61 624.893 C 640.835 624.166 645.033 623.274 649.192 622.224 C 651.1 621.743 653.005 621.241 654.903 620.719 C 656.756 620.206 658.61 619.688 660.46 619.16 C 662.317 618.631 664.178 618.11 666.038 617.592 C 667.951 617.064 669.87 616.561 671.797 616.077 C 676.003 615.016 680.246 614.117 684.522 613.379 C 689.642 612.513 694.799 611.874 699.978 611.47 C 703.028 611.228 706.085 611.052 709.146 610.934 C 712.596 610.806 716.046 610.744 719.5 610.747 C 722.943 610.744 726.385 610.806 729.825 610.934 C 732.871 611.048 735.917 611.224 738.956 611.467 C 744.106 611.87 749.233 612.505 754.327 613.368 C 758.57 614.098 762.787 614.997 766.961 616.055 C 768.873 616.535 770.778 617.042 772.675 617.567 C 774.521 618.081 776.368 618.602 778.21 619.127 C 780.056 619.655 781.906 620.176 783.756 620.69 C 785.653 621.219 787.555 621.721 789.463 622.202 C 793.633 623.259 797.839 624.151 802.074 624.882 C 807.165 625.744 812.292 626.375 817.438 626.779 C 820.485 627.018 823.538 627.198 826.592 627.311 C 830.042 627.436 833.496 627.502 836.949 627.499 L 837.5 627.499 L 837.5 628.6 L 836.949 628.6 C 833.481 628.603 830.016 628.537 826.548 628.409 C 823.479 628.295 820.415 628.119 817.354 627.877 C 812.171 627.473 807.015 626.834 801.891 625.968 C 797.626 625.234 793.39 624.331 789.195 623.27 C 787.276 622.786 785.367 622.279 783.459 621.751 C 781.609 621.237 779.755 620.716 777.909 620.187 C 776.067 619.659 774.224 619.141 772.382 618.627 C 770.491 618.103 768.594 617.6 766.693 617.119 C 762.545 616.069 758.357 615.181 754.14 614.451 C 749.083 613.595 743.985 612.964 738.872 612.564 C 735.844 612.326 732.816 612.149 729.784 612.036 C 726.356 611.907 722.928 611.845 719.5 611.848 C 716.061 611.845 712.622 611.907 709.186 612.036 C 706.14 612.149 703.101 612.326 700.062 612.568 C 694.92 612.972 689.796 613.603 684.709 614.465 C 680.463 615.196 676.246 616.088 672.065 617.141 C 670.149 617.625 668.237 618.128 666.332 618.657 C 664.471 619.167 662.614 619.688 660.761 620.217 C 658.907 620.745 657.054 621.266 655.196 621.78 C 653.292 622.305 651.379 622.812 649.46 623.292 C 645.272 624.349 641.047 625.245 636.794 625.979 C 631.707 626.842 626.579 627.476 621.437 627.88 C 618.405 628.119 615.37 628.299 612.331 628.412 C 608.907 628.537 605.479 628.6 602.051 628.6 Z " fill="url(#_lgradient_15)"/><linearGradient id="_lgradient_16" x1="0" y1="0.5" x2="1" y2="0.5" gradientTransform="matrix(-236,0,0,-17.849,837.5,635.298)" gradientUnits="userSpaceOnUse"><stop offset="2.608695652173913%" stop-opacity="1" style="stop-color:rgb(255,255,255)"/><stop offset="98.26086956521739%" stop-opacity="0" style="stop-color:rgb(255,255,255)"/></linearGradient><path d=" M 602.051 635.298 L 601.5 635.298 L 601.5 634.197 L 602.051 634.197 C 605.464 634.2 608.877 634.138 612.291 634.01 C 615.311 633.9 618.332 633.72 621.349 633.481 C 626.462 633.081 631.552 632.45 636.61 631.595 C 640.835 630.864 645.033 629.976 649.192 628.926 C 651.1 628.445 653.005 627.943 654.903 627.418 C 656.756 626.908 658.61 626.386 660.46 625.858 C 662.317 625.329 664.178 624.808 666.038 624.294 C 667.951 623.766 669.87 623.259 671.797 622.775 C 676.003 621.714 680.246 620.815 684.522 620.077 C 689.642 619.211 694.799 618.576 699.978 618.172 C 703.028 617.93 706.085 617.75 709.146 617.636 C 712.596 617.508 716.046 617.446 719.5 617.449 C 722.943 617.446 726.385 617.508 729.825 617.636 C 732.871 617.75 735.917 617.926 738.956 618.169 C 744.106 618.569 749.233 619.204 754.327 620.066 C 758.57 620.8 762.787 621.696 766.961 622.753 C 768.873 623.237 770.778 623.74 772.675 624.269 C 774.521 624.779 776.368 625.3 778.21 625.829 C 780.056 626.357 781.906 626.878 783.756 627.392 C 785.653 627.917 787.555 628.423 789.463 628.904 C 793.633 629.958 797.839 630.853 802.074 631.584 C 807.165 632.442 812.292 633.077 817.438 633.477 C 820.485 633.72 823.538 633.896 826.592 634.01 C 830.042 634.138 833.496 634.2 836.949 634.197 L 837.5 634.197 L 837.5 635.298 L 836.949 635.298 C 833.481 635.302 830.016 635.239 826.548 635.111 C 823.479 634.997 820.415 634.817 817.354 634.575 C 812.171 634.171 807.015 633.536 801.891 632.666 C 797.626 631.932 793.39 631.033 789.195 629.972 C 787.276 629.488 785.367 628.981 783.459 628.453 C 781.609 627.939 779.755 627.418 777.909 626.886 C 776.067 626.361 774.224 625.84 772.382 625.329 C 770.491 624.805 768.594 624.302 766.693 623.821 C 762.545 622.771 758.357 621.879 754.14 621.153 C 749.083 620.294 743.985 619.666 738.872 619.266 C 735.844 619.024 732.816 618.848 729.784 618.738 L 719.5 618.55 L 709.186 618.738 C 706.14 618.851 703.101 619.027 700.062 619.27 C 694.92 619.67 689.796 620.305 684.709 621.164 C 680.463 621.898 676.246 622.79 672.065 623.843 C 670.149 624.324 668.237 624.83 666.332 625.355 C 664.471 625.869 662.614 626.39 660.761 626.919 C 658.907 627.447 657.054 627.968 655.196 628.478 C 653.292 629.007 651.379 629.51 649.46 629.994 C 645.272 631.048 641.047 631.947 636.794 632.681 C 631.707 633.544 626.579 634.175 621.437 634.579 C 618.405 634.821 615.37 634.997 612.331 635.111 C 608.907 635.239 605.479 635.302 602.051 635.298 Z " fill="url(#_lgradient_16)"/><linearGradient id="_lgradient_17" x1="0" y1="0.5" x2="1" y2="0.5" gradientTransform="matrix(-236,0,0,-17.853,837.5,642)" gradientUnits="userSpaceOnUse"><stop offset="2.608695652173913%" stop-opacity="1" style="stop-color:rgb(255,255,255)"/><stop offset="98.26086956521739%" stop-opacity="0" style="stop-color:rgb(255,255,255)"/></linearGradient><path d=" M 602.051 642 L 601.5 642 L 601.5 640.899 L 602.051 640.899 C 605.464 640.902 608.877 640.84 612.291 640.712 C 615.311 640.598 618.332 640.422 621.349 640.183 C 626.462 639.779 631.552 639.152 636.61 638.297 C 640.835 637.566 645.033 636.674 649.192 635.625 C 651.1 635.144 653.005 634.645 654.903 634.12 C 656.756 633.606 658.61 633.088 660.46 632.56 C 662.317 632.031 664.178 631.51 666.038 630.993 C 667.951 630.468 669.87 629.961 671.797 629.477 C 676.003 628.416 680.246 627.517 684.522 626.779 C 689.642 625.913 694.799 625.278 699.978 624.871 C 703.028 624.628 706.085 624.452 709.146 624.338 C 712.596 624.21 716.046 624.144 719.5 624.148 C 722.943 624.144 726.385 624.206 729.825 624.335 C 732.871 624.448 735.917 624.625 738.956 624.867 C 744.106 625.271 749.233 625.906 754.327 626.768 C 758.57 627.499 762.787 628.398 766.961 629.455 C 768.873 629.936 770.778 630.442 772.675 630.967 C 774.521 631.481 776.368 632.002 778.21 632.527 C 780.056 633.055 781.906 633.577 783.756 634.09 C 785.653 634.619 787.555 635.122 789.463 635.603 C 793.633 636.66 797.839 637.551 802.074 638.282 C 807.165 639.144 812.292 639.776 817.438 640.179 C 820.485 640.418 823.538 640.598 826.592 640.712 C 830.042 640.836 833.496 640.902 836.949 640.899 L 837.5 640.899 L 837.5 642 L 836.949 642 C 833.481 642.004 830.016 641.937 826.548 641.809 C 823.479 641.695 820.415 641.519 817.354 641.277 C 812.171 640.873 807.015 640.234 801.891 639.368 C 797.626 638.634 793.39 637.731 789.195 636.671 C 787.276 636.186 785.367 635.68 783.459 635.151 C 781.609 634.637 779.755 634.116 777.909 633.588 C 776.067 633.059 774.224 632.542 772.382 632.028 C 770.491 631.503 768.594 631 766.693 630.519 C 762.545 629.469 758.357 628.581 754.14 627.851 C 749.083 626.996 743.985 626.364 738.872 625.964 C 735.844 625.726 732.816 625.55 729.784 625.436 C 726.356 625.307 722.928 625.245 719.5 625.249 C 716.061 625.245 712.622 625.307 709.186 625.436 C 706.14 625.55 703.101 625.729 700.062 625.968 C 694.92 626.372 689.796 627.003 684.709 627.866 C 680.463 628.596 676.246 629.492 672.065 630.545 C 670.149 631.026 668.237 631.529 666.332 632.057 C 664.471 632.571 662.614 633.092 660.761 633.621 C 658.907 634.145 657.054 634.667 655.196 635.18 C 653.292 635.705 651.379 636.212 649.46 636.693 C 645.272 637.75 641.047 638.645 636.794 639.379 C 631.707 640.242 626.579 640.877 621.437 641.28 C 618.405 641.519 615.37 641.699 612.331 641.813 C 608.907 641.937 605.479 642.004 602.051 642 Z " fill="url(#_lgradient_17)"/></g></svg>