<?xml version="1.0" encoding="UTF-8" standalone="no"?><!-- Generator: Gravit.io --><svg xmlns="http://www.w3.org/2000/svg" xmlns:xlink="http://www.w3.org/1999/xlink" style="isolation:isolate" viewBox="1150.855 -40.613 31.145 32.225" width="31.145pt" height="32.225pt"><g style="isolation:isolate"><linearGradient id="_lgradient_4" x1="0.8535533905932738" y1="0.14644660940672632" x2="0.14644660940672616" y2="0.8535533905932737" gradientTransform="matrix(-20.595,0,0,26.961,1182,-40.613)" gradientUnits="userSpaceOnUse"><stop offset="0%" stop-opacity="1" style="stop-color:rgb(255,236,189)"/><stop offset="98.69565217391305%" stop-opacity="1" style="stop-color:rgb(255,183,0)"/></linearGradient><path d=" M 1171.702 -40.613 L 1171.702 -40.613 C 1166.019 -40.613 1161.405 -35.998 1161.405 -30.315 L 1161.405 -23.949 C 1161.405 -18.266 1166.019 -13.651 1171.702 -13.651 L 1171.702 -13.651 C 1177.386 -13.651 1182 -18.266 1182 -23.949 L 1182 -30.315 C 1182 -35.998 1177.386 -40.613 1171.702 -40.613 Z " fill="url(#_lgradient_4)"/><linearGradient id="_lgradient_5" x1="0.8535533905932738" y1="0.14644660940672632" x2="0.14644660940672616" y2="0.8535533905932737" gradientTransform="matrix(-13.226,0,0,19.169,1178.315,-36.716)" gradientUnits="userSpaceOnUse"><stop offset="1.7391304347826086%" stop-opacity="1" style="stop-color:rgb(255,202,69)"/><stop offset="100%" stop-opacity="1" style="stop-color:rgb(255,226,154)"/></linearGradient><path d=" M 1171.702 -36.716 L 1171.702 -36.716 C 1168.053 -36.716 1165.089 -33.599 1165.089 -29.758 L 1165.089 -24.506 C 1165.089 -20.666 1168.053 -17.548 1171.702 -17.548 L 1171.702 -17.548 C 1175.352 -17.548 1178.315 -20.666 1178.315 -24.506 L 1178.315 -29.758 C 1178.315 -33.599 1175.352 -36.716 1171.702 -36.716 Z " fill="url(#_lgradient_5)"/><path d=" M 1171.271 -13.659 C 1172.479 -15.372 1173.188 -17.473 1173.188 -19.741 L 1173.188 -25.732 C 1173.188 -31.39 1168.777 -36.007 1163.268 -36.211 C 1162.092 -34.543 1161.405 -32.509 1161.405 -30.315 L 1161.405 -23.949 C 1161.405 -18.41 1165.788 -13.886 1171.271 -13.659 Z " fill-rule="evenodd" fill="rgb(89,64,0)" fill-opacity="0.1"/><linearGradient id="_lgradient_6" x1="0.8535533905932738" y1="0.14644660940672632" x2="0.14644660940672616" y2="0.8535533905932737" gradientTransform="matrix(-20.595,0,0,26.961,1171.45,-35.349)" gradientUnits="userSpaceOnUse"><stop offset="0%" stop-opacity="1" style="stop-color:rgb(255,236,189)"/><stop offset="98.69565217391305%" stop-opacity="1" style="stop-color:rgb(255,183,0)"/></linearGradient><path d=" M 1161.153 -35.349 L 1161.153 -35.349 C 1155.469 -35.349 1150.855 -30.734 1150.855 -25.051 L 1150.855 -18.685 C 1150.855 -13.002 1155.469 -8.387 1161.153 -8.387 L 1161.153 -8.387 C 1166.836 -8.387 1171.45 -13.002 1171.45 -18.685 L 1171.45 -25.051 C 1171.45 -30.734 1166.836 -35.349 1161.153 -35.349 Z " fill="url(#_lgradient_6)"/><linearGradient id="_lgradient_7" x1="0.8535533905932738" y1="0.14644660940672632" x2="0.14644660940672616" y2="0.8535533905932737" gradientTransform="matrix(-13.226,0,0,19.169,1167.766,-31.452)" gradientUnits="userSpaceOnUse"><stop offset="1.7391304347826086%" stop-opacity="1" style="stop-color:rgb(255,202,69)"/><stop offset="100%" stop-opacity="1" style="stop-color:rgb(255,226,154)"/></linearGradient><path d=" M 1161.153 -31.452 L 1161.153 -31.452 C 1157.503 -31.452 1154.54 -28.334 1154.54 -24.494 L 1154.54 -19.242 C 1154.54 -15.401 1157.503 -12.284 1161.153 -12.284 L 1161.153 -12.284 C 1164.803 -12.284 1167.766 -15.401 1167.766 -19.242 L 1167.766 -24.494 C 1167.766 -28.334 1164.803 -31.452 1161.153 -31.452 Z " fill="url(#_lgradient_7)"/></g></svg>