<?xml version="1.0" encoding="UTF-8" standalone="no"?><!-- Generator: Gravit.io --><svg xmlns="http://www.w3.org/2000/svg" xmlns:xlink="http://www.w3.org/1999/xlink" style="isolation:isolate" viewBox="638.5 853.5 500 490.817" width="500pt" height="490.817pt"><g style="isolation:isolate"><linearGradient id="_lgradient_0" x1="0.4999999999999995" y1="0.47268234131679043" x2="0.4999999999999999" y2="1" gradientTransform="matrix(500,0,0,490.817,638.5,853.5)" gradientUnits="userSpaceOnUse"><stop offset="0%" stop-opacity="1" style="stop-color:rgb(226,226,226)"/><stop offset="100%" stop-opacity="0.24" style="stop-color:rgb(226,226,226)"/></linearGradient><path d=" M 1137.334 1151.603 L 1138.5 1151.603 L 1138.5 1153.935 L 1137.334 1153.935 C 1130.102 1153.928 1122.87 1154.06 1115.638 1154.332 C 1109.239 1154.573 1102.839 1154.946 1096.447 1155.452 C 1085.615 1156.307 1074.83 1157.637 1064.114 1159.456 C 1055.164 1160.996 1046.268 1162.886 1037.458 1165.11 C 1033.414 1166.128 1029.379 1167.194 1025.358 1168.298 C 1021.432 1169.386 1017.505 1170.483 1013.586 1171.603 C 1009.651 1172.722 1005.708 1173.826 1001.766 1174.923 C 997.715 1176.043 993.648 1177.108 989.565 1178.134 C 980.654 1180.382 971.665 1182.287 962.606 1183.85 C 951.758 1185.685 940.833 1187.038 929.861 1187.893 C 923.399 1188.407 916.921 1188.78 910.436 1189.029 C 903.127 1189.301 895.817 1189.433 888.5 1189.425 C 881.206 1189.433 873.912 1189.301 866.626 1189.029 C 860.172 1188.788 853.718 1188.414 847.279 1187.901 C 836.369 1187.046 825.506 1185.7 814.713 1183.873 C 805.724 1182.326 796.789 1180.421 787.948 1178.181 C 783.897 1177.162 779.861 1176.089 775.841 1174.977 C 771.929 1173.889 768.018 1172.784 764.114 1171.673 C 760.203 1170.553 756.284 1169.449 752.365 1168.36 C 748.344 1167.24 744.316 1166.175 740.273 1165.156 C 731.439 1162.917 722.528 1161.027 713.554 1159.48 C 702.769 1157.652 691.906 1156.315 681.004 1155.459 C 674.55 1154.954 668.08 1154.573 661.61 1154.332 C 654.301 1154.068 646.984 1153.928 639.666 1153.935 L 638.5 1153.935 L 638.5 1151.603 L 639.666 1151.603 C 647.015 1151.595 654.355 1151.735 661.704 1152.007 C 668.205 1152.248 674.698 1152.621 681.183 1153.134 C 692.163 1153.99 703.088 1155.343 713.943 1157.178 C 722.979 1158.733 731.953 1160.646 740.841 1162.893 C 744.907 1163.92 748.951 1164.993 752.995 1166.113 C 756.914 1167.201 760.841 1168.305 764.752 1169.425 C 768.656 1170.545 772.559 1171.641 776.463 1172.73 C 780.467 1173.842 784.488 1174.907 788.516 1175.926 C 797.302 1178.15 806.175 1180.032 815.11 1181.579 C 825.825 1183.391 836.626 1184.728 847.458 1185.576 C 853.873 1186.082 860.288 1186.455 866.711 1186.696 C 873.974 1186.968 881.237 1187.1 888.5 1187.092 C 895.786 1187.1 903.072 1186.968 910.351 1186.696 C 916.805 1186.455 923.243 1186.082 929.682 1185.568 C 940.576 1184.713 951.432 1183.375 962.209 1181.548 C 971.206 1180.001 980.141 1178.103 988.998 1175.872 C 993.057 1174.853 997.108 1173.788 1001.144 1172.668 C 1005.086 1171.579 1009.021 1170.483 1012.948 1169.363 C 1016.875 1168.243 1020.802 1167.139 1024.736 1166.05 C 1028.772 1164.938 1032.823 1163.865 1036.89 1162.847 C 1045.763 1160.607 1054.713 1158.71 1063.725 1157.155 C 1074.503 1155.327 1085.366 1153.982 1096.261 1153.127 C 1102.683 1152.621 1109.114 1152.24 1115.553 1151.999 C 1122.808 1151.735 1130.071 1151.595 1137.334 1151.603 L 1137.334 1151.603 L 1137.334 1151.603 L 1137.334 1151.603 L 1137.334 1151.603 L 1137.334 1151.603 L 1137.334 1151.603 L 1137.334 1151.603 L 1137.334 1151.603 L 1137.334 1151.603 L 1137.334 1151.603 L 1137.334 1151.603 L 1137.334 1151.603 L 1137.334 1151.603 L 1137.334 1151.603 L 1137.334 1151.603 L 1137.334 1151.603 L 1137.334 1151.603 L 1137.334 1151.603 L 1137.334 1151.603 L 1137.334 1151.603 L 1137.334 1151.603 L 1137.334 1151.603 L 1137.334 1151.603 L 1137.334 1151.603 L 1137.334 1151.603 L 1137.334 1151.603 L 1137.334 1151.603 L 1137.334 1151.603 L 1137.334 1151.603 L 1137.334 1151.603 L 1137.334 1151.603 Z  M 1137.334 1137.411 L 1138.5 1137.411 L 1138.5 1139.744 L 1137.334 1139.744 C 1130.102 1139.736 1122.87 1139.869 1115.638 1140.141 C 1109.239 1140.374 1102.839 1140.755 1096.447 1141.26 C 1085.615 1142.108 1074.83 1143.445 1064.114 1145.257 C 1055.164 1146.805 1046.268 1148.687 1037.458 1150.91 C 1033.414 1151.929 1029.379 1152.994 1025.358 1154.106 C 1021.432 1155.187 1017.505 1156.292 1013.586 1157.411 C 1009.651 1158.531 1005.708 1159.635 1001.766 1160.724 C 997.715 1161.844 993.648 1162.917 989.565 1163.943 C 980.654 1166.19 971.665 1168.096 962.606 1169.659 C 951.758 1171.494 940.833 1172.839 929.861 1173.694 C 923.399 1174.208 916.921 1174.589 910.436 1174.83 L 888.5 1175.226 L 866.626 1174.83 C 866.626 1174.83 866.626 1174.83 866.626 1174.83 C 860.172 1174.589 853.718 1174.215 847.279 1173.702 C 836.369 1172.854 825.506 1171.509 814.713 1169.682 C 805.724 1168.127 796.789 1166.229 787.948 1163.99 C 783.897 1162.963 779.861 1161.898 775.841 1160.778 C 771.929 1159.697 768.018 1158.593 764.114 1157.473 C 760.203 1156.354 756.284 1155.25 752.365 1154.161 C 748.344 1153.049 744.316 1151.976 740.273 1150.957 C 731.439 1148.725 722.528 1146.828 713.554 1145.281 C 702.769 1143.461 691.906 1142.116 681.004 1141.268 C 674.55 1140.755 668.08 1140.382 661.61 1140.141 C 654.301 1139.869 646.984 1139.736 639.666 1139.744 L 638.5 1139.744 L 638.5 1137.411 L 639.666 1137.411 C 647.015 1137.403 654.355 1137.536 661.704 1137.808 C 668.205 1138.049 674.698 1138.43 681.183 1138.943 C 692.163 1139.799 703.088 1141.144 713.943 1142.979 C 722.979 1144.542 731.953 1146.447 740.841 1148.694 C 744.907 1149.721 748.951 1150.794 752.995 1151.914 C 756.914 1153.002 760.841 1154.106 764.752 1155.234 C 768.656 1156.346 772.559 1157.45 776.463 1158.531 C 780.467 1159.643 784.488 1160.708 788.516 1161.727 C 797.302 1163.951 806.175 1165.841 815.11 1167.38 C 825.825 1169.2 836.626 1170.529 847.458 1171.377 C 853.873 1171.89 860.288 1172.264 866.711 1172.497 C 873.974 1172.769 881.237 1172.901 888.5 1172.893 C 895.786 1172.901 903.072 1172.769 910.351 1172.497 C 916.805 1172.256 923.243 1171.882 929.682 1171.369 C 940.576 1170.522 951.432 1169.176 962.209 1167.357 C 971.206 1165.802 980.141 1163.912 988.998 1161.68 C 993.057 1160.662 997.108 1159.589 1001.144 1158.477 C 1005.086 1157.388 1009.021 1156.284 1012.948 1155.164 C 1016.875 1154.044 1020.802 1152.94 1024.736 1151.859 C 1028.772 1150.739 1032.823 1149.674 1036.89 1148.648 C 1045.763 1146.416 1054.713 1144.511 1063.725 1142.956 C 1074.503 1141.128 1085.366 1139.791 1096.261 1138.935 C 1102.683 1138.422 1109.114 1138.049 1115.553 1137.808 C 1122.808 1137.536 1130.071 1137.403 1137.334 1137.411 L 1137.334 1137.411 L 1137.334 1137.411 L 1137.334 1137.411 L 1137.334 1137.411 L 1137.334 1137.411 L 1137.334 1137.411 L 1137.334 1137.411 L 1137.334 1137.411 L 1137.334 1137.411 L 1137.334 1137.411 L 1137.334 1137.411 L 1137.334 1137.411 L 1137.334 1137.411 L 1137.334 1137.411 L 1137.334 1137.411 L 1137.334 1137.411 L 1137.334 1137.411 L 1137.334 1137.411 L 1137.334 1137.411 L 1137.334 1137.411 L 1137.334 1137.411 L 1137.334 1137.411 L 1137.334 1137.411 L 1137.334 1137.411 L 1137.334 1137.411 L 1137.334 1137.411 L 1137.334 1137.411 L 1137.334 1137.411 L 1137.334 1137.411 L 1137.334 1137.411 L 1137.334 1137.411 Z  M 1137.334 1123.212 L 1138.5 1123.212 L 1138.5 1125.545 L 1137.334 1125.545 C 1130.102 1125.537 1122.87 1125.669 1115.638 1125.942 C 1109.239 1126.183 1102.839 1126.556 1096.447 1127.061 C 1085.615 1127.917 1074.83 1129.246 1064.114 1131.058 C 1055.164 1132.606 1046.268 1134.495 1037.458 1136.719 C 1033.414 1137.738 1029.379 1138.795 1025.358 1139.907 C 1021.432 1140.996 1017.505 1142.092 1013.586 1143.212 C 1009.651 1144.332 1005.708 1145.436 1001.766 1146.533 C 997.715 1147.645 993.648 1148.718 989.565 1149.744 C 980.654 1151.991 971.665 1153.897 962.606 1155.459 C 951.758 1157.295 940.833 1158.64 929.861 1159.503 C 923.399 1160.016 916.921 1160.39 910.436 1160.631 C 903.127 1160.903 895.817 1161.043 888.5 1161.035 C 881.206 1161.043 873.912 1160.91 866.626 1160.638 C 860.172 1160.397 853.718 1160.016 847.279 1159.511 C 836.369 1158.655 825.506 1157.31 814.713 1155.483 C 805.724 1153.928 796.789 1152.03 787.948 1149.791 C 783.897 1148.772 779.861 1147.699 775.841 1146.587 C 771.929 1145.498 768.018 1144.394 764.114 1143.274 C 760.203 1142.155 756.284 1141.058 752.365 1139.97 C 748.344 1138.85 744.316 1137.784 740.273 1136.766 C 731.439 1134.526 722.528 1132.637 713.554 1131.089 C 702.769 1129.262 691.906 1127.925 681.004 1127.069 C 674.55 1126.564 668.08 1126.183 661.61 1125.942 C 654.301 1125.669 646.984 1125.537 639.666 1125.545 L 638.5 1125.545 L 638.5 1123.212 L 639.666 1123.212 C 647.015 1123.204 654.355 1123.344 661.704 1123.617 C 668.205 1123.858 674.698 1124.231 681.183 1124.744 C 692.163 1125.599 703.088 1126.953 713.943 1128.788 C 722.979 1130.343 731.953 1132.256 740.841 1134.503 C 744.907 1135.529 748.951 1136.603 752.995 1137.722 C 756.914 1138.811 760.841 1139.915 764.752 1141.035 C 768.656 1142.155 772.559 1143.251 776.463 1144.34 C 780.467 1145.452 784.488 1146.517 788.516 1147.528 C 797.302 1149.76 806.175 1151.641 815.11 1153.189 C 825.825 1155.001 836.626 1156.338 847.458 1157.186 C 853.873 1157.691 860.288 1158.064 866.711 1158.305 C 873.974 1158.578 881.237 1158.71 888.5 1158.702 C 895.786 1158.71 903.072 1158.578 910.351 1158.305 C 916.805 1158.064 923.243 1157.683 929.682 1157.178 C 940.576 1156.323 951.432 1154.985 962.209 1153.158 C 971.206 1151.61 980.141 1149.713 988.998 1147.481 C 993.057 1146.463 997.108 1145.397 1001.144 1144.277 C 1005.086 1143.189 1009.021 1142.085 1012.948 1140.965 C 1016.875 1139.853 1020.802 1138.749 1024.736 1137.66 C 1028.772 1136.548 1032.823 1135.475 1036.89 1134.456 C 1045.763 1132.217 1054.713 1130.319 1063.725 1128.764 C 1074.503 1126.937 1085.366 1125.592 1096.261 1124.736 C 1102.683 1124.231 1109.114 1123.85 1115.553 1123.609 C 1122.808 1123.337 1130.071 1123.204 1137.334 1123.212 L 1137.334 1123.212 L 1137.334 1123.212 L 1137.334 1123.212 L 1137.334 1123.212 L 1137.334 1123.212 L 1137.334 1123.212 L 1137.334 1123.212 L 1137.334 1123.212 L 1137.334 1123.212 L 1137.334 1123.212 L 1137.334 1123.212 L 1137.334 1123.212 L 1137.334 1123.212 L 1137.334 1123.212 L 1137.334 1123.212 L 1137.334 1123.212 L 1137.334 1123.212 L 1137.334 1123.212 L 1137.334 1123.212 L 1137.334 1123.212 L 1137.334 1123.212 L 1137.334 1123.212 L 1137.334 1123.212 L 1137.334 1123.212 L 1137.334 1123.212 L 1137.334 1123.212 L 1137.334 1123.212 L 1137.334 1123.212 L 1137.334 1123.212 L 1137.334 1123.212 Z  M 1137.334 1109.021 L 1138.5 1109.021 L 1138.5 1111.354 L 1137.334 1111.354 C 1130.102 1111.346 1122.87 1111.478 1115.638 1111.75 C 1109.239 1111.984 1102.839 1112.357 1096.447 1112.87 C 1085.615 1113.718 1074.83 1115.055 1064.114 1116.867 C 1055.164 1118.414 1046.268 1120.296 1037.458 1122.52 C 1033.414 1123.539 1029.379 1124.604 1025.358 1125.716 C 1021.432 1126.797 1017.505 1127.901 1013.586 1129.013 C 1009.651 1130.141 1005.708 1131.245 1001.766 1132.333 C 997.715 1133.453 993.648 1134.526 989.565 1135.553 C 980.654 1137.8 971.665 1139.705 962.606 1141.268 C 951.758 1143.096 940.833 1144.449 929.861 1145.304 C 923.399 1145.817 916.921 1146.198 910.436 1146.439 L 888.5 1146.836 L 866.626 1146.439 C 866.626 1146.439 866.626 1146.439 866.626 1146.439 C 860.172 1146.198 853.718 1145.825 847.279 1145.312 C 836.369 1144.464 825.506 1143.119 814.713 1141.291 C 805.724 1139.736 796.789 1137.839 787.948 1135.599 C 783.897 1134.573 779.861 1133.508 775.841 1132.388 C 771.929 1131.307 768.018 1130.203 764.114 1129.083 C 760.203 1127.963 756.284 1126.859 752.365 1125.771 C 748.344 1124.659 744.316 1123.585 740.273 1122.567 C 731.439 1120.335 722.528 1118.438 713.554 1116.89 C 702.769 1115.063 691.906 1113.725 681.004 1112.878 C 674.55 1112.365 668.08 1111.991 661.61 1111.75 C 654.301 1111.478 646.984 1111.346 639.666 1111.354 L 638.5 1111.354 L 638.5 1109.021 L 639.666 1109.021 C 647.015 1109.013 654.355 1109.145 661.704 1109.417 C 668.205 1109.659 674.698 1110.04 681.183 1110.553 C 692.163 1111.408 703.088 1112.753 713.943 1114.589 C 722.979 1116.152 731.953 1118.057 740.841 1120.304 C 744.907 1121.33 748.951 1122.404 752.995 1123.523 C 756.914 1124.612 760.841 1125.716 764.752 1126.844 C 768.656 1127.956 772.559 1129.06 776.463 1130.141 C 780.467 1131.253 784.488 1132.318 788.516 1133.337 C 797.302 1135.561 806.175 1137.45 815.11 1138.99 C 825.825 1140.809 836.626 1142.139 847.458 1142.987 C 853.873 1143.5 860.288 1143.873 866.711 1144.106 C 873.974 1144.379 881.237 1144.511 888.5 1144.503 C 895.786 1144.511 903.072 1144.379 910.351 1144.106 C 916.805 1143.865 923.243 1143.492 929.682 1142.979 C 940.576 1142.131 951.432 1140.786 962.209 1138.966 C 971.206 1137.411 980.141 1135.522 988.998 1133.29 C 993.057 1132.264 997.108 1131.198 1001.144 1130.086 C 1005.086 1128.998 1009.021 1127.893 1012.948 1126.774 C 1016.875 1125.654 1020.802 1124.55 1024.736 1123.469 C 1028.772 1122.349 1032.823 1121.284 1036.89 1120.257 C 1045.763 1118.018 1054.713 1116.12 1063.725 1114.565 C 1074.503 1112.738 1085.366 1111.4 1096.261 1110.545 C 1102.683 1110.032 1109.114 1109.659 1115.553 1109.417 C 1122.808 1109.145 1130.071 1109.013 1137.334 1109.021 L 1137.334 1109.021 L 1137.334 1109.021 L 1137.334 1109.021 L 1137.334 1109.021 L 1137.334 1109.021 L 1137.334 1109.021 L 1137.334 1109.021 L 1137.334 1109.021 L 1137.334 1109.021 L 1137.334 1109.021 L 1137.334 1109.021 L 1137.334 1109.021 L 1137.334 1109.021 L 1137.334 1109.021 L 1137.334 1109.021 L 1137.334 1109.021 L 1137.334 1109.021 L 1137.334 1109.021 L 1137.334 1109.021 L 1137.334 1109.021 L 1137.334 1109.021 L 1137.334 1109.021 L 1137.334 1109.021 L 1137.334 1109.021 L 1137.334 1109.021 L 1137.334 1109.021 L 1137.334 1109.021 L 1137.334 1109.021 L 1137.334 1109.021 Z  M 1137.334 1094.822 L 1138.5 1094.822 L 1138.5 1097.155 L 1137.334 1097.155 C 1130.102 1097.147 1122.87 1097.279 1115.638 1097.551 C 1109.239 1097.792 1102.839 1098.166 1096.447 1098.671 C 1085.615 1099.526 1074.83 1100.856 1064.114 1102.668 C 1055.164 1104.215 1046.268 1106.105 1037.458 1108.329 C 1033.414 1109.34 1029.379 1110.405 1025.358 1111.517 C 1021.432 1112.606 1017.505 1113.702 1013.586 1114.822 C 1009.651 1115.942 1005.708 1117.046 1001.766 1118.134 C 997.715 1119.254 993.648 1120.327 989.565 1121.354 C 980.654 1123.601 971.665 1125.506 962.606 1127.069 C 951.758 1128.904 940.833 1130.25 929.861 1131.113 C 923.399 1131.626 916.921 1131.999 910.436 1132.24 L 888.5 1132.645 L 866.626 1132.248 C 866.626 1132.248 866.626 1132.248 866.626 1132.248 C 860.172 1132.007 853.718 1131.626 847.279 1131.12 C 836.369 1130.265 825.506 1128.92 814.713 1127.092 C 805.724 1125.537 796.789 1123.64 787.948 1121.4 C 783.897 1120.382 779.861 1119.309 775.841 1118.197 C 771.929 1117.108 768.018 1116.004 764.114 1114.884 C 760.203 1113.764 756.284 1112.66 752.365 1111.579 C 748.344 1110.459 744.316 1109.394 740.273 1108.368 C 731.439 1106.136 722.528 1104.246 713.554 1102.699 C 702.769 1100.872 691.906 1099.534 681.004 1098.679 C 674.55 1098.173 668.08 1097.792 661.61 1097.551 C 654.301 1097.279 646.984 1097.147 639.666 1097.155 L 638.5 1097.155 L 638.5 1094.822 L 639.666 1094.822 C 647.015 1094.814 654.355 1094.946 661.704 1095.226 C 668.205 1095.467 674.698 1095.841 681.183 1096.354 C 692.163 1097.209 703.088 1098.562 713.943 1100.397 C 722.979 1101.952 731.953 1103.858 740.841 1106.113 C 744.907 1107.139 748.951 1108.212 752.995 1109.324 C 756.914 1110.421 760.841 1111.525 764.752 1112.645 C 768.656 1113.764 772.559 1114.861 776.463 1115.949 C 780.467 1117.061 784.488 1118.119 788.516 1119.138 C 797.302 1121.369 806.175 1123.251 815.11 1124.799 C 825.825 1126.61 836.626 1127.948 847.458 1128.795 C 853.873 1129.301 860.288 1129.674 866.711 1129.915 C 873.974 1130.187 881.237 1130.319 888.5 1130.312 C 895.786 1130.319 903.072 1130.18 910.351 1129.915 C 916.805 1129.674 923.243 1129.293 929.682 1128.788 C 940.576 1127.932 951.432 1126.595 962.209 1124.767 C 971.206 1123.22 980.141 1121.323 988.998 1119.091 C 993.057 1118.072 997.108 1117.007 1001.144 1115.887 C 1005.086 1114.799 1009.021 1113.694 1012.948 1112.575 C 1016.875 1111.463 1020.802 1110.358 1024.736 1109.27 C 1028.772 1108.158 1032.823 1107.085 1036.89 1106.066 C 1045.763 1103.827 1054.713 1101.929 1063.725 1100.374 C 1074.503 1098.547 1085.366 1097.201 1096.261 1096.346 C 1102.683 1095.841 1109.114 1095.459 1115.553 1095.218 C 1122.808 1094.946 1130.071 1094.814 1137.334 1094.822 L 1137.334 1094.822 L 1137.334 1094.822 L 1137.334 1094.822 L 1137.334 1094.822 L 1137.334 1094.822 L 1137.334 1094.822 L 1137.334 1094.822 L 1137.334 1094.822 L 1137.334 1094.822 L 1137.334 1094.822 L 1137.334 1094.822 L 1137.334 1094.822 L 1137.334 1094.822 L 1137.334 1094.822 L 1137.334 1094.822 L 1137.334 1094.822 L 1137.334 1094.822 L 1137.334 1094.822 L 1137.334 1094.822 L 1137.334 1094.822 L 1137.334 1094.822 L 1137.334 1094.822 L 1137.334 1094.822 L 1137.334 1094.822 L 1137.334 1094.822 L 1137.334 1094.822 L 1137.334 1094.822 L 1137.334 1094.822 Z  M 1137.334 1080.631 L 1138.5 1080.631 L 1138.5 1082.963 L 1137.334 1082.963 C 1130.102 1082.956 1122.87 1083.088 1115.638 1083.36 C 1109.239 1083.593 1102.839 1083.966 1096.447 1084.48 C 1085.615 1085.327 1074.83 1086.665 1064.114 1088.477 C 1055.164 1090.024 1046.268 1091.906 1037.458 1094.13 C 1033.414 1095.148 1029.379 1096.214 1025.358 1097.326 C 1021.432 1098.407 1017.505 1099.511 1013.586 1100.623 C 1009.651 1101.75 1005.708 1102.855 1001.766 1103.943 C 997.715 1105.063 993.648 1106.136 989.565 1107.162 C 980.654 1109.41 971.665 1111.315 962.606 1112.87 C 951.758 1114.705 940.833 1116.058 929.861 1116.914 C 923.399 1117.427 916.921 1117.808 910.436 1118.049 L 888.5 1118.445 L 866.626 1118.049 C 866.626 1118.049 866.626 1118.049 866.626 1118.049 C 860.172 1117.808 853.718 1117.435 847.279 1116.921 C 836.369 1116.066 825.506 1114.728 814.713 1112.901 C 805.724 1111.346 796.789 1109.449 787.948 1107.209 C 783.897 1106.183 779.861 1105.117 775.841 1103.998 C 771.929 1102.917 768.018 1101.812 764.114 1100.693 C 760.203 1099.573 756.284 1098.469 752.365 1097.38 C 748.344 1096.268 744.316 1095.195 740.273 1094.176 C 731.439 1091.945 722.528 1090.047 713.554 1088.5 C 702.769 1086.673 691.906 1085.335 681.004 1084.488 C 674.55 1083.974 668.08 1083.601 661.61 1083.36 C 654.301 1083.088 646.984 1082.956 639.666 1082.963 L 638.5 1082.963 L 638.5 1080.631 L 639.666 1080.631 C 647.015 1080.623 654.355 1080.755 661.704 1081.027 C 668.205 1081.268 674.698 1081.649 681.183 1082.162 C 692.163 1083.018 703.088 1084.363 713.943 1086.198 C 722.979 1087.761 731.953 1089.666 740.841 1091.914 C 744.907 1092.94 748.951 1094.013 752.995 1095.133 C 756.914 1096.222 760.841 1097.326 764.752 1098.445 C 768.656 1099.565 772.559 1100.669 776.463 1101.75 C 780.467 1102.862 784.488 1103.928 788.516 1104.946 C 797.302 1107.17 806.175 1109.06 815.11 1110.599 C 825.825 1112.419 836.626 1113.749 847.458 1114.596 C 853.873 1115.11 860.288 1115.483 866.711 1115.716 C 873.974 1115.988 881.237 1116.12 888.5 1116.113 C 895.786 1116.12 903.072 1115.988 910.351 1115.716 C 916.805 1115.475 923.243 1115.102 929.682 1114.589 C 940.576 1113.733 951.432 1112.396 962.209 1110.576 C 971.206 1109.021 980.141 1107.131 988.998 1104.9 C 993.057 1103.873 997.108 1102.808 1001.144 1101.696 C 1005.086 1100.607 1009.021 1099.503 1012.948 1098.383 C 1016.875 1097.264 1020.802 1096.159 1024.736 1095.078 C 1028.772 1093.959 1032.823 1092.893 1036.89 1091.867 C 1045.763 1089.627 1054.713 1087.73 1063.725 1086.175 C 1074.503 1084.347 1085.366 1083.01 1096.261 1082.155 C 1102.683 1081.641 1109.114 1081.268 1115.553 1081.027 C 1122.808 1080.755 1130.071 1080.623 1137.334 1080.631 L 1137.334 1080.631 L 1137.334 1080.631 L 1137.334 1080.631 L 1137.334 1080.631 L 1137.334 1080.631 L 1137.334 1080.631 L 1137.334 1080.631 L 1137.334 1080.631 L 1137.334 1080.631 L 1137.334 1080.631 L 1137.334 1080.631 L 1137.334 1080.631 L 1137.334 1080.631 L 1137.334 1080.631 L 1137.334 1080.631 L 1137.334 1080.631 L 1137.334 1080.631 L 1137.334 1080.631 L 1137.334 1080.631 L 1137.334 1080.631 L 1137.334 1080.631 L 1137.334 1080.631 L 1137.334 1080.631 L 1137.334 1080.631 L 1137.334 1080.631 L 1137.334 1080.631 L 1137.334 1080.631 Z  M 1137.334 1066.431 L 1138.5 1066.431 L 1138.5 1068.764 L 1137.334 1068.764 C 1130.102 1068.756 1122.87 1068.889 1115.638 1069.161 C 1109.239 1069.402 1102.839 1069.775 1096.447 1070.281 C 1085.615 1071.128 1074.83 1072.466 1064.114 1074.278 C 1055.164 1075.825 1046.268 1077.714 1037.458 1079.931 C 1033.414 1080.949 1029.379 1082.015 1025.358 1083.127 C 1021.432 1084.215 1017.505 1085.312 1013.586 1086.432 C 1009.651 1087.551 1005.708 1088.655 1001.766 1089.744 C 997.715 1090.864 993.648 1091.937 989.565 1092.963 C 980.654 1095.211 971.665 1097.116 962.606 1098.679 C 951.758 1100.514 940.833 1101.859 929.861 1102.722 C 923.399 1103.236 916.921 1103.609 910.436 1103.85 C 903.127 1104.122 895.817 1104.262 888.5 1104.254 C 881.206 1104.262 873.912 1104.122 866.626 1103.858 C 860.172 1103.617 853.718 1103.236 847.279 1102.73 C 836.369 1101.875 825.506 1100.529 814.713 1098.702 C 805.724 1097.147 796.789 1095.25 787.948 1093.01 C 783.897 1091.991 779.861 1090.918 775.841 1089.806 C 771.929 1088.718 768.018 1087.613 764.114 1086.494 C 760.203 1085.374 756.284 1084.27 752.365 1083.181 C 748.344 1082.069 744.316 1081.004 740.273 1079.977 C 731.439 1077.746 722.528 1075.856 713.554 1074.309 C 702.769 1072.481 691.906 1071.144 681.004 1070.288 C 674.55 1069.775 668.08 1069.402 661.61 1069.161 C 654.301 1068.889 646.984 1068.756 639.666 1068.764 L 638.5 1068.764 L 638.5 1066.431 L 639.666 1066.431 C 647.015 1066.424 654.355 1066.556 661.704 1066.828 C 668.205 1067.077 674.698 1067.45 681.183 1067.963 C 692.163 1068.819 703.088 1070.172 713.943 1072.007 C 722.979 1073.562 731.953 1075.467 740.841 1077.722 C 744.907 1078.741 748.951 1079.814 752.995 1080.934 C 756.914 1082.03 760.841 1083.134 764.752 1084.254 C 768.656 1085.374 772.559 1086.47 776.463 1087.559 C 780.467 1088.671 784.488 1089.729 788.516 1090.747 C 797.302 1092.971 806.175 1094.861 815.11 1096.4 C 825.825 1098.22 836.626 1099.557 847.458 1100.405 C 853.873 1100.911 860.288 1101.284 866.711 1101.525 C 873.974 1101.789 881.237 1101.929 888.5 1101.921 C 895.786 1101.929 903.072 1101.789 910.351 1101.525 C 916.805 1101.284 923.243 1100.903 929.682 1100.397 C 940.576 1099.542 951.432 1098.204 962.209 1096.377 C 971.206 1094.83 980.141 1092.932 988.998 1090.701 C 993.057 1089.682 997.108 1088.617 1001.144 1087.497 C 1005.086 1086.408 1009.021 1085.304 1012.948 1084.184 C 1016.875 1083.072 1020.802 1081.968 1024.736 1080.879 C 1028.772 1079.767 1032.823 1078.694 1036.89 1077.676 C 1045.763 1075.436 1054.713 1073.539 1063.725 1071.984 C 1074.503 1070.156 1085.366 1068.811 1096.261 1067.956 C 1102.683 1067.442 1109.114 1067.069 1115.553 1066.828 C 1122.808 1066.556 1130.071 1066.424 1137.334 1066.431 L 1137.334 1066.431 L 1137.334 1066.431 L 1137.334 1066.431 L 1137.334 1066.431 L 1137.334 1066.431 L 1137.334 1066.431 L 1137.334 1066.431 L 1137.334 1066.431 L 1137.334 1066.431 L 1137.334 1066.431 L 1137.334 1066.431 L 1137.334 1066.431 L 1137.334 1066.431 L 1137.334 1066.431 L 1137.334 1066.431 L 1137.334 1066.431 L 1137.334 1066.431 L 1137.334 1066.431 L 1137.334 1066.431 L 1137.334 1066.431 L 1137.334 1066.431 L 1137.334 1066.431 L 1137.334 1066.431 L 1137.334 1066.431 L 1137.334 1066.431 L 1137.334 1066.431 Z  M 1137.334 1052.232 L 1138.5 1052.24 L 1138.5 1054.573 L 1137.334 1054.565 C 1130.102 1054.565 1122.87 1054.697 1115.638 1054.962 C 1109.239 1055.203 1102.839 1055.576 1096.447 1056.089 C 1085.615 1056.937 1074.83 1058.274 1064.114 1060.086 C 1055.164 1061.634 1046.268 1063.515 1037.458 1065.739 C 1033.414 1066.758 1029.379 1067.823 1025.358 1068.935 C 1021.432 1070.016 1017.505 1071.12 1013.586 1072.232 C 1009.651 1073.36 1005.708 1074.464 1001.766 1075.553 C 997.715 1076.673 993.648 1077.746 989.565 1078.772 C 980.654 1081.019 971.665 1082.925 962.606 1084.48 C 951.758 1086.315 940.833 1087.668 929.861 1088.523 C 923.399 1089.036 916.921 1089.417 910.436 1089.659 L 888.5 1090.055 L 866.626 1089.659 C 866.626 1089.659 866.626 1089.659 866.626 1089.659 C 860.172 1089.417 853.718 1089.044 847.279 1088.531 C 836.369 1087.676 825.506 1086.338 814.713 1084.511 C 805.724 1082.956 796.789 1081.058 787.948 1078.819 C 783.897 1077.792 779.861 1076.727 775.841 1075.607 C 771.929 1074.519 768.018 1073.422 764.114 1072.302 C 760.203 1071.183 756.284 1070.078 752.365 1068.99 C 748.344 1067.878 744.316 1066.805 740.273 1065.786 C 731.439 1063.554 722.528 1061.657 713.554 1060.11 C 702.769 1058.282 691.906 1056.945 681.004 1056.097 C 674.55 1055.584 668.08 1055.211 661.61 1054.97 C 654.301 1054.697 646.984 1054.565 639.666 1054.565 L 638.5 1054.573 L 638.5 1052.24 L 639.666 1052.232 C 647.015 1052.232 654.355 1052.365 661.704 1052.637 C 668.205 1052.878 674.698 1053.259 681.183 1053.764 C 692.163 1054.627 703.088 1055.973 713.943 1057.808 C 722.979 1059.371 731.953 1061.276 740.841 1063.523 C 744.907 1064.55 748.951 1065.623 752.995 1066.743 C 756.914 1067.831 760.841 1068.935 764.752 1070.055 C 768.656 1071.175 772.559 1072.279 776.463 1073.36 C 780.467 1074.472 784.488 1075.537 788.516 1076.556 C 797.302 1078.78 806.175 1080.662 815.11 1082.209 C 825.825 1084.021 836.626 1085.358 847.458 1086.206 C 853.873 1086.711 860.288 1087.085 866.711 1087.326 C 873.974 1087.598 881.237 1087.73 888.5 1087.722 C 895.786 1087.73 903.072 1087.598 910.351 1087.326 C 916.805 1087.085 923.243 1086.711 929.682 1086.198 C 940.576 1085.343 951.432 1084.005 962.209 1082.186 C 971.206 1080.631 980.141 1078.741 988.998 1076.509 C 993.057 1075.483 997.108 1074.417 1001.144 1073.306 C 1005.086 1072.217 1009.021 1071.113 1012.948 1069.993 C 1016.875 1068.873 1020.802 1067.769 1024.736 1066.68 C 1028.772 1065.568 1032.823 1064.503 1036.89 1063.477 C 1045.763 1061.237 1054.713 1059.34 1063.725 1057.784 C 1074.503 1055.957 1085.366 1054.62 1096.261 1053.764 C 1102.683 1053.251 1109.114 1052.878 1115.553 1052.637 C 1122.808 1052.365 1130.071 1052.232 1137.334 1052.232 L 1137.334 1052.232 L 1137.334 1052.232 L 1137.334 1052.232 L 1137.334 1052.232 L 1137.334 1052.232 L 1137.334 1052.232 L 1137.334 1052.232 L 1137.334 1052.232 L 1137.334 1052.232 L 1137.334 1052.232 L 1137.334 1052.232 L 1137.334 1052.232 L 1137.334 1052.232 L 1137.334 1052.232 L 1137.334 1052.232 L 1137.334 1052.232 L 1137.334 1052.232 L 1137.334 1052.232 L 1137.334 1052.232 L 1137.334 1052.232 L 1137.334 1052.232 L 1137.334 1052.232 L 1137.334 1052.232 L 1137.334 1052.232 L 1137.334 1052.232 Z  M 1137.334 1038.041 L 1138.5 1038.041 L 1138.5 1040.374 L 1137.334 1040.374 C 1130.102 1040.366 1122.87 1040.498 1115.638 1040.77 C 1109.239 1041.012 1102.839 1041.385 1096.447 1041.89 C 1085.615 1042.738 1074.83 1044.075 1064.114 1045.887 C 1055.164 1047.435 1046.268 1049.324 1037.458 1051.54 C 1033.414 1052.559 1029.379 1053.624 1025.358 1054.736 C 1021.432 1055.825 1017.505 1056.921 1013.586 1058.041 C 1009.651 1059.161 1005.708 1060.265 1001.766 1061.354 C 997.715 1062.473 993.648 1063.547 989.565 1064.573 C 980.654 1066.82 971.665 1068.725 962.606 1070.288 C 951.758 1072.124 940.833 1073.469 929.861 1074.332 C 923.399 1074.845 916.921 1075.218 910.436 1075.459 L 888.5 1075.864 L 866.626 1075.467 C 866.626 1075.467 866.626 1075.467 866.626 1075.467 C 860.172 1075.226 853.718 1074.845 847.279 1074.34 C 836.369 1073.484 825.506 1072.139 814.713 1070.312 C 805.724 1068.756 796.789 1066.859 787.948 1064.62 C 783.897 1063.601 779.861 1062.528 775.841 1061.416 C 771.929 1060.327 768.018 1059.223 764.114 1058.103 C 760.203 1056.984 756.284 1055.879 752.365 1054.791 C 748.344 1053.679 744.316 1052.613 740.273 1051.587 C 731.439 1049.355 722.528 1047.466 713.554 1045.91 C 702.769 1044.091 691.906 1042.746 681.004 1041.898 C 674.55 1041.385 668.08 1041.012 661.61 1040.77 C 654.301 1040.498 646.984 1040.366 639.666 1040.374 L 638.5 1040.374 L 638.5 1038.041 L 639.666 1038.041 C 647.015 1038.033 654.355 1038.166 661.704 1038.438 C 668.205 1038.679 674.698 1039.06 681.183 1039.573 C 692.163 1040.428 703.088 1041.781 713.943 1043.617 C 722.979 1045.172 731.953 1047.077 740.841 1049.332 C 744.907 1050.351 748.951 1051.424 752.995 1052.543 C 756.914 1053.632 760.841 1054.744 764.752 1055.864 C 768.656 1056.976 772.559 1058.08 776.463 1059.169 C 780.467 1060.273 784.488 1061.338 788.516 1062.357 C 797.302 1064.581 806.175 1066.47 815.11 1068.01 C 825.825 1069.83 836.626 1071.167 847.458 1072.015 C 853.873 1072.52 860.288 1072.893 866.711 1073.134 C 873.974 1073.399 881.237 1073.531 888.5 1073.531 C 895.786 1073.531 903.072 1073.399 910.351 1073.127 C 916.805 1072.893 923.243 1072.512 929.682 1072.007 C 940.576 1071.152 951.432 1069.814 962.209 1067.987 C 971.206 1066.439 980.141 1064.542 988.998 1062.31 C 993.057 1061.291 997.108 1060.218 1001.144 1059.106 C 1005.086 1058.018 1009.021 1056.914 1012.948 1055.794 C 1016.875 1054.674 1020.802 1053.578 1024.736 1052.489 C 1028.772 1051.377 1032.823 1050.304 1036.89 1049.278 C 1045.763 1047.046 1054.713 1045.148 1063.725 1043.593 C 1074.503 1041.766 1085.366 1040.421 1096.261 1039.565 C 1102.683 1039.052 1109.114 1038.679 1115.553 1038.438 C 1122.808 1038.166 1130.071 1038.033 1137.334 1038.041 L 1137.334 1038.041 L 1137.334 1038.041 L 1137.334 1038.041 L 1137.334 1038.041 L 1137.334 1038.041 L 1137.334 1038.041 L 1137.334 1038.041 L 1137.334 1038.041 L 1137.334 1038.041 L 1137.334 1038.041 L 1137.334 1038.041 L 1137.334 1038.041 L 1137.334 1038.041 L 1137.334 1038.041 L 1137.334 1038.041 L 1137.334 1038.041 L 1137.334 1038.041 L 1137.334 1038.041 L 1137.334 1038.041 L 1137.334 1038.041 L 1137.334 1038.041 L 1137.334 1038.041 L 1137.334 1038.041 L 1137.334 1038.041 Z  M 1137.334 1023.842 L 1138.5 1023.842 L 1138.5 1026.175 L 1137.334 1026.175 C 1130.102 1026.175 1122.87 1026.307 1115.638 1026.571 C 1109.239 1026.813 1102.839 1027.186 1096.447 1027.699 C 1085.615 1028.547 1074.83 1029.876 1064.114 1031.696 C 1055.164 1033.243 1046.268 1035.125 1037.458 1037.349 C 1033.414 1038.368 1029.379 1039.433 1025.358 1040.545 C 1021.432 1041.626 1017.505 1042.73 1013.586 1043.842 C 1009.651 1044.962 1005.708 1046.074 1001.766 1047.162 C 997.715 1048.282 993.648 1049.355 989.565 1050.382 C 980.654 1052.629 971.665 1054.534 962.606 1056.089 C 951.758 1057.924 940.833 1059.278 929.861 1060.133 C 923.399 1060.646 916.921 1061.027 910.436 1061.268 L 888.5 1061.665 L 866.626 1061.268 C 866.626 1061.268 866.626 1061.268 866.626 1061.268 C 860.172 1061.027 853.718 1060.654 847.279 1060.141 C 836.369 1059.285 825.506 1057.948 814.713 1056.12 C 805.724 1054.565 796.789 1052.668 787.948 1050.428 C 783.897 1049.402 779.861 1048.337 775.841 1047.217 C 771.929 1046.128 768.018 1045.032 764.114 1043.912 C 760.203 1042.792 756.284 1041.688 752.365 1040.599 C 748.344 1039.488 744.316 1038.414 740.273 1037.396 C 731.439 1035.164 722.528 1033.267 713.554 1031.719 C 702.769 1029.892 691.906 1028.554 681.004 1027.699 C 674.55 1027.194 668.08 1026.82 661.61 1026.579 C 654.301 1026.307 646.984 1026.175 639.666 1026.175 L 638.5 1026.175 L 638.5 1023.842 L 639.666 1023.842 C 647.015 1023.842 654.355 1023.974 661.704 1024.246 C 668.205 1024.487 674.698 1024.861 681.183 1025.374 C 692.163 1026.237 703.088 1027.582 713.943 1029.417 C 722.979 1030.98 731.953 1032.886 740.841 1035.133 C 744.907 1036.159 748.951 1037.232 752.995 1038.352 C 756.914 1039.441 760.841 1040.545 764.752 1041.665 C 768.656 1042.785 772.559 1043.889 776.463 1044.97 C 780.467 1046.082 784.488 1047.147 788.516 1048.166 C 797.302 1050.389 806.175 1052.271 815.11 1053.819 C 825.825 1055.63 836.626 1056.968 847.458 1057.816 C 853.873 1058.321 860.288 1058.694 866.711 1058.935 C 873.974 1059.208 881.237 1059.34 888.5 1059.332 C 895.786 1059.34 903.072 1059.208 910.351 1058.935 C 916.805 1058.694 923.243 1058.321 929.682 1057.808 C 940.576 1056.952 951.432 1055.615 962.209 1053.795 C 971.206 1052.24 980.141 1050.351 988.998 1048.119 C 993.057 1047.092 997.108 1046.027 1001.144 1044.915 C 1005.086 1043.827 1009.021 1042.722 1012.948 1041.603 C 1016.875 1040.483 1020.802 1039.379 1024.736 1038.29 C 1028.772 1037.178 1032.823 1036.105 1036.89 1035.086 C 1045.763 1032.847 1054.713 1030.949 1063.725 1029.394 C 1074.503 1027.567 1085.366 1026.229 1096.261 1025.366 C 1102.683 1024.861 1109.114 1024.487 1115.553 1024.246 C 1122.808 1023.974 1130.071 1023.842 1137.334 1023.842 L 1137.334 1023.842 L 1137.334 1023.842 L 1137.334 1023.842 L 1137.334 1023.842 L 1137.334 1023.842 L 1137.334 1023.842 L 1137.334 1023.842 L 1137.334 1023.842 L 1137.334 1023.842 L 1137.334 1023.842 L 1137.334 1023.842 L 1137.334 1023.842 L 1137.334 1023.842 L 1137.334 1023.842 L 1137.334 1023.842 L 1137.334 1023.842 L 1137.334 1023.842 L 1137.334 1023.842 L 1137.334 1023.842 L 1137.334 1023.842 L 1137.334 1023.842 L 1137.334 1023.842 L 1137.334 1023.842 Z  M 1137.334 1009.651 L 1138.5 1009.651 L 1138.5 1011.984 L 1137.334 1011.984 C 1130.102 1011.976 1122.87 1012.108 1115.638 1012.38 C 1109.239 1012.621 1102.839 1012.994 1096.447 1013.5 C 1085.615 1014.347 1074.83 1015.685 1064.114 1017.497 C 1055.164 1019.044 1046.268 1020.934 1037.458 1023.15 C 1033.414 1024.169 1029.379 1025.234 1025.358 1026.346 C 1021.432 1027.435 1017.505 1028.531 1013.586 1029.651 C 1009.651 1030.77 1005.708 1031.875 1001.766 1032.963 C 997.715 1034.083 993.648 1035.156 989.565 1036.183 C 980.654 1038.43 971.665 1040.335 962.606 1041.898 C 951.758 1043.733 940.833 1045.078 929.861 1045.942 C 923.399 1046.455 916.921 1046.828 910.436 1047.069 L 888.5 1047.473 L 866.626 1047.069 C 866.626 1047.069 866.626 1047.069 866.626 1047.069 C 860.172 1046.836 853.718 1046.455 847.279 1045.949 C 836.369 1045.094 825.506 1043.749 814.713 1041.921 C 805.724 1040.366 796.789 1038.469 787.948 1036.229 C 783.897 1035.211 779.861 1034.138 775.841 1033.026 C 771.929 1031.937 768.018 1030.833 764.114 1029.713 C 760.203 1028.593 756.284 1027.489 752.365 1026.4 C 748.344 1025.288 744.316 1024.223 740.273 1023.197 C 731.439 1020.965 722.528 1019.075 713.554 1017.52 C 702.769 1015.701 691.906 1014.355 681.004 1013.508 C 674.55 1012.994 668.08 1012.621 661.61 1012.38 C 654.301 1012.108 646.984 1011.976 639.666 1011.984 L 638.5 1011.984 L 638.5 1009.651 L 639.666 1009.651 C 647.015 1009.643 654.355 1009.775 661.704 1010.047 C 668.205 1010.288 674.698 1010.669 681.183 1011.183 C 692.163 1012.038 703.088 1013.391 713.943 1015.226 C 722.979 1016.781 731.953 1018.687 740.841 1020.934 C 744.907 1021.96 748.951 1023.033 752.995 1024.153 C 756.914 1025.242 760.841 1026.354 764.752 1027.473 C 768.656 1028.585 772.559 1029.69 776.463 1030.778 C 780.467 1031.883 784.488 1032.948 788.516 1033.966 C 797.302 1036.19 806.175 1038.08 815.11 1039.62 C 825.825 1041.439 836.626 1042.769 847.458 1043.624 C 853.873 1044.13 860.288 1044.503 866.711 1044.744 C 873.974 1045.008 881.237 1045.141 888.5 1045.141 C 895.786 1045.141 903.072 1045.008 910.351 1044.736 C 916.805 1044.495 923.243 1044.122 929.682 1043.617 C 940.576 1042.761 951.432 1041.416 962.209 1039.596 C 971.206 1038.049 980.141 1036.152 988.998 1033.92 C 993.057 1032.901 997.108 1031.828 1001.144 1030.716 C 1005.086 1029.627 1009.021 1028.523 1012.948 1027.403 C 1016.875 1026.284 1020.802 1025.187 1024.736 1024.099 C 1028.772 1022.979 1032.823 1021.914 1036.89 1020.887 C 1045.763 1018.655 1054.713 1016.758 1063.725 1015.195 C 1074.503 1013.375 1085.366 1012.03 1096.261 1011.175 C 1102.683 1010.662 1109.114 1010.288 1115.553 1010.047 C 1122.808 1009.775 1130.071 1009.643 1137.334 1009.651 L 1137.334 1009.651 L 1137.334 1009.651 L 1137.334 1009.651 L 1137.334 1009.651 L 1137.334 1009.651 L 1137.334 1009.651 L 1137.334 1009.651 L 1137.334 1009.651 L 1137.334 1009.651 L 1137.334 1009.651 L 1137.334 1009.651 L 1137.334 1009.651 L 1137.334 1009.651 L 1137.334 1009.651 L 1137.334 1009.651 L 1137.334 1009.651 L 1137.334 1009.651 L 1137.334 1009.651 L 1137.334 1009.651 L 1137.334 1009.651 L 1137.334 1009.651 L 1137.334 1009.651 Z  M 1137.334 995.452 L 1138.5 995.452 L 1138.5 997.785 L 1137.334 997.785 C 1130.102 997.785 1122.87 997.917 1115.638 998.181 C 1109.239 998.422 1102.839 998.795 1096.447 999.301 C 1085.615 1000.156 1074.83 1001.486 1064.114 1003.306 C 1055.164 1004.845 1046.268 1006.735 1037.458 1008.959 C 1033.414 1009.977 1029.379 1011.043 1025.358 1012.147 C 1021.432 1013.236 1017.505 1014.34 1013.586 1015.452 C 1009.651 1016.571 1005.708 1017.683 1001.766 1018.772 C 997.715 1019.892 993.648 1020.965 989.565 1021.991 C 980.654 1024.231 971.665 1026.144 962.606 1027.699 C 951.758 1029.534 940.833 1030.887 929.861 1031.742 C 923.399 1032.256 916.921 1032.637 910.436 1032.878 L 888.5 1033.274 L 866.626 1032.878 C 866.626 1032.878 866.626 1032.878 866.626 1032.878 C 860.172 1032.637 853.718 1032.264 847.279 1031.75 C 836.369 1030.895 825.506 1029.557 814.713 1027.73 C 805.724 1026.175 796.789 1024.278 787.948 1022.038 C 783.897 1021.012 779.861 1019.946 775.841 1018.826 C 771.929 1017.738 768.018 1016.641 764.114 1015.522 C 760.203 1014.402 756.284 1013.298 752.365 1012.209 C 748.344 1011.089 744.316 1010.024 740.273 1009.005 C 731.439 1006.766 722.528 1004.876 713.554 1003.329 C 702.769 1001.501 691.906 1000.164 681.004 999.309 C 674.55 998.803 668.08 998.422 661.61 998.189 C 654.301 997.917 646.984 997.785 639.666 997.785 L 638.5 997.785 L 638.5 995.452 L 639.666 995.452 C 647.015 995.452 654.355 995.584 661.704 995.856 C 668.205 996.097 674.698 996.47 681.183 996.984 C 692.163 997.847 703.088 999.192 713.943 1001.027 C 722.979 1002.59 731.953 1004.495 740.841 1006.742 C 744.907 1007.769 748.951 1008.842 752.995 1009.962 C 756.914 1011.05 760.841 1012.155 764.752 1013.274 C 768.656 1014.394 772.559 1015.491 776.463 1016.579 C 780.467 1017.691 784.488 1018.757 788.516 1019.775 C 797.302 1021.999 806.175 1023.881 815.11 1025.428 C 825.825 1027.24 836.626 1028.578 847.458 1029.425 C 853.873 1029.931 860.288 1030.304 866.711 1030.545 C 873.974 1030.817 881.237 1030.949 888.5 1030.942 C 895.786 1030.949 903.072 1030.817 910.351 1030.545 C 916.805 1030.304 923.243 1029.931 929.682 1029.417 C 940.576 1028.562 951.432 1027.225 962.209 1025.405 C 971.206 1023.85 980.141 1021.96 988.998 1019.729 C 993.057 1018.702 997.108 1017.637 1001.144 1016.525 C 1005.086 1015.436 1009.021 1014.332 1012.948 1013.212 C 1016.875 1012.092 1020.802 1010.988 1024.736 1009.9 C 1028.772 1008.788 1032.823 1007.714 1036.89 1006.696 C 1045.763 1004.456 1054.713 1002.559 1063.725 1001.004 C 1074.503 999.176 1085.366 997.831 1096.261 996.976 C 1102.683 996.47 1109.114 996.089 1115.553 995.856 C 1122.808 995.584 1130.071 995.452 1137.334 995.452 L 1137.334 995.452 L 1137.334 995.452 L 1137.334 995.452 L 1137.334 995.452 L 1137.334 995.452 L 1137.334 995.452 L 1137.334 995.452 L 1137.334 995.452 L 1137.334 995.452 L 1137.334 995.452 L 1137.334 995.452 L 1137.334 995.452 L 1137.334 995.452 L 1137.334 995.452 L 1137.334 995.452 L 1137.334 995.452 L 1137.334 995.452 L 1137.334 995.452 L 1137.334 995.452 L 1137.334 995.452 L 1137.334 995.452 Z  M 1137.334 1306.494 L 1138.5 1306.494 L 1138.5 1308.827 L 1137.334 1308.827 C 1130.102 1308.827 1122.87 1308.959 1115.638 1309.223 C 1109.239 1309.464 1102.839 1309.837 1096.447 1310.343 C 1085.615 1311.198 1074.83 1312.528 1064.114 1314.348 C 1055.164 1315.887 1046.268 1317.777 1037.458 1320.001 C 1033.414 1321.019 1029.379 1322.085 1025.358 1323.189 C 1021.432 1324.278 1017.505 1325.382 1013.586 1326.494 C 1009.651 1327.613 1005.708 1328.725 1001.766 1329.814 C 997.715 1330.934 993.648 1332.007 989.565 1333.033 C 980.654 1335.273 971.665 1337.186 962.606 1338.741 C 951.758 1340.576 940.833 1341.929 929.861 1342.784 C 923.399 1343.298 916.921 1343.679 910.436 1343.92 L 888.5 1344.316 L 866.626 1343.92 C 866.626 1343.92 866.626 1343.92 866.626 1343.92 C 860.172 1343.679 853.718 1343.306 847.279 1342.792 C 836.369 1341.937 825.506 1340.599 814.713 1338.772 C 805.724 1337.217 796.789 1335.319 787.948 1333.08 C 783.897 1332.054 779.861 1330.988 775.841 1329.868 C 771.929 1328.78 768.018 1327.683 764.114 1326.564 C 760.203 1325.444 756.284 1324.34 752.365 1323.251 C 748.344 1322.131 744.316 1321.066 740.273 1320.047 C 731.439 1317.808 722.528 1315.918 713.554 1314.371 C 702.769 1312.543 691.906 1311.206 681.004 1310.351 C 674.55 1309.845 668.08 1309.464 661.61 1309.231 C 654.301 1308.959 646.984 1308.827 639.666 1308.827 L 638.5 1308.827 L 638.5 1306.494 L 639.666 1306.494 C 647.015 1306.494 654.355 1306.626 661.704 1306.898 C 668.205 1307.139 674.698 1307.512 681.183 1308.026 C 692.163 1308.889 703.088 1310.234 713.943 1312.069 C 722.979 1313.632 731.953 1315.537 740.841 1317.784 C 744.907 1318.811 748.951 1319.884 752.995 1321.004 C 756.914 1322.092 760.841 1323.197 764.752 1324.316 C 768.656 1325.436 772.559 1326.533 776.463 1327.621 C 780.467 1328.733 784.488 1329.799 788.516 1330.817 C 797.302 1333.041 806.175 1334.923 815.11 1336.47 C 825.825 1338.282 836.626 1339.62 847.458 1340.467 C 853.873 1340.973 860.288 1341.346 866.711 1341.587 C 873.974 1341.859 881.237 1341.991 888.5 1341.984 C 895.786 1341.991 903.072 1341.859 910.351 1341.587 C 916.805 1341.346 923.243 1340.973 929.682 1340.459 C 940.576 1339.604 951.432 1338.267 962.209 1336.447 C 971.206 1334.892 980.141 1333.002 988.998 1330.771 C 993.057 1329.744 997.108 1328.679 1001.144 1327.567 C 1005.086 1326.478 1009.021 1325.374 1012.948 1324.254 C 1016.875 1323.134 1020.802 1322.03 1024.736 1320.942 C 1028.772 1319.83 1032.823 1318.756 1036.89 1317.738 C 1045.763 1315.498 1054.713 1313.601 1063.725 1312.046 C 1074.503 1310.218 1085.366 1308.873 1096.261 1308.018 C 1102.683 1307.512 1109.114 1307.131 1115.553 1306.898 C 1122.808 1306.626 1130.071 1306.494 1137.334 1306.494 L 1137.334 1306.494 L 1137.334 1306.494 L 1137.334 1306.494 L 1137.334 1306.494 L 1137.334 1306.494 L 1137.334 1306.494 L 1137.334 1306.494 L 1137.334 1306.494 L 1137.334 1306.494 L 1137.334 1306.494 L 1137.334 1306.494 L 1137.334 1306.494 L 1137.334 1306.494 L 1137.334 1306.494 L 1137.334 1306.494 L 1137.334 1306.494 L 1137.334 1306.494 L 1137.334 1306.494 L 1137.334 1306.494 L 1137.334 1306.494 Z  M 1137.334 954.035 L 1138.5 954.035 L 1138.5 956.367 L 1137.334 956.367 C 1130.102 956.36 1122.87 956.492 1115.638 956.764 C 1109.239 957.005 1102.839 957.378 1096.447 957.884 C 1085.615 958.731 1074.83 960.069 1064.114 961.881 C 1055.164 963.428 1046.268 965.31 1037.458 967.534 C 1033.414 968.552 1029.379 969.618 1025.358 970.73 C 1021.432 971.818 1017.505 972.915 1013.586 974.035 C 1009.651 975.154 1005.708 976.259 1001.766 977.347 C 997.715 978.467 993.648 979.54 989.565 980.567 C 980.654 982.814 971.665 984.719 962.606 986.282 C 951.758 988.117 940.833 989.462 929.861 990.325 C 923.399 990.839 916.921 991.212 910.436 991.453 L 888.5 991.857 L 866.626 991.453 C 866.626 991.453 866.626 991.453 866.626 991.453 C 860.172 991.212 853.718 990.839 847.279 990.333 C 836.369 989.478 825.506 988.133 814.713 986.305 C 805.724 984.75 796.789 982.853 787.948 980.613 C 783.897 979.595 779.861 978.521 775.841 977.409 C 771.929 976.321 768.018 975.217 764.114 974.097 C 760.203 972.977 756.284 971.873 752.365 970.784 C 748.344 969.672 744.316 968.607 740.273 967.58 C 731.439 965.349 722.528 963.451 713.554 961.904 C 702.769 960.084 691.906 958.739 681.004 957.892 C 674.55 957.378 668.08 957.005 661.61 956.764 C 654.301 956.492 646.984 956.36 639.666 956.367 L 638.5 956.367 L 638.5 954.035 L 639.666 954.035 C 647.015 954.027 654.355 954.159 661.704 954.431 C 668.205 954.672 674.698 955.053 681.183 955.567 C 692.163 956.422 703.088 957.767 713.943 959.61 C 722.979 961.165 731.953 963.07 740.841 965.318 C 744.907 966.344 748.951 967.417 752.995 968.537 C 756.914 969.626 760.841 970.738 764.752 971.857 C 768.656 972.969 772.559 974.073 776.463 975.154 C 780.467 976.266 784.488 977.332 788.516 978.35 C 797.302 980.574 806.175 982.464 815.11 984.003 C 825.825 985.823 836.626 987.153 847.458 988 C 853.873 988.514 860.288 988.887 866.711 989.128 C 873.974 989.392 881.237 989.524 888.5 989.524 C 895.786 989.524 903.072 989.392 910.351 989.12 C 916.805 988.879 923.243 988.506 929.682 988 C 940.576 987.145 951.432 985.8 962.209 983.98 C 971.206 982.433 980.141 980.535 988.998 978.304 C 993.057 977.285 997.108 976.212 1001.144 975.1 C 1005.086 974.011 1009.021 972.907 1012.948 971.787 C 1016.875 970.668 1020.802 969.571 1024.736 968.483 C 1028.772 967.363 1032.823 966.297 1036.89 965.271 C 1045.763 963.039 1054.713 961.142 1063.725 959.579 C 1074.503 957.759 1085.366 956.414 1096.261 955.559 C 1102.683 955.045 1109.114 954.672 1115.553 954.431 C 1122.808 954.159 1130.071 954.027 1137.334 954.035 L 1137.334 954.035 L 1137.334 954.035 L 1137.334 954.035 L 1137.334 954.035 L 1137.334 954.035 L 1137.334 954.035 L 1137.334 954.035 L 1137.334 954.035 L 1137.334 954.035 L 1137.334 954.035 L 1137.334 954.035 L 1137.334 954.035 L 1137.334 954.035 L 1137.334 954.035 L 1137.334 954.035 L 1137.334 954.035 L 1137.334 954.035 L 1137.334 954.035 L 1137.334 954.035 Z  M 1137.334 1265.077 L 1138.5 1265.077 L 1138.5 1267.409 L 1137.334 1267.409 C 1130.102 1267.402 1122.87 1267.534 1115.638 1267.806 C 1109.239 1268.047 1102.839 1268.42 1096.447 1268.926 C 1085.615 1269.773 1074.83 1271.111 1064.114 1272.923 C 1055.164 1274.47 1046.268 1276.352 1037.458 1278.576 C 1033.414 1279.594 1029.379 1280.66 1025.358 1281.772 C 1021.432 1282.86 1017.505 1283.957 1013.586 1285.077 C 1009.651 1286.196 1005.708 1287.301 1001.766 1288.389 C 997.715 1289.509 993.648 1290.582 989.565 1291.609 C 980.654 1293.856 971.665 1295.761 962.606 1297.324 C 951.758 1299.159 940.833 1300.504 929.861 1301.367 C 923.399 1301.881 916.921 1302.254 910.436 1302.495 L 888.5 1302.899 L 866.626 1302.495 C 866.626 1302.495 866.626 1302.495 866.626 1302.495 C 860.172 1302.254 853.718 1301.881 847.279 1301.375 C 836.369 1300.52 825.506 1299.175 814.713 1297.347 C 805.724 1295.792 796.789 1293.895 787.948 1291.655 C 783.897 1290.637 779.861 1289.563 775.841 1288.451 C 771.929 1287.363 768.018 1286.259 764.114 1285.139 C 760.203 1284.019 756.284 1282.915 752.365 1281.826 C 748.344 1280.714 744.316 1279.649 740.273 1278.622 C 731.439 1276.391 722.528 1274.493 713.554 1272.946 C 702.769 1271.126 691.906 1269.781 681.004 1268.934 C 674.55 1268.42 668.08 1268.047 661.61 1267.806 C 654.301 1267.534 646.984 1267.402 639.666 1267.409 L 638.5 1267.409 L 638.5 1265.077 L 639.666 1265.077 C 647.015 1265.069 654.355 1265.201 661.704 1265.473 C 668.205 1265.714 674.698 1266.095 681.183 1266.609 C 692.163 1267.464 703.088 1268.809 713.943 1270.652 C 722.979 1272.207 731.953 1274.112 740.841 1276.36 C 744.907 1277.386 748.951 1278.459 752.995 1279.579 C 756.914 1280.668 760.841 1281.78 764.752 1282.899 C 768.656 1284.011 772.559 1285.115 776.463 1286.196 C 780.467 1287.308 784.488 1288.374 788.516 1289.392 C 797.302 1291.616 806.175 1293.506 815.11 1295.045 C 825.825 1296.865 836.626 1298.195 847.458 1299.042 C 853.873 1299.556 860.288 1299.929 866.711 1300.17 C 873.974 1300.434 881.237 1300.566 888.5 1300.566 C 895.786 1300.566 903.072 1300.434 910.351 1300.162 C 916.805 1299.921 923.243 1299.548 929.682 1299.042 C 940.576 1298.187 951.432 1296.842 962.209 1295.022 C 971.206 1293.475 980.141 1291.577 988.998 1289.346 C 993.057 1288.327 997.108 1287.254 1001.144 1286.142 C 1005.086 1285.053 1009.021 1283.949 1012.948 1282.829 C 1016.875 1281.71 1020.802 1280.613 1024.736 1279.525 C 1028.772 1278.405 1032.823 1277.339 1036.89 1276.313 C 1045.763 1274.081 1054.713 1272.184 1063.725 1270.621 C 1074.503 1268.801 1085.366 1267.456 1096.261 1266.601 C 1102.683 1266.087 1109.114 1265.714 1115.553 1265.473 C 1122.808 1265.201 1130.071 1265.069 1137.334 1265.077 L 1137.334 1265.077 L 1137.334 1265.077 L 1137.334 1265.077 L 1137.334 1265.077 L 1137.334 1265.077 L 1137.334 1265.077 L 1137.334 1265.077 L 1137.334 1265.077 L 1137.334 1265.077 L 1137.334 1265.077 L 1137.334 1265.077 L 1137.334 1265.077 L 1137.334 1265.077 L 1137.334 1265.077 L 1137.334 1265.077 L 1137.334 1265.077 L 1137.334 1265.077 L 1137.334 1265.077 Z  M 1137.334 968.231 L 1138.5 968.231 L 1138.5 970.564 L 1137.334 970.564 C 1130.102 970.556 1122.87 970.688 1115.638 970.961 C 1109.239 971.202 1102.839 971.575 1096.447 972.08 C 1085.615 972.928 1074.83 974.265 1064.114 976.077 C 1055.164 977.625 1046.268 979.506 1037.458 981.73 C 1033.414 982.749 1029.379 983.814 1025.358 984.926 C 1021.432 986.015 1017.505 987.111 1013.586 988.231 C 1009.651 989.351 1005.708 990.455 1001.766 991.544 C 997.715 992.663 993.648 993.737 989.565 994.763 C 980.654 997.01 971.665 998.915 962.606 1000.478 C 951.758 1002.314 940.833 1003.659 929.861 1004.522 C 923.399 1005.035 916.921 1005.408 910.436 1005.65 L 888.5 1006.054 L 866.626 1005.65 C 866.626 1005.65 866.626 1005.65 866.626 1005.65 C 860.172 1005.408 853.718 1005.035 847.279 1004.53 C 836.369 1003.674 825.506 1002.329 814.713 1000.502 C 805.724 998.947 796.789 997.049 787.948 994.81 C 783.897 993.791 779.861 992.718 775.841 991.606 C 771.929 990.517 768.018 989.413 764.114 988.293 C 760.203 987.174 756.284 986.069 752.365 984.981 C 748.344 983.869 744.316 982.804 740.273 981.777 C 731.439 979.545 722.528 977.648 713.554 976.101 C 702.769 974.281 691.906 972.936 681.004 972.088 C 674.55 971.575 668.08 971.202 661.61 970.961 C 654.301 970.688 646.984 970.556 639.666 970.564 L 638.5 970.564 L 638.5 968.231 L 639.666 968.231 C 647.015 968.223 654.355 968.356 661.704 968.628 C 668.205 968.869 674.698 969.25 681.183 969.763 C 692.163 970.618 703.088 971.964 713.943 973.807 C 722.979 975.362 731.953 977.267 740.841 979.514 C 744.907 980.541 748.951 981.614 752.995 982.733 C 756.914 983.822 760.841 984.934 764.752 986.054 C 768.656 987.166 772.559 988.27 776.463 989.351 C 780.467 990.463 784.488 991.528 788.516 992.547 C 797.302 994.771 806.175 996.66 815.11 998.2 C 825.825 1000.02 836.626 1001.349 847.458 1002.197 C 853.873 1002.71 860.288 1003.083 866.711 1003.325 C 873.974 1003.589 881.237 1003.721 888.5 1003.721 C 895.786 1003.721 903.072 1003.589 910.351 1003.317 C 916.805 1003.076 923.243 1002.702 929.682 1002.197 C 940.576 1001.342 951.432 999.996 962.209 998.177 C 971.206 996.629 980.141 994.732 988.998 992.5 C 993.057 991.482 997.108 990.408 1001.144 989.296 C 1005.086 988.208 1009.021 987.104 1012.948 985.984 C 1016.875 984.864 1020.802 983.768 1024.736 982.679 C 1028.772 981.559 1032.823 980.494 1036.89 979.468 C 1045.763 977.236 1054.713 975.338 1063.725 973.776 C 1074.503 971.956 1085.366 970.611 1096.261 969.755 C 1102.683 969.242 1109.114 968.869 1115.553 968.628 C 1122.808 968.356 1130.071 968.223 1137.334 968.231 L 1137.334 968.231 L 1137.334 968.231 L 1137.334 968.231 L 1137.334 968.231 L 1137.334 968.231 L 1137.334 968.231 L 1137.334 968.231 L 1137.334 968.231 L 1137.334 968.231 L 1137.334 968.231 L 1137.334 968.231 L 1137.334 968.231 L 1137.334 968.231 L 1137.334 968.231 L 1137.334 968.231 L 1137.334 968.231 L 1137.334 968.231 Z  M 1137.334 1279.273 L 1138.5 1279.273 L 1138.5 1281.606 L 1137.334 1281.606 C 1130.102 1281.598 1122.87 1281.73 1115.638 1282.003 C 1109.239 1282.244 1102.839 1282.617 1096.447 1283.122 C 1085.615 1283.97 1074.83 1285.307 1064.114 1287.119 C 1055.164 1288.667 1046.268 1290.548 1037.458 1292.772 C 1033.414 1293.791 1029.379 1294.856 1025.358 1295.968 C 1021.432 1297.057 1017.505 1298.153 1013.586 1299.273 C 1009.651 1300.393 1005.708 1301.497 1001.766 1302.586 C 997.715 1303.705 993.648 1304.779 989.565 1305.805 C 980.654 1308.052 971.665 1309.957 962.606 1311.52 C 951.758 1313.356 940.833 1314.701 929.861 1315.564 C 923.399 1316.077 916.921 1316.45 910.436 1316.692 L 888.5 1317.096 L 866.626 1316.692 C 866.626 1316.692 866.626 1316.692 866.626 1316.692 C 860.172 1316.45 853.718 1316.077 847.279 1315.572 C 836.369 1314.716 825.506 1313.371 814.713 1311.544 C 805.724 1309.989 796.789 1308.091 787.948 1305.852 C 783.897 1304.833 779.861 1303.76 775.841 1302.648 C 771.929 1301.559 768.018 1300.455 764.114 1299.335 C 760.203 1298.216 756.284 1297.111 752.365 1296.023 C 748.344 1294.911 744.316 1293.845 740.273 1292.819 C 731.439 1290.587 722.528 1288.69 713.554 1287.143 C 702.769 1285.323 691.906 1283.978 681.004 1283.13 C 674.55 1282.617 668.08 1282.244 661.61 1282.003 C 654.301 1281.73 646.984 1281.598 639.666 1281.606 L 638.5 1281.606 L 638.5 1279.273 L 639.666 1279.273 C 647.015 1279.265 654.355 1279.398 661.704 1279.67 C 668.205 1279.911 674.698 1280.292 681.183 1280.805 C 692.163 1281.66 703.088 1283.006 713.943 1284.849 C 722.979 1286.404 731.953 1288.309 740.841 1290.556 C 744.907 1291.583 748.951 1292.656 752.995 1293.775 C 756.914 1294.864 760.841 1295.976 764.752 1297.096 C 768.656 1298.208 772.559 1299.312 776.463 1300.393 C 780.467 1301.505 784.488 1302.57 788.516 1303.589 C 797.302 1305.813 806.175 1307.702 815.11 1309.242 C 825.825 1311.062 836.626 1312.391 847.458 1313.239 C 853.873 1313.752 860.288 1314.125 866.711 1314.367 C 873.974 1314.631 881.237 1314.763 888.5 1314.763 C 895.786 1314.763 903.072 1314.631 910.351 1314.359 C 916.805 1314.118 923.243 1313.744 929.682 1313.239 C 940.576 1312.384 951.432 1311.038 962.209 1309.219 C 971.206 1307.671 980.141 1305.774 988.998 1303.542 C 993.057 1302.524 997.108 1301.45 1001.144 1300.338 C 1005.086 1299.25 1009.021 1298.146 1012.948 1297.026 C 1016.875 1295.906 1020.802 1294.81 1024.736 1293.721 C 1028.772 1292.601 1032.823 1291.536 1036.89 1290.51 C 1045.763 1288.278 1054.713 1286.38 1063.725 1284.818 C 1074.503 1282.998 1085.366 1281.653 1096.261 1280.797 C 1102.683 1280.284 1109.114 1279.911 1115.553 1279.67 C 1122.808 1279.398 1130.071 1279.265 1137.334 1279.273 L 1137.334 1279.273 L 1137.334 1279.273 L 1137.334 1279.273 L 1137.334 1279.273 L 1137.334 1279.273 L 1137.334 1279.273 L 1137.334 1279.273 L 1137.334 1279.273 L 1137.334 1279.273 L 1137.334 1279.273 L 1137.334 1279.273 L 1137.334 1279.273 L 1137.334 1279.273 L 1137.334 1279.273 L 1137.334 1279.273 L 1137.334 1279.273 Z  M 1137.334 982.427 L 1138.5 982.427 L 1138.5 984.76 L 1137.334 984.76 C 1130.102 984.752 1122.87 984.884 1115.638 985.156 C 1109.239 985.397 1102.839 985.77 1096.447 986.276 C 1085.615 987.131 1074.83 988.461 1064.114 990.281 C 1055.164 991.82 1046.268 993.71 1037.458 995.934 C 1033.414 996.952 1029.379 998.018 1025.358 999.122 C 1021.432 1000.211 1017.505 1001.307 1013.586 1002.427 C 1009.651 1003.547 1005.708 1004.651 1001.766 1005.747 C 997.715 1006.867 993.648 1007.932 989.565 1008.959 C 980.654 1011.206 971.665 1013.111 962.606 1014.674 C 951.758 1016.509 940.833 1017.862 929.861 1018.718 C 923.399 1019.231 916.921 1019.604 910.436 1019.853 L 888.5 1020.249 L 866.626 1019.853 C 866.626 1019.853 866.626 1019.853 866.626 1019.853 C 860.172 1019.612 853.718 1019.239 847.279 1018.725 C 836.369 1017.87 825.506 1016.525 814.713 1014.697 C 805.724 1013.15 796.789 1011.245 787.948 1009.005 C 783.897 1007.987 779.861 1006.914 775.841 1005.802 C 771.929 1004.713 768.018 1003.609 764.114 1002.497 C 760.203 1001.377 756.284 1000.273 752.365 999.184 C 748.344 998.064 744.316 996.999 740.273 995.98 C 731.439 993.741 722.528 991.851 713.554 990.304 C 702.769 988.477 691.906 987.139 681.004 986.284 C 674.55 985.778 668.08 985.397 661.61 985.156 C 654.301 984.892 646.984 984.752 639.666 984.76 L 638.5 984.76 L 638.5 982.427 L 639.666 982.427 C 647.015 982.419 654.355 982.559 661.704 982.831 C 668.205 983.072 674.698 983.445 681.183 983.959 C 692.163 984.814 703.088 986.167 713.943 988.002 C 722.979 989.557 731.953 991.47 740.841 993.718 C 744.907 994.744 748.951 995.817 752.995 996.937 C 756.914 998.026 760.841 999.13 764.752 1000.249 C 768.656 1001.369 772.559 1002.466 776.463 1003.554 C 780.467 1004.666 784.488 1005.732 788.516 1006.75 C 797.302 1008.974 806.175 1010.856 815.11 1012.403 C 825.825 1014.215 836.626 1015.553 847.458 1016.4 C 853.873 1016.906 860.288 1017.279 866.711 1017.52 L 888.5 1017.917 L 910.351 1017.52 C 916.805 1017.279 923.243 1016.906 929.682 1016.393 C 940.576 1015.537 951.432 1014.2 962.209 1012.372 C 971.206 1010.825 980.141 1008.928 988.998 1006.696 C 993.057 1005.677 997.108 1004.612 1001.144 1003.492 C 1005.086 1002.403 1009.021 1001.307 1012.948 1000.187 C 1016.875 999.068 1020.802 997.963 1024.736 996.875 C 1028.772 995.763 1032.823 994.69 1036.89 993.671 C 1045.763 991.431 1054.713 989.534 1063.725 987.979 C 1074.503 986.152 1085.366 984.806 1096.261 983.951 C 1102.683 983.445 1109.114 983.064 1115.553 982.823 C 1122.808 982.559 1130.071 982.419 1137.334 982.427 L 1137.334 982.427 L 1137.334 982.427 L 1137.334 982.427 L 1137.334 982.427 L 1137.334 982.427 L 1137.334 982.427 L 1137.334 982.427 L 1137.334 982.427 L 1137.334 982.427 L 1137.334 982.427 L 1137.334 982.427 L 1137.334 982.427 L 1137.334 982.427 L 1137.334 982.427 L 1137.334 982.427 Z  M 1137.334 1293.469 L 1138.5 1293.469 L 1138.5 1295.802 L 1137.334 1295.802 C 1130.102 1295.794 1122.87 1295.926 1115.638 1296.198 C 1109.239 1296.439 1102.839 1296.812 1096.447 1297.318 C 1085.615 1298.173 1074.83 1299.503 1064.114 1301.323 C 1055.164 1302.862 1046.268 1304.752 1037.458 1306.976 C 1033.414 1307.994 1029.379 1309.06 1025.358 1310.164 C 1021.432 1311.253 1017.505 1312.349 1013.586 1313.469 C 1009.651 1314.589 1005.708 1315.693 1001.766 1316.789 C 997.715 1317.909 993.648 1318.974 989.565 1320.001 C 980.654 1322.248 971.665 1324.153 962.606 1325.716 C 951.758 1327.551 940.833 1328.904 929.861 1329.76 C 923.399 1330.273 916.921 1330.646 910.436 1330.895 L 888.5 1331.291 L 866.626 1330.895 C 866.626 1330.895 866.626 1330.895 866.626 1330.895 C 860.172 1330.654 853.718 1330.281 847.279 1329.767 C 836.369 1328.912 825.506 1327.567 814.713 1325.739 C 805.724 1324.192 796.789 1322.287 787.948 1320.047 C 783.897 1319.029 779.861 1317.956 775.841 1316.844 C 771.929 1315.755 768.018 1314.651 764.114 1313.539 C 760.203 1312.419 756.284 1311.315 752.365 1310.226 C 748.344 1309.106 744.316 1308.041 740.273 1307.022 C 731.439 1304.783 722.528 1302.893 713.554 1301.346 C 702.769 1299.519 691.906 1298.181 681.004 1297.326 C 674.55 1296.82 668.08 1296.439 661.61 1296.198 C 654.301 1295.934 646.984 1295.794 639.666 1295.802 L 638.5 1295.802 L 638.5 1293.469 L 639.666 1293.469 C 647.015 1293.461 654.355 1293.601 661.704 1293.873 C 668.205 1294.114 674.698 1294.487 681.183 1295.001 C 692.163 1295.856 703.088 1297.209 713.943 1299.044 C 722.979 1300.599 731.953 1302.512 740.841 1304.76 C 744.907 1305.786 748.951 1306.859 752.995 1307.979 C 756.914 1309.068 760.841 1310.172 764.752 1311.291 C 768.656 1312.411 772.559 1313.508 776.463 1314.596 C 780.467 1315.708 784.488 1316.774 788.516 1317.792 C 797.302 1320.016 806.175 1321.898 815.11 1323.445 C 825.825 1325.257 836.626 1326.595 847.458 1327.442 C 853.873 1327.948 860.288 1328.321 866.711 1328.562 L 888.5 1328.959 L 910.351 1328.562 C 916.805 1328.321 923.243 1327.948 929.682 1327.435 C 940.576 1326.579 951.432 1325.242 962.209 1323.414 C 971.206 1321.867 980.141 1319.97 988.998 1317.738 C 993.057 1316.719 997.108 1315.654 1001.144 1314.534 C 1005.086 1313.445 1009.021 1312.349 1012.948 1311.229 C 1016.875 1310.11 1020.802 1309.005 1024.736 1307.917 C 1028.772 1306.805 1032.823 1305.732 1036.89 1304.713 C 1045.763 1302.473 1054.713 1300.576 1063.725 1299.021 C 1074.503 1297.194 1085.366 1295.848 1096.261 1294.993 C 1102.683 1294.487 1109.114 1294.106 1115.553 1293.865 C 1122.808 1293.601 1130.071 1293.461 1137.334 1293.469 L 1137.334 1293.469 L 1137.334 1293.469 L 1137.334 1293.469 L 1137.334 1293.469 L 1137.334 1293.469 L 1137.334 1293.469 L 1137.334 1293.469 L 1137.334 1293.469 L 1137.334 1293.469 L 1137.334 1293.469 L 1137.334 1293.469 L 1137.334 1293.469 L 1137.334 1293.469 L 1137.334 1293.469 Z  M 1137.334 938.671 L 1138.5 938.671 L 1138.5 941.004 L 1137.334 941.004 C 1130.102 941.004 1122.87 941.136 1115.638 941.4 C 1109.239 941.641 1102.839 942.015 1096.447 942.52 C 1085.615 943.376 1074.83 944.705 1064.114 946.525 C 1055.164 948.064 1046.268 949.954 1037.458 952.178 C 1033.414 953.197 1029.379 954.262 1025.358 955.366 C 1021.432 956.455 1017.505 957.551 1013.586 958.671 C 1009.651 959.791 1005.708 960.895 1001.766 961.991 C 997.715 963.111 993.648 964.176 989.565 965.203 C 980.654 967.45 971.665 969.355 962.606 970.918 C 951.758 972.753 940.833 974.106 929.861 974.962 C 923.399 975.475 916.921 975.848 910.436 976.097 C 903.127 976.369 895.817 976.501 888.5 976.494 C 881.206 976.501 873.912 976.369 866.626 976.097 C 860.172 975.856 853.718 975.483 847.279 974.97 C 836.369 974.114 825.506 972.769 814.713 970.942 C 805.724 969.394 796.789 967.489 787.948 965.25 C 783.897 964.231 779.861 963.158 775.841 962.046 C 771.929 960.957 768.018 959.853 764.114 958.741 C 760.203 957.621 756.284 956.517 752.365 955.428 C 748.344 954.309 744.316 953.243 740.273 952.225 C 731.439 949.985 722.528 948.096 713.554 946.548 C 702.769 944.721 691.906 943.383 681.004 942.528 C 674.55 942.022 668.08 941.641 661.61 941.4 C 654.301 941.136 646.984 940.996 639.666 941.004 L 638.5 941.004 L 638.5 938.671 L 639.666 938.671 C 647.015 938.663 654.355 938.803 661.704 939.075 C 668.205 939.316 674.698 939.69 681.183 940.203 C 692.163 941.058 703.088 942.411 713.943 944.246 C 722.979 945.802 731.953 947.715 740.841 949.962 C 744.907 950.988 748.951 952.061 752.995 953.181 C 756.914 954.27 760.841 955.374 764.752 956.494 C 768.656 957.613 772.559 958.71 776.463 959.799 C 780.467 960.91 784.488 961.976 788.516 962.994 C 797.302 965.218 806.175 967.1 815.11 968.648 C 825.825 970.459 836.626 971.797 847.458 972.645 C 853.873 973.15 860.288 973.523 866.711 973.764 C 873.974 974.036 881.237 974.169 888.5 974.161 C 895.786 974.169 903.072 974.036 910.351 973.764 C 916.805 973.523 923.243 973.15 929.682 972.637 C 940.576 971.781 951.432 970.444 962.209 968.617 C 971.206 967.069 980.141 965.18 988.998 962.948 C 993.057 961.921 997.108 960.856 1001.144 959.736 C 1005.086 958.655 1009.021 957.551 1012.948 956.431 C 1016.875 955.312 1020.802 954.208 1024.736 953.119 C 1028.772 952.007 1032.823 950.934 1036.89 949.915 C 1045.763 947.676 1054.713 945.778 1063.725 944.223 C 1074.503 942.396 1085.366 941.05 1096.261 940.195 C 1102.683 939.69 1109.114 939.309 1115.553 939.068 C 1122.808 938.803 1130.071 938.671 1137.334 938.671 L 1137.334 938.671 L 1137.334 938.671 L 1137.334 938.671 L 1137.334 938.671 L 1137.334 938.671 L 1137.334 938.671 L 1137.334 938.671 L 1137.334 938.671 L 1137.334 938.671 L 1137.334 938.671 L 1137.334 938.671 L 1137.334 938.671 L 1137.334 938.671 Z  M 1137.334 1249.713 L 1138.5 1249.713 L 1138.5 1252.046 L 1137.334 1252.046 C 1130.102 1252.046 1122.87 1252.178 1115.638 1252.442 C 1109.239 1252.683 1102.839 1253.057 1096.447 1253.562 C 1085.615 1254.417 1074.83 1255.747 1064.114 1257.567 C 1055.164 1259.106 1046.268 1260.996 1037.458 1263.22 C 1033.414 1264.239 1029.379 1265.304 1025.358 1266.408 C 1021.432 1267.497 1017.505 1268.593 1013.586 1269.713 C 1009.651 1270.833 1005.708 1271.937 1001.766 1273.033 C 997.715 1274.153 993.648 1275.218 989.565 1276.245 C 980.654 1278.492 971.665 1280.397 962.606 1281.96 C 951.758 1283.795 940.833 1285.148 929.861 1286.004 C 923.399 1286.517 916.921 1286.89 910.436 1287.139 C 903.127 1287.411 895.817 1287.543 888.5 1287.536 C 881.206 1287.543 873.912 1287.411 866.626 1287.139 C 860.172 1286.898 853.718 1286.525 847.279 1286.012 C 836.369 1285.156 825.506 1283.811 814.713 1281.984 C 805.724 1280.436 796.789 1278.531 787.948 1276.292 C 783.897 1275.273 779.861 1274.2 775.841 1273.088 C 771.929 1271.999 768.018 1270.895 764.114 1269.783 C 760.203 1268.663 756.284 1267.559 752.365 1266.47 C 748.344 1265.351 744.316 1264.285 740.273 1263.267 C 731.439 1261.027 722.528 1259.138 713.554 1257.59 C 702.769 1255.763 691.906 1254.425 681.004 1253.57 C 674.55 1253.064 668.08 1252.683 661.61 1252.442 C 654.301 1252.178 646.984 1252.038 639.666 1252.046 L 638.5 1252.046 L 638.5 1249.713 L 639.666 1249.713 C 647.015 1249.705 654.355 1249.845 661.704 1250.117 C 668.205 1250.358 674.698 1250.732 681.183 1251.245 C 692.163 1252.1 703.088 1253.453 713.943 1255.288 C 722.979 1256.844 731.953 1258.756 740.841 1261.004 C 744.907 1262.03 748.951 1263.103 752.995 1264.223 C 756.914 1265.312 760.841 1266.416 764.752 1267.536 C 768.656 1268.655 772.559 1269.752 776.463 1270.841 C 780.467 1271.952 784.488 1273.018 788.516 1274.036 C 797.302 1276.26 806.175 1278.142 815.11 1279.69 C 825.825 1281.501 836.626 1282.839 847.458 1283.687 C 853.873 1284.192 860.288 1284.565 866.711 1284.806 C 873.974 1285.078 881.237 1285.211 888.5 1285.203 C 895.786 1285.211 903.072 1285.078 910.351 1284.806 C 916.805 1284.565 923.243 1284.192 929.682 1283.679 C 940.576 1282.823 951.432 1281.486 962.209 1279.659 C 971.206 1278.111 980.141 1276.222 988.998 1273.99 C 993.057 1272.963 997.108 1271.898 1001.144 1270.778 C 1005.086 1269.697 1009.021 1268.593 1012.948 1267.473 C 1016.875 1266.354 1020.802 1265.25 1024.736 1264.161 C 1028.772 1263.049 1032.823 1261.976 1036.89 1260.957 C 1045.763 1258.718 1054.713 1256.82 1063.725 1255.265 C 1074.503 1253.438 1085.366 1252.092 1096.261 1251.237 C 1102.683 1250.732 1109.114 1250.351 1115.553 1250.11 C 1122.808 1249.845 1130.071 1249.713 1137.334 1249.713 L 1137.334 1249.713 L 1137.334 1249.713 L 1137.334 1249.713 L 1137.334 1249.713 L 1137.334 1249.713 L 1137.334 1249.713 L 1137.334 1249.713 L 1137.334 1249.713 L 1137.334 1249.713 L 1137.334 1249.713 L 1137.334 1249.713 L 1137.334 1249.713 Z  M 1137.334 924.48 L 1138.5 924.48 L 1138.5 926.813 L 1137.334 926.813 C 1130.102 926.805 1122.87 926.937 1115.638 927.209 C 1109.239 927.442 1102.839 927.823 1096.447 928.329 C 1085.615 929.176 1074.83 930.514 1064.114 932.326 C 1055.164 933.873 1046.268 935.755 1037.458 937.979 C 1033.414 938.998 1029.379 940.063 1025.358 941.175 C 1021.432 942.256 1017.505 943.36 1013.586 944.48 C 1009.651 945.599 1005.708 946.704 1001.766 947.792 C 997.715 948.912 993.648 949.985 989.565 951.012 C 980.654 953.259 971.665 955.164 962.606 956.727 C 951.758 958.562 940.833 959.907 929.861 960.763 C 923.399 961.276 916.921 961.657 910.436 961.898 C 903.127 962.17 895.817 962.302 888.5 962.295 C 881.206 962.302 873.912 962.17 866.626 961.898 C 860.172 961.657 853.718 961.284 847.279 960.771 C 836.369 959.923 825.506 958.578 814.713 956.75 C 805.724 955.195 796.789 953.298 787.948 951.058 C 783.897 950.032 779.861 948.966 775.841 947.847 C 771.929 946.766 768.018 945.662 764.114 944.542 C 760.203 943.422 756.284 942.318 752.365 941.229 C 748.344 940.117 744.316 939.044 740.273 938.026 C 731.439 935.794 722.528 933.896 713.554 932.349 C 702.769 930.529 691.906 929.184 681.004 928.337 C 674.55 927.823 668.08 927.45 661.61 927.209 C 654.301 926.937 646.984 926.805 639.666 926.813 L 638.5 926.813 L 638.5 924.48 L 639.666 924.48 C 647.015 924.472 654.355 924.604 661.704 924.876 C 668.205 925.117 674.698 925.498 681.183 926.012 C 692.163 926.867 703.088 928.212 713.943 930.055 C 722.979 931.61 731.953 933.515 740.841 935.763 C 744.907 936.789 748.951 937.862 752.995 938.982 C 756.914 940.071 760.841 941.175 764.752 942.302 C 768.656 943.414 772.559 944.519 776.463 945.599 C 780.467 946.711 784.488 947.777 788.516 948.795 C 797.302 951.019 806.175 952.909 815.11 954.449 C 825.825 956.268 836.626 957.598 847.458 958.445 C 853.873 958.959 860.288 959.332 866.711 959.565 L 888.5 959.962 L 910.351 959.565 C 916.805 959.324 923.243 958.951 929.682 958.438 C 940.576 957.59 951.432 956.245 962.209 954.425 C 971.206 952.87 980.141 950.98 988.998 948.749 C 993.057 947.73 997.108 946.657 1001.144 945.545 C 1005.086 944.456 1009.021 943.352 1012.948 942.232 C 1016.875 941.113 1020.802 940.008 1024.736 938.928 C 1028.772 937.808 1032.823 936.743 1036.89 935.716 C 1045.763 933.484 1054.713 931.579 1063.725 930.024 C 1074.503 928.197 1085.366 926.859 1096.261 926.004 C 1102.683 925.491 1109.114 925.117 1115.553 924.876 C 1122.808 924.604 1130.071 924.472 1137.334 924.48 L 1137.334 924.48 L 1137.334 924.48 L 1137.334 924.48 L 1137.334 924.48 L 1137.334 924.48 L 1137.334 924.48 L 1137.334 924.48 L 1137.334 924.48 L 1137.334 924.48 L 1137.334 924.48 L 1137.334 924.48 Z  M 1137.334 1235.522 L 1138.5 1235.522 L 1138.5 1237.855 L 1137.334 1237.855 C 1130.102 1237.847 1122.87 1237.979 1115.638 1238.251 C 1109.239 1238.484 1102.839 1238.865 1096.447 1239.371 C 1085.615 1240.218 1074.83 1241.556 1064.114 1243.368 C 1055.164 1244.915 1046.268 1246.797 1037.458 1249.021 C 1033.414 1250.04 1029.379 1251.105 1025.358 1252.217 C 1021.432 1253.298 1017.505 1254.402 1013.586 1255.522 C 1009.651 1256.641 1005.708 1257.746 1001.766 1258.834 C 997.715 1259.954 993.648 1261.027 989.565 1262.054 C 980.654 1264.301 971.665 1266.206 962.606 1267.769 C 951.758 1269.604 940.833 1270.949 929.861 1271.805 C 923.399 1272.318 916.921 1272.699 910.436 1272.94 C 903.127 1273.212 895.817 1273.344 888.5 1273.337 C 881.206 1273.344 873.912 1273.212 866.626 1272.94 C 860.172 1272.699 853.718 1272.326 847.279 1271.813 C 836.369 1270.965 825.506 1269.62 814.713 1267.792 C 805.724 1266.237 796.789 1264.34 787.948 1262.1 C 783.897 1261.074 779.861 1260.008 775.841 1258.889 C 771.929 1257.808 768.018 1256.704 764.114 1255.584 C 760.203 1254.464 756.284 1253.36 752.365 1252.271 C 748.344 1251.159 744.316 1250.086 740.273 1249.068 C 731.439 1246.836 722.528 1244.938 713.554 1243.391 C 702.769 1241.571 691.906 1240.226 681.004 1239.379 C 674.55 1238.865 668.08 1238.492 661.61 1238.251 C 654.301 1237.979 646.984 1237.847 639.666 1237.855 L 638.5 1237.855 L 638.5 1235.522 L 639.666 1235.522 C 647.015 1235.514 654.355 1235.646 661.704 1235.918 C 668.205 1236.159 674.698 1236.54 681.183 1237.054 C 692.163 1237.909 703.088 1239.254 713.943 1241.097 C 722.979 1242.652 731.953 1244.557 740.841 1246.805 C 744.907 1247.831 748.951 1248.904 752.995 1250.024 C 756.914 1251.113 760.841 1252.217 764.752 1253.344 C 768.656 1254.456 772.559 1255.561 776.463 1256.641 C 780.467 1257.753 784.488 1258.819 788.516 1259.837 C 797.302 1262.061 806.175 1263.951 815.11 1265.491 C 825.825 1267.31 836.626 1268.64 847.458 1269.487 C 853.873 1270.001 860.288 1270.374 866.711 1270.607 L 888.5 1271.004 L 910.351 1270.607 C 916.805 1270.366 923.243 1269.993 929.682 1269.48 C 940.576 1268.632 951.432 1267.287 962.209 1265.467 C 971.206 1263.912 980.141 1262.022 988.998 1259.791 C 993.057 1258.772 997.108 1257.699 1001.144 1256.587 C 1005.086 1255.498 1009.021 1254.394 1012.948 1253.274 C 1016.875 1252.155 1020.802 1251.05 1024.736 1249.97 C 1028.772 1248.85 1032.823 1247.785 1036.89 1246.758 C 1045.763 1244.526 1054.713 1242.621 1063.725 1241.066 C 1074.503 1239.239 1085.366 1237.901 1096.261 1237.046 C 1102.683 1236.533 1109.114 1236.159 1115.553 1235.918 C 1122.808 1235.646 1130.071 1235.514 1137.334 1235.522 L 1137.334 1235.522 L 1137.334 1235.522 L 1137.334 1235.522 L 1137.334 1235.522 L 1137.334 1235.522 L 1137.334 1235.522 L 1137.334 1235.522 L 1137.334 1235.522 L 1137.334 1235.522 L 1137.334 1235.522 Z  M 1137.334 910.281 L 1138.5 910.281 L 1138.5 912.613 L 1137.334 912.613 C 1130.102 912.606 1122.87 912.738 1115.638 913.01 C 1109.239 913.251 1102.839 913.624 1096.447 914.13 C 1085.615 914.985 1074.83 916.315 1064.114 918.127 C 1055.164 919.674 1046.268 921.564 1037.458 923.788 C 1033.414 924.806 1029.379 925.864 1025.358 926.976 C 1021.432 928.064 1017.505 929.161 1013.586 930.281 C 1009.651 931.4 1005.708 932.505 1001.766 933.601 C 997.715 934.713 993.648 935.786 989.565 936.813 C 980.654 939.06 971.665 940.965 962.606 942.528 C 951.758 944.363 940.833 945.708 929.861 946.571 C 923.399 947.085 916.921 947.458 910.436 947.699 C 903.127 947.971 895.817 948.111 888.5 948.103 C 881.206 948.111 873.912 947.979 866.626 947.707 C 860.172 947.466 853.718 947.092 847.279 946.579 C 836.369 945.724 825.506 944.379 814.713 942.551 C 805.724 941.004 796.789 939.099 787.948 936.859 C 783.897 935.841 779.861 934.767 775.841 933.655 C 771.929 932.567 768.018 931.463 764.114 930.351 C 760.203 929.231 756.284 928.127 752.365 927.038 C 748.344 925.918 744.316 924.853 740.273 923.834 C 731.439 921.595 722.528 919.705 713.554 918.158 C 702.769 916.33 691.906 914.993 681.004 914.138 C 674.55 913.632 668.08 913.251 661.61 913.01 C 654.301 912.746 646.984 912.606 639.666 912.613 L 638.5 912.613 L 638.5 910.281 L 639.666 910.281 C 647.015 910.273 654.355 910.413 661.704 910.685 C 668.205 910.926 674.698 911.299 681.183 911.812 C 692.163 912.668 703.088 914.021 713.943 915.856 C 722.979 917.411 731.953 919.324 740.841 921.571 C 744.907 922.598 748.951 923.671 752.995 924.791 C 756.914 925.879 760.841 926.984 764.752 928.103 C 768.656 929.223 772.559 930.319 776.463 931.408 C 780.467 932.52 784.488 933.585 788.516 934.604 C 797.302 936.828 806.175 938.71 815.11 940.257 C 825.825 942.069 836.626 943.407 847.458 944.254 C 853.873 944.76 860.288 945.133 866.711 945.374 C 873.974 945.646 881.237 945.778 888.5 945.77 C 895.786 945.778 903.072 945.646 910.351 945.374 C 916.805 945.133 923.243 944.752 929.682 944.246 C 940.576 943.391 951.432 942.054 962.209 940.226 C 971.206 938.679 980.141 936.781 988.998 934.55 C 993.057 933.531 997.108 932.466 1001.144 931.346 C 1005.086 930.257 1009.021 929.153 1012.948 928.033 C 1016.875 926.921 1020.802 925.817 1024.736 924.729 C 1028.772 923.617 1032.823 922.543 1036.89 921.525 C 1045.763 919.285 1054.713 917.388 1063.725 915.833 C 1074.503 914.005 1085.366 912.66 1096.261 911.805 C 1102.683 911.299 1109.114 910.918 1115.553 910.677 C 1122.808 910.413 1130.071 910.273 1137.334 910.281 L 1137.334 910.281 L 1137.334 910.281 L 1137.334 910.281 L 1137.334 910.281 L 1137.334 910.281 L 1137.334 910.281 L 1137.334 910.281 L 1137.334 910.281 L 1137.334 910.281 Z  M 1137.334 1221.323 L 1138.5 1221.323 L 1138.5 1223.655 L 1137.334 1223.655 C 1130.102 1223.648 1122.87 1223.78 1115.638 1224.052 C 1109.239 1224.293 1102.839 1224.666 1096.447 1225.172 C 1085.615 1226.027 1074.83 1227.357 1064.114 1229.169 C 1055.164 1230.716 1046.268 1232.606 1037.458 1234.83 C 1033.414 1235.848 1029.379 1236.906 1025.358 1238.018 C 1021.432 1239.106 1017.505 1240.203 1013.586 1241.323 C 1009.651 1242.442 1005.708 1243.547 1001.766 1244.643 C 997.715 1245.755 993.648 1246.828 989.565 1247.855 C 980.654 1250.102 971.665 1252.007 962.606 1253.57 C 951.758 1255.405 940.833 1256.75 929.861 1257.613 C 923.399 1258.127 916.921 1258.5 910.436 1258.741 C 903.127 1259.013 895.817 1259.153 888.5 1259.145 C 881.206 1259.153 873.912 1259.021 866.626 1258.749 C 860.172 1258.508 853.718 1258.134 847.279 1257.621 C 836.369 1256.766 825.506 1255.421 814.713 1253.593 C 805.724 1252.046 796.789 1250.141 787.948 1247.901 C 783.897 1246.883 779.861 1245.809 775.841 1244.697 C 771.929 1243.609 768.018 1242.505 764.114 1241.393 C 760.203 1240.273 756.284 1239.169 752.365 1238.08 C 748.344 1236.96 744.316 1235.895 740.273 1234.876 C 731.439 1232.637 722.528 1230.747 713.554 1229.2 C 702.769 1227.372 691.906 1226.035 681.004 1225.18 C 674.55 1224.674 668.08 1224.293 661.61 1224.052 C 654.301 1223.788 646.984 1223.648 639.666 1223.655 L 638.5 1223.655 L 638.5 1221.323 L 639.666 1221.323 C 647.015 1221.315 654.355 1221.455 661.704 1221.727 C 668.205 1221.968 674.698 1222.341 681.183 1222.854 C 692.163 1223.71 703.088 1225.063 713.943 1226.898 C 722.979 1228.453 731.953 1230.366 740.841 1232.613 C 744.907 1233.64 748.951 1234.713 752.995 1235.833 C 756.914 1236.921 760.841 1238.026 764.752 1239.145 C 768.656 1240.265 772.559 1241.361 776.463 1242.45 C 780.467 1243.562 784.488 1244.627 788.516 1245.646 C 797.302 1247.87 806.175 1249.752 815.11 1251.299 C 825.825 1253.111 836.626 1254.449 847.458 1255.296 C 853.873 1255.802 860.288 1256.175 866.711 1256.416 C 873.974 1256.688 881.237 1256.82 888.5 1256.812 C 895.786 1256.82 903.072 1256.688 910.351 1256.416 C 916.805 1256.175 923.243 1255.794 929.682 1255.288 C 940.576 1254.433 951.432 1253.096 962.209 1251.268 C 971.206 1249.721 980.141 1247.823 988.998 1245.592 C 993.057 1244.573 997.108 1243.508 1001.144 1242.388 C 1005.086 1241.299 1009.021 1240.195 1012.948 1239.075 C 1016.875 1237.963 1020.802 1236.859 1024.736 1235.77 C 1028.772 1234.659 1032.823 1233.585 1036.89 1232.567 C 1045.763 1230.327 1054.713 1228.43 1063.725 1226.875 C 1074.503 1225.047 1085.366 1223.702 1096.261 1222.847 C 1102.683 1222.341 1109.114 1221.96 1115.553 1221.719 C 1122.808 1221.455 1130.071 1221.315 1137.334 1221.323 L 1137.334 1221.323 L 1137.334 1221.323 L 1137.334 1221.323 L 1137.334 1221.323 L 1137.334 1221.323 L 1137.334 1221.323 L 1137.334 1221.323 L 1137.334 1221.323 Z  M 1137.334 896.089 L 1138.5 896.089 L 1138.5 898.422 L 1137.334 898.422 C 1130.102 898.414 1122.87 898.547 1115.638 898.819 C 1109.239 899.052 1102.839 899.425 1096.447 899.938 C 1085.615 900.786 1074.83 902.124 1064.114 903.935 C 1055.164 905.483 1046.268 907.365 1037.458 909.589 C 1033.414 910.607 1029.379 911.673 1025.358 912.785 C 1021.432 913.865 1017.505 914.97 1013.586 916.082 C 1009.651 917.209 1005.708 918.313 1001.766 919.402 C 997.715 920.522 993.648 921.595 989.565 922.621 C 980.654 924.869 971.665 926.774 962.606 928.337 C 951.758 930.164 940.833 931.517 929.861 932.372 C 923.399 932.886 916.921 933.267 910.436 933.508 C 903.127 933.78 895.817 933.912 888.5 933.904 C 881.206 933.912 873.912 933.78 866.626 933.508 C 860.172 933.267 853.718 932.893 847.279 932.38 C 836.369 931.533 825.506 930.187 814.713 928.36 C 805.724 926.805 796.789 924.907 787.948 922.668 C 783.897 921.641 779.861 920.576 775.841 919.456 C 771.929 918.375 768.018 917.271 764.114 916.152 C 760.203 915.032 756.284 913.928 752.365 912.839 C 748.344 911.727 744.316 910.654 740.273 909.635 C 731.439 907.403 722.528 905.506 713.554 903.959 C 702.769 902.131 691.906 900.794 681.004 899.946 C 674.55 899.433 668.08 899.06 661.61 898.819 C 654.301 898.547 646.984 898.414 639.666 898.422 L 638.5 898.422 L 638.5 896.089 L 639.666 896.089 C 647.015 896.082 654.355 896.214 661.704 896.486 C 668.205 896.727 674.698 897.108 681.183 897.621 C 692.163 898.477 703.088 899.822 713.943 901.657 C 722.979 903.22 731.953 905.125 740.841 907.372 C 744.907 908.399 748.951 909.472 752.995 910.592 C 756.914 911.68 760.841 912.785 764.752 913.912 C 768.656 915.024 772.559 916.128 776.463 917.209 C 780.467 918.321 784.488 919.386 788.516 920.405 C 797.302 922.629 806.175 924.519 815.11 926.058 C 825.825 927.878 836.626 929.208 847.458 930.055 C 853.873 930.568 860.288 930.942 866.711 931.175 C 873.974 931.447 881.237 931.579 888.5 931.571 C 895.786 931.579 903.072 931.447 910.351 931.175 C 916.805 930.934 923.243 930.561 929.682 930.047 C 940.576 929.2 951.432 927.854 962.209 926.035 C 971.206 924.48 980.141 922.59 988.998 920.358 C 993.057 919.34 997.108 918.267 1001.144 917.155 C 1005.086 916.066 1009.021 914.962 1012.948 913.842 C 1016.875 912.722 1020.802 911.618 1024.736 910.537 C 1028.772 909.417 1032.823 908.352 1036.89 907.326 C 1045.763 905.086 1054.713 903.189 1063.725 901.634 C 1074.503 899.806 1085.366 898.469 1096.261 897.613 C 1102.683 897.1 1109.114 896.727 1115.553 896.486 C 1122.808 896.214 1130.071 896.082 1137.334 896.089 L 1137.334 896.089 L 1137.334 896.089 L 1137.334 896.089 L 1137.334 896.089 L 1137.334 896.089 L 1137.334 896.089 L 1137.334 896.089 Z  M 1137.334 1207.131 L 1138.5 1207.131 L 1138.5 1209.464 L 1137.334 1209.464 C 1130.102 1209.456 1122.87 1209.589 1115.638 1209.861 C 1109.239 1210.094 1102.839 1210.467 1096.447 1210.98 C 1085.615 1211.828 1074.83 1213.166 1064.114 1214.977 C 1055.164 1216.525 1046.268 1218.407 1037.458 1220.631 C 1033.414 1221.649 1029.379 1222.715 1025.358 1223.826 C 1021.432 1224.907 1017.505 1226.012 1013.586 1227.124 C 1009.651 1228.251 1005.708 1229.355 1001.766 1230.444 C 997.715 1231.564 993.648 1232.637 989.565 1233.663 C 980.654 1235.911 971.665 1237.816 962.606 1239.379 C 951.758 1241.206 940.833 1242.559 929.861 1243.414 C 923.399 1243.928 916.921 1244.309 910.436 1244.55 C 903.127 1244.822 895.817 1244.954 888.5 1244.946 C 881.206 1244.954 873.912 1244.822 866.626 1244.55 C 860.172 1244.309 853.718 1243.935 847.279 1243.422 C 836.369 1242.575 825.506 1241.229 814.713 1239.402 C 805.724 1237.847 796.789 1235.949 787.948 1233.71 C 783.897 1232.683 779.861 1231.618 775.841 1230.498 C 771.929 1229.417 768.018 1228.313 764.114 1227.194 C 760.203 1226.074 756.284 1224.97 752.365 1223.881 C 748.344 1222.769 744.316 1221.696 740.273 1220.677 C 731.439 1218.445 722.528 1216.548 713.554 1215.001 C 702.769 1213.173 691.906 1211.836 681.004 1210.988 C 674.55 1210.475 668.08 1210.102 661.61 1209.861 C 654.301 1209.589 646.984 1209.456 639.666 1209.464 L 638.5 1209.464 L 638.5 1207.131 L 639.666 1207.131 C 647.015 1207.124 654.355 1207.256 661.704 1207.528 C 668.205 1207.769 674.698 1208.15 681.183 1208.663 C 692.163 1209.519 703.088 1210.864 713.943 1212.699 C 722.979 1214.262 731.953 1216.167 740.841 1218.414 C 744.907 1219.441 748.951 1220.514 752.995 1221.634 C 756.914 1222.722 760.841 1223.826 764.752 1224.954 C 768.656 1226.066 772.559 1227.17 776.463 1228.251 C 780.467 1229.363 784.488 1230.428 788.516 1231.447 C 797.302 1233.671 806.175 1235.561 815.11 1237.1 C 825.825 1238.92 836.626 1240.25 847.458 1241.097 C 853.873 1241.61 860.288 1241.984 866.711 1242.217 C 873.974 1242.489 881.237 1242.621 888.5 1242.613 C 895.786 1242.621 903.072 1242.489 910.351 1242.217 C 916.805 1241.976 923.243 1241.603 929.682 1241.089 C 940.576 1240.242 951.432 1238.896 962.209 1237.077 C 971.206 1235.522 980.141 1233.632 988.998 1231.4 C 993.057 1230.382 997.108 1229.309 1001.144 1228.197 C 1005.086 1227.108 1009.021 1226.004 1012.948 1224.884 C 1016.875 1223.764 1020.802 1222.66 1024.736 1221.579 C 1028.772 1220.459 1032.823 1219.394 1036.89 1218.368 C 1045.763 1216.128 1054.713 1214.231 1063.725 1212.676 C 1074.503 1210.848 1085.366 1209.511 1096.261 1208.655 C 1102.683 1208.142 1109.114 1207.769 1115.553 1207.528 C 1122.808 1207.256 1130.071 1207.124 1137.334 1207.131 L 1137.334 1207.131 L 1137.334 1207.131 L 1137.334 1207.131 L 1137.334 1207.131 L 1137.334 1207.131 L 1137.334 1207.131 Z  M 1137.334 881.89 L 1138.5 881.89 L 1138.5 884.223 L 1137.334 884.223 C 1130.102 884.215 1122.87 884.347 1115.638 884.62 C 1109.239 884.861 1102.839 885.234 1096.447 885.739 C 1085.615 886.595 1074.83 887.924 1064.114 889.736 C 1055.164 891.284 1046.268 893.173 1037.458 895.397 C 1033.414 896.416 1029.379 897.473 1025.358 898.585 C 1021.432 899.674 1017.505 900.77 1013.586 901.89 C 1009.651 903.01 1005.708 904.114 1001.766 905.203 C 997.715 906.323 993.648 907.396 989.565 908.422 C 980.654 910.669 971.665 912.575 962.606 914.138 C 951.758 915.973 940.833 917.318 929.861 918.181 C 923.399 918.694 916.921 919.068 910.436 919.309 C 903.127 919.581 895.817 919.721 888.5 919.713 C 881.206 919.721 873.912 919.589 866.626 919.316 C 860.172 919.075 853.718 918.694 847.279 918.189 C 836.369 917.334 825.506 915.988 814.713 914.161 C 805.724 912.606 796.789 910.708 787.948 908.469 C 783.897 907.45 779.861 906.377 775.841 905.265 C 771.929 904.176 768.018 903.072 764.114 901.952 C 760.203 900.833 756.284 899.729 752.365 898.648 C 748.344 897.528 744.316 896.463 740.273 895.444 C 731.439 893.204 722.528 891.315 713.554 889.767 C 702.769 887.94 691.906 886.603 681.004 885.747 C 674.55 885.242 668.08 884.861 661.61 884.62 C 654.301 884.347 646.984 884.215 639.666 884.223 L 638.5 884.223 L 638.5 881.89 L 639.666 881.89 C 647.015 881.882 654.355 882.022 661.704 882.295 C 668.205 882.536 674.698 882.909 681.183 883.422 C 692.163 884.278 703.088 885.631 713.943 887.466 C 722.979 889.021 731.953 890.926 740.841 893.181 C 744.907 894.208 748.951 895.281 752.995 896.393 C 756.914 897.489 760.841 898.593 764.752 899.713 C 768.656 900.833 772.559 901.929 776.463 903.018 C 780.467 904.13 784.488 905.195 788.516 906.206 C 797.302 908.438 806.175 910.32 815.11 911.867 C 825.825 913.679 836.626 915.016 847.458 915.864 C 853.873 916.369 860.288 916.743 866.711 916.984 C 873.974 917.256 881.237 917.388 888.5 917.38 C 895.786 917.388 903.072 917.248 910.351 916.984 C 916.805 916.743 923.243 916.362 929.682 915.856 C 940.576 915.001 951.432 913.663 962.209 911.836 C 971.206 910.288 980.141 908.391 988.998 906.159 C 993.057 905.141 997.108 904.075 1001.144 902.956 C 1005.086 901.867 1009.021 900.763 1012.948 899.643 C 1016.875 898.531 1020.802 897.427 1024.736 896.338 C 1028.772 895.226 1032.823 894.153 1036.89 893.134 C 1045.763 890.895 1054.713 888.998 1063.725 887.442 C 1074.503 885.615 1085.366 884.27 1096.261 883.414 C 1102.683 882.909 1109.114 882.528 1115.553 882.287 C 1122.808 882.015 1130.071 881.882 1137.334 881.89 L 1137.334 881.89 L 1137.334 881.89 L 1137.334 881.89 L 1137.334 881.89 L 1137.334 881.89 Z  M 1137.334 1192.932 L 1138.5 1192.932 L 1138.5 1195.265 L 1137.334 1195.265 C 1130.102 1195.257 1122.87 1195.389 1115.638 1195.662 C 1109.239 1195.903 1102.839 1196.276 1096.447 1196.781 C 1085.615 1197.637 1074.83 1198.966 1064.114 1200.778 C 1055.164 1202.326 1046.268 1204.215 1037.458 1206.439 C 1033.414 1207.458 1029.379 1208.515 1025.358 1209.627 C 1021.432 1210.716 1017.505 1211.812 1013.586 1212.932 C 1009.651 1214.052 1005.708 1215.156 1001.766 1216.245 C 997.715 1217.365 993.648 1218.438 989.565 1219.464 C 980.654 1221.711 971.665 1223.617 962.606 1225.18 C 951.758 1227.015 940.833 1228.36 929.861 1229.223 C 923.399 1229.736 916.921 1230.11 910.436 1230.351 C 903.127 1230.623 895.817 1230.763 888.5 1230.755 C 881.206 1230.763 873.912 1230.631 866.626 1230.358 C 860.172 1230.117 853.718 1229.736 847.279 1229.231 C 836.369 1228.376 825.506 1227.03 814.713 1225.203 C 805.724 1223.648 796.789 1221.75 787.948 1219.511 C 783.897 1218.492 779.861 1217.419 775.841 1216.307 C 771.929 1215.218 768.018 1214.114 764.114 1212.994 C 760.203 1211.875 756.284 1210.771 752.365 1209.69 C 748.344 1208.57 744.316 1207.505 740.273 1206.486 C 731.439 1204.246 722.528 1202.357 713.554 1200.809 C 702.769 1198.982 691.906 1197.645 681.004 1196.789 C 674.55 1196.284 668.08 1195.903 661.61 1195.662 C 654.301 1195.389 646.984 1195.257 639.666 1195.265 L 638.5 1195.265 L 638.5 1192.932 L 639.666 1192.932 C 647.015 1192.924 654.355 1193.064 661.704 1193.337 C 668.205 1193.578 674.698 1193.951 681.183 1194.464 C 692.163 1195.32 703.088 1196.673 713.943 1198.508 C 722.979 1200.063 731.953 1201.968 740.841 1204.223 C 744.907 1205.249 748.951 1206.323 752.995 1207.435 C 756.914 1208.531 760.841 1209.635 764.752 1210.755 C 768.656 1211.875 772.559 1212.971 776.463 1214.06 C 780.467 1215.172 784.488 1216.237 788.516 1217.248 C 797.302 1219.48 806.175 1221.361 815.11 1222.909 C 825.825 1224.721 836.626 1226.058 847.458 1226.906 C 853.873 1227.411 860.288 1227.785 866.711 1228.026 C 873.974 1228.298 881.237 1228.43 888.5 1228.422 C 895.786 1228.43 903.072 1228.29 910.351 1228.026 C 916.805 1227.785 923.243 1227.404 929.682 1226.898 C 940.576 1226.043 951.432 1224.705 962.209 1222.878 C 971.206 1221.33 980.141 1219.433 988.998 1217.201 C 993.057 1216.183 997.108 1215.117 1001.144 1213.998 C 1005.086 1212.909 1009.021 1211.805 1012.948 1210.685 C 1016.875 1209.573 1020.802 1208.469 1024.736 1207.38 C 1028.772 1206.268 1032.823 1205.195 1036.89 1204.176 C 1045.763 1201.937 1054.713 1200.04 1063.725 1198.484 C 1074.503 1196.657 1085.366 1195.312 1096.261 1194.456 C 1102.683 1193.951 1109.114 1193.57 1115.553 1193.329 C 1122.808 1193.057 1130.071 1192.924 1137.334 1192.932 L 1137.334 1192.932 L 1137.334 1192.932 L 1137.334 1192.932 L 1137.334 1192.932 Z  M 1137.334 867.699 L 1138.5 867.699 L 1138.5 870.032 L 1137.334 870.032 C 1130.102 870.024 1122.87 870.156 1115.638 870.428 C 1109.239 870.662 1102.839 871.035 1096.447 871.548 C 1085.615 872.396 1074.83 873.733 1064.114 875.545 C 1055.164 877.092 1046.268 878.974 1037.458 881.198 C 1033.414 882.217 1029.379 883.282 1025.358 884.394 C 1021.432 885.475 1017.505 886.579 1013.586 887.691 C 1009.651 888.819 1005.708 889.923 1001.766 891.012 C 997.715 892.131 993.648 893.204 989.565 894.231 C 980.654 896.478 971.665 898.383 962.606 899.946 C 951.758 901.774 940.833 903.127 929.861 903.982 C 923.399 904.495 916.921 904.876 910.436 905.117 L 888.5 905.514 L 866.626 905.117 C 866.626 905.117 866.626 905.117 866.626 905.117 C 860.172 904.876 853.718 904.503 847.279 903.99 C 836.369 903.134 825.506 901.797 814.713 899.97 C 805.724 898.414 796.789 896.517 787.948 894.278 C 783.897 893.251 779.861 892.186 775.841 891.066 C 771.929 889.985 768.018 888.881 764.114 887.761 C 760.203 886.641 756.284 885.537 752.365 884.449 C 748.344 883.337 744.316 882.264 740.273 881.245 C 731.439 879.013 722.528 877.116 713.554 875.568 C 702.769 873.741 691.906 872.403 681.004 871.556 C 674.55 871.043 668.08 870.669 661.61 870.428 C 654.301 870.156 646.984 870.024 639.666 870.032 L 638.5 870.032 L 638.5 867.699 L 639.666 867.699 C 647.015 867.691 654.355 867.823 661.704 868.096 C 668.205 868.337 674.698 868.718 681.183 869.231 C 692.163 870.086 703.088 871.431 713.943 873.267 C 722.979 874.83 731.953 876.735 740.841 878.982 C 744.907 880.008 748.951 881.082 752.995 882.201 C 756.914 883.29 760.841 884.394 764.752 885.522 C 768.656 886.634 772.559 887.738 776.463 888.819 C 780.467 889.931 784.488 890.996 788.516 892.015 C 797.302 894.239 806.175 896.128 815.11 897.668 C 825.825 899.487 836.626 900.817 847.458 901.665 C 853.873 902.178 860.288 902.551 866.711 902.785 L 888.5 903.181 L 910.351 902.785 C 916.805 902.543 923.243 902.17 929.682 901.657 C 940.576 900.809 951.432 899.464 962.209 897.645 C 971.206 896.089 980.141 894.2 988.998 891.968 C 993.057 890.942 997.108 889.876 1001.144 888.764 C 1005.086 887.676 1009.021 886.571 1012.948 885.452 C 1016.875 884.332 1020.802 883.228 1024.736 882.147 C 1028.772 881.027 1032.823 879.962 1036.89 878.935 C 1045.763 876.696 1054.713 874.799 1063.725 873.243 C 1074.503 871.416 1085.366 870.078 1096.261 869.223 C 1102.683 868.71 1109.114 868.337 1115.553 868.096 C 1122.808 867.823 1130.071 867.691 1137.334 867.699 L 1137.334 867.699 L 1137.334 867.699 L 1137.334 867.699 Z  M 1137.334 1178.741 L 1138.5 1178.741 L 1138.5 1181.074 L 1137.334 1181.074 C 1130.102 1181.066 1122.87 1181.198 1115.638 1181.47 C 1109.239 1181.704 1102.839 1182.077 1096.447 1182.59 C 1085.615 1183.438 1074.83 1184.775 1064.114 1186.587 C 1055.164 1188.134 1046.268 1190.016 1037.458 1192.24 C 1033.414 1193.259 1029.379 1194.324 1025.358 1195.436 C 1021.432 1196.517 1017.505 1197.621 1013.586 1198.733 C 1009.651 1199.861 1005.708 1200.965 1001.766 1202.054 C 997.715 1203.173 993.648 1204.246 989.565 1205.273 C 980.654 1207.52 971.665 1209.425 962.606 1210.988 C 951.758 1212.816 940.833 1214.169 929.861 1215.024 C 923.399 1215.537 916.921 1215.918 910.436 1216.159 L 888.5 1216.556 L 866.626 1216.159 C 866.626 1216.159 866.626 1216.159 866.626 1216.159 C 860.172 1215.918 853.718 1215.545 847.279 1215.032 C 836.369 1214.176 825.506 1212.839 814.713 1211.012 C 805.724 1209.456 796.789 1207.559 787.948 1205.32 C 783.897 1204.293 779.861 1203.228 775.841 1202.108 C 771.929 1201.027 768.018 1199.923 764.114 1198.803 C 760.203 1197.683 756.284 1196.579 752.365 1195.491 C 748.344 1194.379 744.316 1193.305 740.273 1192.287 C 731.439 1190.055 722.528 1188.158 713.554 1186.61 C 702.769 1184.783 691.906 1183.445 681.004 1182.598 C 674.55 1182.085 668.08 1181.711 661.61 1181.47 C 654.301 1181.198 646.984 1181.066 639.666 1181.074 L 638.5 1181.074 L 638.5 1178.741 L 639.666 1178.741 C 647.015 1178.733 654.355 1178.865 661.704 1179.138 C 668.205 1179.379 674.698 1179.76 681.183 1180.273 C 692.163 1181.128 703.088 1182.473 713.943 1184.309 C 722.979 1185.872 731.953 1187.777 740.841 1190.024 C 744.907 1191.05 748.951 1192.124 752.995 1193.243 C 756.914 1194.332 760.841 1195.436 764.752 1196.564 C 768.656 1197.676 772.559 1198.78 776.463 1199.861 C 780.467 1200.973 784.488 1202.038 788.516 1203.057 C 797.302 1205.281 806.175 1207.17 815.11 1208.71 C 825.825 1210.529 836.626 1211.859 847.458 1212.707 C 853.873 1213.22 860.288 1213.593 866.711 1213.827 L 888.5 1214.223 L 910.351 1213.827 C 916.805 1213.585 923.243 1213.212 929.682 1212.699 C 940.576 1211.851 951.432 1210.506 962.209 1208.687 C 971.206 1207.131 980.141 1205.242 988.998 1203.01 C 993.057 1201.984 997.108 1200.918 1001.144 1199.806 C 1005.086 1198.718 1009.021 1197.613 1012.948 1196.494 C 1016.875 1195.374 1020.802 1194.27 1024.736 1193.189 C 1028.772 1192.069 1032.823 1191.004 1036.89 1189.977 C 1045.763 1187.738 1054.713 1185.841 1063.725 1184.285 C 1074.503 1182.458 1085.366 1181.12 1096.261 1180.265 C 1102.683 1179.752 1109.114 1179.379 1115.553 1179.138 C 1122.808 1178.865 1130.071 1178.733 1137.334 1178.741 L 1137.334 1178.741 L 1137.334 1178.741 Z  M 1137.334 853.5 L 1138.5 853.5 L 1138.5 855.833 L 1137.334 855.833 C 1130.102 855.825 1122.87 855.957 1115.638 856.229 C 1109.239 856.47 1102.839 856.844 1096.447 857.349 C 1085.615 858.204 1074.83 859.534 1064.114 861.346 C 1055.164 862.893 1046.268 864.783 1037.458 866.999 C 1033.414 868.018 1029.379 869.083 1025.358 870.195 C 1021.432 871.284 1017.505 872.38 1013.586 873.5 C 1009.651 874.62 1005.708 875.724 1001.766 876.812 C 997.715 877.932 993.648 879.005 989.565 880.032 C 980.654 882.279 971.665 884.184 962.606 885.747 C 951.758 887.582 940.833 888.928 929.861 889.791 C 923.399 890.304 916.921 890.677 910.436 890.918 L 888.5 891.323 L 866.626 890.926 C 866.626 890.926 866.626 890.926 866.626 890.926 C 860.172 890.685 853.718 890.304 847.279 889.799 C 836.369 888.943 825.506 887.598 814.713 885.771 C 805.724 884.215 796.789 882.318 787.948 880.078 C 783.897 879.06 779.861 877.987 775.841 876.875 C 771.929 875.786 768.018 874.682 764.114 873.562 C 760.203 872.442 756.284 871.338 752.365 870.257 C 748.344 869.138 744.316 868.072 740.273 867.046 C 731.439 864.814 722.528 862.924 713.554 861.377 C 702.769 859.55 691.906 858.212 681.004 857.357 C 674.55 856.844 668.08 856.47 661.61 856.229 C 654.301 855.957 646.984 855.825 639.666 855.833 L 638.5 855.833 L 638.5 853.5 L 639.666 853.5 C 647.015 853.492 654.355 853.624 661.704 853.896 C 668.205 854.145 674.698 854.519 681.183 855.032 C 692.163 855.887 703.088 857.24 713.943 859.075 C 722.979 860.631 731.953 862.536 740.841 864.791 C 744.907 865.817 748.951 866.883 752.995 868.002 C 756.914 869.099 760.841 870.203 764.752 871.323 C 768.656 872.442 772.559 873.539 776.463 874.627 C 780.467 875.739 784.488 876.797 788.516 877.816 C 797.302 880.04 806.175 881.929 815.11 883.469 C 825.825 885.288 836.626 886.626 847.458 887.473 C 853.873 887.979 860.288 888.352 866.711 888.593 L 888.5 888.99 L 910.351 888.593 C 916.805 888.352 923.243 887.971 929.682 887.466 C 940.576 886.61 951.432 885.273 962.209 883.445 C 971.206 881.898 980.141 880.001 988.998 877.769 C 993.057 876.75 997.108 875.685 1001.144 874.565 C 1005.086 873.477 1009.021 872.372 1012.948 871.253 C 1016.875 870.141 1020.802 869.036 1024.736 867.948 C 1028.772 866.836 1032.823 865.763 1036.89 864.744 C 1045.763 862.505 1054.713 860.607 1063.725 859.052 C 1074.503 857.225 1085.366 855.879 1096.261 855.024 C 1102.683 854.511 1109.114 854.138 1115.553 853.896 C 1122.808 853.624 1130.071 853.492 1137.334 853.5 L 1137.334 853.5 Z  M 1137.334 1164.542 L 1138.5 1164.542 L 1138.5 1166.875 L 1137.334 1166.875 C 1130.102 1166.867 1122.87 1166.999 1115.638 1167.271 C 1109.239 1167.512 1102.839 1167.886 1096.447 1168.391 C 1085.615 1169.246 1074.83 1170.576 1064.114 1172.388 C 1055.164 1173.935 1046.268 1175.825 1037.458 1178.041 C 1033.414 1179.06 1029.379 1180.125 1025.358 1181.237 C 1021.432 1182.326 1017.505 1183.422 1013.586 1184.542 C 1009.651 1185.662 1005.708 1186.766 1001.766 1187.854 C 997.715 1188.974 993.648 1190.047 989.565 1191.074 C 980.654 1193.321 971.665 1195.226 962.606 1196.789 C 951.758 1198.624 940.833 1199.97 929.861 1200.833 C 923.399 1201.346 916.921 1201.719 910.436 1201.96 L 888.5 1202.365 L 866.626 1201.968 C 866.626 1201.968 866.626 1201.968 866.626 1201.968 C 860.172 1201.727 853.718 1201.346 847.279 1200.84 C 836.369 1199.985 825.506 1198.64 814.713 1196.813 C 805.724 1195.257 796.789 1193.36 787.948 1191.12 C 783.897 1190.102 779.861 1189.029 775.841 1187.917 C 771.929 1186.828 768.018 1185.724 764.114 1184.604 C 760.203 1183.484 756.284 1182.38 752.365 1181.299 C 748.344 1180.18 744.316 1179.114 740.273 1178.088 C 731.439 1175.856 722.528 1173.966 713.554 1172.419 C 702.769 1170.592 691.906 1169.254 681.004 1168.399 C 674.55 1167.886 668.08 1167.512 661.61 1167.271 C 654.301 1166.999 646.984 1166.867 639.666 1166.875 L 638.5 1166.875 L 638.5 1164.542 L 639.666 1164.542 C 647.015 1164.534 654.355 1164.666 661.704 1164.938 C 668.205 1165.187 674.698 1165.561 681.183 1166.074 C 692.163 1166.929 703.088 1168.282 713.943 1170.117 C 722.979 1171.673 731.953 1173.578 740.841 1175.833 C 744.907 1176.859 748.951 1177.924 752.995 1179.044 C 756.914 1180.141 760.841 1181.245 764.752 1182.365 C 768.656 1183.484 772.559 1184.581 776.463 1185.669 C 780.467 1186.781 784.488 1187.839 788.516 1188.858 C 797.302 1191.082 806.175 1192.971 815.11 1194.511 C 825.825 1196.33 836.626 1197.668 847.458 1198.515 C 853.873 1199.021 860.288 1199.394 866.711 1199.635 L 888.5 1200.032 L 910.351 1199.635 C 916.805 1199.394 923.243 1199.013 929.682 1198.508 C 940.576 1197.652 951.432 1196.315 962.209 1194.487 C 971.206 1192.94 980.141 1191.043 988.998 1188.811 C 993.057 1187.792 997.108 1186.727 1001.144 1185.607 C 1005.086 1184.519 1009.021 1183.414 1012.948 1182.295 C 1016.875 1181.183 1020.802 1180.078 1024.736 1178.99 C 1028.772 1177.878 1032.823 1176.805 1036.89 1175.786 C 1045.763 1173.547 1054.713 1171.649 1063.725 1170.094 C 1074.503 1168.267 1085.366 1166.921 1096.261 1166.066 C 1102.683 1165.553 1109.114 1165.18 1115.553 1164.938 C 1122.808 1164.666 1130.071 1164.534 1137.334 1164.542 Z " fill-rule="evenodd" fill="url(#_lgradient_0)"/></g></svg>