<?xml version="1.0" encoding="UTF-8" standalone="no"?><!-- Generator: Gravit.io --><svg xmlns="http://www.w3.org/2000/svg" xmlns:xlink="http://www.w3.org/1999/xlink" style="isolation:isolate" viewBox="964.5 596 252 182" width="252pt" height="182pt"><g style="isolation:isolate"><g opacity="0"><path d=" M 964.5 596 L 1216.5 596 L 1216.5 778 L 964.5 778 L 964.5 596 Z " fill="rgb(255,255,255)"/></g><linearGradient id="_lgradient_0" x1="0.1464466094067262" y1="0.14644660940672627" x2="0.8535533905932737" y2="0.8535533905932737" gradientTransform="matrix(115.029,0,0,115.029,1016.7,617.85)" gradientUnits="userSpaceOnUse"><stop offset="0%" stop-opacity="1" style="stop-color:rgb(235,235,235)"/><stop offset="98.26086956521739%" stop-opacity="0" style="stop-color:rgb(235,235,235)"/></linearGradient><path d=" M 1016.7 675.365 C 1016.7 643.621 1042.471 617.85 1074.215 617.85 C 1105.958 617.85 1131.729 643.621 1131.729 675.365 C 1131.729 707.108 1105.958 732.879 1074.215 732.879 C 1042.471 732.879 1016.7 707.108 1016.7 675.365 Z " fill="url(#_lgradient_0)"/><path d=" M 1114.607 675.365 L 1114.607 675.365 C 1136.901 675.365 1155 693.464 1155 715.757 L 1155 715.757 C 1155 738.051 1136.901 756.15 1114.607 756.15 L 1114.607 756.15 C 1092.314 756.15 1074.215 738.051 1074.215 715.757 L 1074.215 715.757 C 1074.215 693.464 1092.314 675.365 1114.607 675.365 Z " fill="rgb(235,235,235)"/></g></svg>